<svg id="container" width="917.796875" xmlns="http://www.w3.org/2000/svg" class="erDiagram" height="1372.25" viewBox="0 0 917.796875 1372.25" role="graphics-document document" aria-roledescription="er"><style>#container{font-family:"trebuchet ms",verdana,arial,sans-serif;font-size:16px;fill:#333;}@keyframes edge-animation-frame{from{stroke-dashoffset:0;}}@keyframes dash{to{stroke-dashoffset:0;}}#container .edge-animation-slow{stroke-dasharray:9,5!important;stroke-dashoffset:900;animation:dash 50s linear infinite;stroke-linecap:round;}#container .edge-animation-fast{stroke-dasharray:9,5!important;stroke-dashoffset:900;animation:dash 20s linear infinite;stroke-linecap:round;}#container .error-icon{fill:#552222;}#container .error-text{fill:#552222;stroke:#552222;}#container .edge-thickness-normal{stroke-width:1px;}#container .edge-thickness-thick{stroke-width:3.5px;}#container .edge-pattern-solid{stroke-dasharray:0;}#container .edge-thickness-invisible{stroke-width:0;fill:none;}#container .edge-pattern-dashed{stroke-dasharray:3;}#container .edge-pattern-dotted{stroke-dasharray:2;}#container .marker{fill:#333333;stroke:#333333;}#container .marker.cross{stroke:#333333;}#container svg{font-family:"trebuchet ms",verdana,arial,sans-serif;font-size:16px;}#container p{margin:0;}#container .entityBox{fill:#ECECFF;stroke:#9370DB;}#container .relationshipLabelBox{fill:hsl(80, 100%, 96.2745098039%);opacity:0.7;background-color:hsl(80, 100%, 96.2745098039%);}#container .relationshipLabelBox rect{opacity:0.5;}#container .labelBkg{background-color:rgba(248.6666666666, 255, 235.9999999999, 0.5);}#container .edgeLabel .label{fill:#9370DB;font-size:14px;}#container .label{font-family:"trebuchet ms",verdana,arial,sans-serif;color:#333;}#container .edge-pattern-dashed{stroke-dasharray:8,8;}#container .node rect,#container .node circle,#container .node ellipse,#container .node polygon{fill:#ECECFF;stroke:#9370DB;stroke-width:1px;}#container .relationshipLine{stroke:#333333;stroke-width:1;fill:none;}#container .marker{fill:none!important;stroke:#333333!important;stroke-width:1;}#container :root{--mermaid-font-family:"trebuchet ms",verdana,arial,sans-serif;}</style><g><defs><marker id="container_er-onlyOneStart" class="marker onlyOne er" refX="0" refY="9" markerWidth="18" markerHeight="18" orient="auto"><path d="M9,0 L9,18 M15,0 L15,18"></path></marker></defs><defs><marker id="container_er-onlyOneEnd" class="marker onlyOne er" refX="18" refY="9" markerWidth="18" markerHeight="18" orient="auto"><path d="M3,0 L3,18 M9,0 L9,18"></path></marker></defs><defs><marker id="container_er-zeroOrOneStart" class="marker zeroOrOne er" refX="0" refY="9" markerWidth="30" markerHeight="18" orient="auto"><circle fill="white" cx="21" cy="9" r="6"></circle><path d="M9,0 L9,18"></path></marker></defs><defs><marker id="container_er-zeroOrOneEnd" class="marker zeroOrOne er" refX="30" refY="9" markerWidth="30" markerHeight="18" orient="auto"><circle fill="white" cx="9" cy="9" r="6"></circle><path d="M21,0 L21,18"></path></marker></defs><defs><marker id="container_er-oneOrMoreStart" class="marker oneOrMore er" refX="18" refY="18" markerWidth="45" markerHeight="36" orient="auto"><path d="M0,18 Q 18,0 36,18 Q 18,36 0,18 M42,9 L42,27"></path></marker></defs><defs><marker id="container_er-oneOrMoreEnd" class="marker oneOrMore er" refX="27" refY="18" markerWidth="45" markerHeight="36" orient="auto"><path d="M3,9 L3,27 M9,18 Q27,0 45,18 Q27,36 9,18"></path></marker></defs><defs><marker id="container_er-zeroOrMoreStart" class="marker zeroOrMore er" refX="18" refY="18" markerWidth="57" markerHeight="36" orient="auto"><circle fill="white" cx="48" cy="18" r="6"></circle><path d="M0,18 Q18,0 36,18 Q18,36 0,18"></path></marker></defs><defs><marker id="container_er-zeroOrMoreEnd" class="marker zeroOrMore er" refX="39" refY="18" markerWidth="57" markerHeight="36" orient="auto"><circle fill="white" cx="9" cy="18" r="6"></circle><path d="M21,18 Q39,0 57,18 Q39,36 21,18"></path></marker></defs><g class="root"><g class="clusters"></g><g class="edgePaths"><path d="M109.469,307.25L109.469,329.917C109.469,352.583,109.469,397.917,137.717,442.881C165.966,487.846,222.464,532.441,250.712,554.739L278.961,577.037" id="id_entity-market_ticks-0_entity-core_build_metadata-3_0" class="edge-thickness-normal edge-pattern-solid relationshipLine" style="undefined;;;undefined" data-edge="true" data-et="edge" data-id="id_entity-market_ticks-0_entity-core_build_metadata-3_0" data-points="W3sieCI6MTA5LjQ2ODc1LCJ5IjozMDcuMjV9LHsieCI6MTA5LjQ2ODc1LCJ5Ijo0NDMuMjV9LHsieCI6Mjc4Ljk2MDkzNzUsInkiOjU3Ny4wMzY5MzAyOTMzNDJ9XQ==" marker-start="url(#container_er-onlyOneStart)" marker-end="url(#container_er-zeroOrMoreEnd)"></path><path d="M444.242,285.875L444.242,312.104C444.242,338.333,444.242,390.792,444.242,425.438C444.242,460.083,444.242,476.917,444.242,485.333L444.242,493.75" id="id_entity-connection_events-1_entity-core_build_metadata-3_1" class="edge-thickness-normal edge-pattern-solid relationshipLine" style="undefined;;;undefined" data-edge="true" data-et="edge" data-id="id_entity-connection_events-1_entity-core_build_metadata-3_1" data-points="W3sieCI6NDQ0LjI0MjE4NzUsInkiOjI4NS44NzV9LHsieCI6NDQ0LjI0MjE4NzUsInkiOjQ0My4yNX0seyJ4Ijo0NDQuMjQyMTg3NSwieSI6NDkzLjc1fV0=" marker-start="url(#container_er-onlyOneStart)" marker-end="url(#container_er-zeroOrMoreEnd)"></path><path d="M793.672,392.75L793.672,401.167C793.672,409.583,793.672,426.417,762.98,458.043C732.289,489.67,670.906,536.089,640.215,559.299L609.523,582.509" id="id_entity-cleansed_market-2_entity-core_build_metadata-3_2" class="edge-thickness-normal edge-pattern-solid relationshipLine" style="undefined;;;undefined" data-edge="true" data-et="edge" data-id="id_entity-cleansed_market-2_entity-core_build_metadata-3_2" data-points="W3sieCI6NzkzLjY3MTg3NSwieSI6MzkyLjc1fSx7IngiOjc5My42NzE4NzUsInkiOjQ0My4yNX0seyJ4Ijo2MDkuNTIzNDM3NSwieSI6NTgyLjUwODk4Nzg1OTY4MjF9XQ==" marker-start="url(#container_er-onlyOneStart)" marker-end="url(#container_er-zeroOrMoreEnd)"></path><path d="M444.242,921.25L444.242,929.667C444.242,938.083,444.242,954.917,444.242,971.75C444.242,988.583,444.242,1005.417,444.242,1013.833L444.242,1022.25" id="id_entity-core_build_metadata-3_entity-validation_report_json-4_3" class="edge-thickness-normal edge-pattern-solid relationshipLine" style="undefined;;;undefined" data-edge="true" data-et="edge" data-id="id_entity-core_build_metadata-3_entity-validation_report_json-4_3" data-points="W3sieCI6NDQ0LjI0MjE4NzUsInkiOjkyMS4yNX0seyJ4Ijo0NDQuMjQyMTg3NSwieSI6OTcxLjc1fSx7IngiOjQ0NC4yNDIxODc1LCJ5IjoxMDIyLjI1fV0=" marker-start="url(#container_er-onlyOneStart)" marker-end="url(#container_er-zeroOrMoreEnd)"></path></g><g class="edgeLabels"><g class="edgeLabel" transform="translate(109.46875, 443.25)"><g class="label" data-id="id_entity-market_ticks-0_entity-core_build_metadata-3_0" transform="translate(-82.6640625, -10.5)"><foreignObject width="165.328125" height="21"><div xmlns="http://www.w3.org/1999/xhtml" class="labelBkg" style="display: table-cell; white-space: nowrap; line-height: 1.5; max-width: 200px; text-align: center;"><span class="edgeLabel"><p>contributes_to_row_count</p></span></div></foreignObject></g></g><g class="edgeLabel" transform="translate(444.2421875, 443.25)"><g class="label" data-id="id_entity-connection_events-1_entity-core_build_metadata-3_1" transform="translate(-82.6640625, -10.5)"><foreignObject width="165.328125" height="21"><div xmlns="http://www.w3.org/1999/xhtml" class="labelBkg" style="display: table-cell; white-space: nowrap; line-height: 1.5; max-width: 200px; text-align: center;"><span class="edgeLabel"><p>contributes_to_row_count</p></span></div></foreignObject></g></g><g class="edgeLabel" transform="translate(793.671875, 443.25)"><g class="label" data-id="id_entity-cleansed_market-2_entity-core_build_metadata-3_2" transform="translate(-82.6640625, -10.5)"><foreignObject width="165.328125" height="21"><div xmlns="http://www.w3.org/1999/xhtml" class="labelBkg" style="display: table-cell; white-space: nowrap; line-height: 1.5; max-width: 200px; text-align: center;"><span class="edgeLabel"><p>contributes_to_row_count</p></span></div></foreignObject></g></g><g class="edgeLabel" transform="translate(444.2421875, 971.75)"><g class="label" data-id="id_entity-core_build_metadata-3_entity-validation_report_json-4_3" transform="translate(-40.7265625, -10.5)"><foreignObject width="81.453125" height="21"><div xmlns="http://www.w3.org/1999/xhtml" class="labelBkg" style="display: table-cell; white-space: nowrap; line-height: 1.5; max-width: 200px; text-align: center;"><span class="edgeLabel"><p>validated_by</p></span></div></foreignObject></g></g></g><g class="nodes"><g class="node default" id="entity-market_ticks-0" transform="translate(109.46875, 200.375)"><g style=""><path d="M-101.46875 -106.875 L101.46875 -106.875 L101.46875 106.875 L-101.46875 106.875" stroke="none" stroke-width="0" fill="#ECECFF"></path><path d="M-101.46875 -106.875 C-53.31142295451013 -106.875, -5.154095909020256 -106.875, 101.46875 -106.875 M-101.46875 -106.875 C-23.028919666743136 -106.875, 55.41091066651373 -106.875, 101.46875 -106.875 M101.46875 -106.875 C101.46875 -60.39817182131112, 101.46875 -13.921343642622233, 101.46875 106.875 M101.46875 -106.875 C101.46875 -34.94824754327888, 101.46875 36.97850491344224, 101.46875 106.875 M101.46875 106.875 C58.246693817042086 106.875, 15.024637634084172 106.875, -101.46875 106.875 M101.46875 106.875 C54.55518437844437 106.875, 7.641618756888747 106.875, -101.46875 106.875 M-101.46875 106.875 C-101.46875 36.946945766406486, -101.46875 -32.98110846718703, -101.46875 -106.875 M-101.46875 106.875 C-101.46875 45.29981220572718, -101.46875 -16.275375588545643, -101.46875 -106.875" stroke="#9370DB" stroke-width="1.3" fill="none" stroke-dasharray="0 0"></path></g><g style="" class="row-rect-odd"><path d="M-101.46875 -64.125 L101.46875 -64.125 L101.46875 -21.375 L-101.46875 -21.375" stroke="none" stroke-width="0" fill="hsl(240, 100%, 100%)"></path><path d="M-101.46875 -64.125 C-20.51616226231998 -64.125, 60.43642547536004 -64.125, 101.46875 -64.125 M-101.46875 -64.125 C-44.78529957326601 -64.125, 11.898150853467982 -64.125, 101.46875 -64.125 M101.46875 -64.125 C101.46875 -52.98348772978772, 101.46875 -41.84197545957544, 101.46875 -21.375 M101.46875 -64.125 C101.46875 -47.77828809139562, 101.46875 -31.43157618279124, 101.46875 -21.375 M101.46875 -21.375 C21.15759678991236 -21.375, -59.15355642017528 -21.375, -101.46875 -21.375 M101.46875 -21.375 C46.00560765126161 -21.375, -9.457534697476774 -21.375, -101.46875 -21.375 M-101.46875 -21.375 C-101.46875 -31.157237960551633, -101.46875 -40.939475921103266, -101.46875 -64.125 M-101.46875 -21.375 C-101.46875 -34.52584002375273, -101.46875 -47.67668004750546, -101.46875 -64.125" stroke="#9370DB" stroke-width="1.3" fill="none" stroke-dasharray="0 0"></path></g><g style="" class="row-rect-even"><path d="M-101.46875 -21.375 L101.46875 -21.375 L101.46875 21.375 L-101.46875 21.375" stroke="none" stroke-width="0" fill="hsl(240, 100%, 97.2745098039%)"></path><path d="M-101.46875 -21.375 C-49.95523795927385 -21.375, 1.5582740814522964 -21.375, 101.46875 -21.375 M-101.46875 -21.375 C-49.20199026042672 -21.375, 3.0647694791465625 -21.375, 101.46875 -21.375 M101.46875 -21.375 C101.46875 -7.333552392869933, 101.46875 6.707895214260134, 101.46875 21.375 M101.46875 -21.375 C101.46875 -7.643273454423692, 101.46875 6.088453091152616, 101.46875 21.375 M101.46875 21.375 C31.05598366184374 21.375, -39.35678267631252 21.375, -101.46875 21.375 M101.46875 21.375 C53.42759725773744 21.375, 5.386444515474878 21.375, -101.46875 21.375 M-101.46875 21.375 C-101.46875 11.502397730352742, -101.46875 1.629795460705484, -101.46875 -21.375 M-101.46875 21.375 C-101.46875 5.061355615721013, -101.46875 -11.252288768557975, -101.46875 -21.375" stroke="#9370DB" stroke-width="1.3" fill="none" stroke-dasharray="0 0"></path></g><g style="" class="row-rect-odd"><path d="M-101.46875 21.375 L101.46875 21.375 L101.46875 64.125 L-101.46875 64.125" stroke="none" stroke-width="0" fill="hsl(240, 100%, 100%)"></path><path d="M-101.46875 21.375 C-59.12405646686721 21.375, -16.77936293373442 21.375, 101.46875 21.375 M-101.46875 21.375 C-45.44760120117603 21.375, 10.573547597647945 21.375, 101.46875 21.375 M101.46875 21.375 C101.46875 38.032599296574375, 101.46875 54.69019859314874, 101.46875 64.125 M101.46875 21.375 C101.46875 34.88990361886241, 101.46875 48.404807237724825, 101.46875 64.125 M101.46875 64.125 C40.72040962445782 64.125, -20.027930751084355 64.125, -101.46875 64.125 M101.46875 64.125 C20.894582335623923 64.125, -59.679585328752154 64.125, -101.46875 64.125 M-101.46875 64.125 C-101.46875 47.342754126454984, -101.46875 30.56050825290997, -101.46875 21.375 M-101.46875 64.125 C-101.46875 52.05295288671606, -101.46875 39.98090577343211, -101.46875 21.375" stroke="#9370DB" stroke-width="1.3" fill="none" stroke-dasharray="0 0"></path></g><g style="" class="row-rect-even"><path d="M-101.46875 64.125 L101.46875 64.125 L101.46875 106.875 L-101.46875 106.875" stroke="none" stroke-width="0" fill="hsl(240, 100%, 97.2745098039%)"></path><path d="M-101.46875 64.125 C-59.90671392032283 64.125, -18.34467784064566 64.125, 101.46875 64.125 M-101.46875 64.125 C-49.00881257277788 64.125, 3.451124854444245 64.125, 101.46875 64.125 M101.46875 64.125 C101.46875 76.96013233947721, 101.46875 89.79526467895442, 101.46875 106.875 M101.46875 64.125 C101.46875 73.3033053826735, 101.46875 82.481610765347, 101.46875 106.875 M101.46875 106.875 C20.65335912273015 106.875, -60.1620317545397 106.875, -101.46875 106.875 M101.46875 106.875 C22.01063000391804 106.875, -57.44748999216392 106.875, -101.46875 106.875 M-101.46875 106.875 C-101.46875 94.08615245164312, -101.46875 81.29730490328623, -101.46875 64.125 M-101.46875 106.875 C-101.46875 89.87002746610187, -101.46875 72.86505493220375, -101.46875 64.125" stroke="#9370DB" stroke-width="1.3" fill="none" stroke-dasharray="0 0"></path></g><g class="label name" transform="translate(-46.328125, -97.5)" style=""><foreignObject width="92.65625" height="24"><div xmlns="http://www.w3.org/1999/xhtml" style="display: table-cell; white-space: nowrap; line-height: 1.5; max-width: 193px; text-align: start;"><span class="nodeLabel"><p>market_ticks</p></span></div></foreignObject></g><g class="label attribute-type" transform="translate(-88.96875, -54.75)" style=""><foreignObject width="33.75" height="24"><div xmlns="http://www.w3.org/1999/xhtml" style="display: table-cell; white-space: nowrap; line-height: 1.5; max-width: 134px; text-align: start;"><span class="nodeLabel"><p>TEXT</p></span></div></foreignObject></g><g class="label attribute-name" transform="translate(-30.21875, -54.75)" style=""><foreignObject width="118.578125" height="24"><div xmlns="http://www.w3.org/1999/xhtml" style="display: table-cell; white-space: nowrap; line-height: 1.5; max-width: 219px; text-align: start;"><span class="nodeLabel"><p>ingestion_ts_utc</p></span></div></foreignObject></g><g class="label attribute-keys" transform="translate(113.96875, -54.75)" style=""><foreignObject width="0" height="0"><div xmlns="http://www.w3.org/1999/xhtml" style="display: table-cell; white-space: nowrap; line-height: 1.5; max-width: 100px; text-align: start;"><span class="nodeLabel"></span></div></foreignObject></g><g class="label attribute-comment" transform="translate(113.96875, -54.75)" style=""><foreignObject width="0" height="0"><div xmlns="http://www.w3.org/1999/xhtml" style="display: table-cell; white-space: nowrap; line-height: 1.5; max-width: 100px; text-align: start;"><span class="nodeLabel"></span></div></foreignObject></g><g class="label attribute-type" transform="translate(-88.96875, -12)" style=""><foreignObject width="33.75" height="24"><div xmlns="http://www.w3.org/1999/xhtml" style="display: table-cell; white-space: nowrap; line-height: 1.5; max-width: 134px; text-align: start;"><span class="nodeLabel"><p>TEXT</p></span></div></foreignObject></g><g class="label attribute-name" transform="translate(-30.21875, -12)" style=""><foreignObject width="119.1875" height="24"><div xmlns="http://www.w3.org/1999/xhtml" style="display: table-cell; white-space: nowrap; line-height: 1.5; max-width: 220px; text-align: start;"><span class="nodeLabel"><p>exchange_ts_utc</p></span></div></foreignObject></g><g class="label attribute-keys" transform="translate(113.96875, -12)" style=""><foreignObject width="0" height="0"><div xmlns="http://www.w3.org/1999/xhtml" style="display: table-cell; white-space: nowrap; line-height: 1.5; max-width: 100px; text-align: start;"><span class="nodeLabel"></span></div></foreignObject></g><g class="label attribute-comment" transform="translate(113.96875, -12)" style=""><foreignObject width="0" height="0"><div xmlns="http://www.w3.org/1999/xhtml" style="display: table-cell; white-space: nowrap; line-height: 1.5; max-width: 100px; text-align: start;"><span class="nodeLabel"></span></div></foreignObject></g><g class="label attribute-type" transform="translate(-88.96875, 30.75)" style=""><foreignObject width="33.75" height="24"><div xmlns="http://www.w3.org/1999/xhtml" style="display: table-cell; white-space: nowrap; line-height: 1.5; max-width: 134px; text-align: start;"><span class="nodeLabel"><p>TEXT</p></span></div></foreignObject></g><g class="label attribute-name" transform="translate(-30.21875, 30.75)" style=""><foreignObject width="90.171875" height="24"><div xmlns="http://www.w3.org/1999/xhtml" style="display: table-cell; white-space: nowrap; line-height: 1.5; max-width: 190px; text-align: start;"><span class="nodeLabel"><p>exchange_id</p></span></div></foreignObject></g><g class="label attribute-keys" transform="translate(113.96875, 30.75)" style=""><foreignObject width="0" height="0"><div xmlns="http://www.w3.org/1999/xhtml" style="display: table-cell; white-space: nowrap; line-height: 1.5; max-width: 100px; text-align: start;"><span class="nodeLabel"></span></div></foreignObject></g><g class="label attribute-comment" transform="translate(113.96875, 30.75)" style=""><foreignObject width="0" height="0"><div xmlns="http://www.w3.org/1999/xhtml" style="display: table-cell; white-space: nowrap; line-height: 1.5; max-width: 100px; text-align: start;"><span class="nodeLabel"></span></div></foreignObject></g><g class="label attribute-type" transform="translate(-88.96875, 73.5)" style=""><foreignObject width="33.75" height="24"><div xmlns="http://www.w3.org/1999/xhtml" style="display: table-cell; white-space: nowrap; line-height: 1.5; max-width: 134px; text-align: start;"><span class="nodeLabel"><p>TEXT</p></span></div></foreignObject></g><g class="label attribute-name" transform="translate(-30.21875, 73.5)" style=""><foreignObject width="52.328125" height="24"><div xmlns="http://www.w3.org/1999/xhtml" style="display: table-cell; white-space: nowrap; line-height: 1.5; max-width: 153px; text-align: start;"><span class="nodeLabel"><p>symbol</p></span></div></foreignObject></g><g class="label attribute-keys" transform="translate(113.96875, 73.5)" style=""><foreignObject width="0" height="0"><div xmlns="http://www.w3.org/1999/xhtml" style="display: table-cell; white-space: nowrap; line-height: 1.5; max-width: 100px; text-align: start;"><span class="nodeLabel"></span></div></foreignObject></g><g class="label attribute-comment" transform="translate(113.96875, 73.5)" style=""><foreignObject width="0" height="0"><div xmlns="http://www.w3.org/1999/xhtml" style="display: table-cell; white-space: nowrap; line-height: 1.5; max-width: 100px; text-align: start;"><span class="nodeLabel"></span></div></foreignObject></g><g class="divider"><path d="M-101.46875 -64.125 C-35.27831888559706 -64.125, 30.91211222880588 -64.125, 101.46875 -64.125 M-101.46875 -64.125 C-47.16084222375259 -64.125, 7.147065552494823 -64.125, 101.46875 -64.125" stroke="#9370DB" stroke-width="1.3" fill="none" stroke-dasharray="0 0"></path></g><g class="divider"><path d="M-42.71875 -64.125 C-42.71875 -5.152823780139201, -42.71875 53.8193524397216, -42.71875 106.875 M-42.71875 -64.125 C-42.71875 -13.428644651166636, -42.71875 37.26771069766673, -42.71875 106.875" stroke="#9370DB" stroke-width="1.3" fill="none" stroke-dasharray="0 0"></path></g><g class="divider"><path d="M-101.46875 -64.125 C-39.275299618513635 -64.125, 22.91815076297273 -64.125, 101.46875 -64.125 M-101.46875 -64.125 C-41.98544335377082 -64.125, 17.497863292458362 -64.125, 101.46875 -64.125" stroke="#9370DB" stroke-width="1.3" fill="none" stroke-dasharray="0 0"></path></g></g><g class="node default" id="entity-connection_events-1" transform="translate(444.2421875, 200.375)"><g style=""><path d="M-93.3046875 -85.5 L93.3046875 -85.5 L93.3046875 85.5 L-93.3046875 85.5" stroke="none" stroke-width="0" fill="#ECECFF"></path><path d="M-93.3046875 -85.5 C-23.256401718070975 -85.5, 46.79188406385805 -85.5, 93.3046875 -85.5 M-93.3046875 -85.5 C-41.806024562205074 -85.5, 9.692638375589851 -85.5, 93.3046875 -85.5 M93.3046875 -85.5 C93.3046875 -33.41080281971331, 93.3046875 18.678394360573378, 93.3046875 85.5 M93.3046875 -85.5 C93.3046875 -48.916030254915604, 93.3046875 -12.332060509831209, 93.3046875 85.5 M93.3046875 85.5 C38.581312216644875 85.5, -16.14206306671025 85.5, -93.3046875 85.5 M93.3046875 85.5 C49.33800515698009 85.5, 5.371322813960177 85.5, -93.3046875 85.5 M-93.3046875 85.5 C-93.3046875 28.489539714216882, -93.3046875 -28.520920571566236, -93.3046875 -85.5 M-93.3046875 85.5 C-93.3046875 50.475164017846566, -93.3046875 15.450328035693133, -93.3046875 -85.5" stroke="#9370DB" stroke-width="1.3" fill="none" stroke-dasharray="0 0"></path></g><g style="" class="row-rect-odd"><path d="M-93.3046875 -42.75 L93.3046875 -42.75 L93.3046875 0 L-93.3046875 0" stroke="none" stroke-width="0" fill="hsl(240, 100%, 100%)"></path><path d="M-93.3046875 -42.75 C-36.644348078406146 -42.75, 20.015991343187707 -42.75, 93.3046875 -42.75 M-93.3046875 -42.75 C-43.386119141417595 -42.75, 6.53244921716481 -42.75, 93.3046875 -42.75 M93.3046875 -42.75 C93.3046875 -26.166120923677493, 93.3046875 -9.582241847354986, 93.3046875 0 M93.3046875 -42.75 C93.3046875 -30.46770976843775, 93.3046875 -18.185419536875504, 93.3046875 0 M93.3046875 0 C42.57580529217202 0, -8.153076915655959 0, -93.3046875 0 M93.3046875 0 C34.485971580635635 0, -24.33274433872873 0, -93.3046875 0 M-93.3046875 0 C-93.3046875 -15.236279684078243, -93.3046875 -30.472559368156485, -93.3046875 -42.75 M-93.3046875 0 C-93.3046875 -9.325289176027594, -93.3046875 -18.650578352055188, -93.3046875 -42.75" stroke="#9370DB" stroke-width="1.3" fill="none" stroke-dasharray="0 0"></path></g><g style="" class="row-rect-even"><path d="M-93.3046875 0 L93.3046875 0 L93.3046875 42.75 L-93.3046875 42.75" stroke="none" stroke-width="0" fill="hsl(240, 100%, 97.2745098039%)"></path><path d="M-93.3046875 0 C-21.582778677761993 0, 50.13913014447601 0, 93.3046875 0 M-93.3046875 0 C-50.025886016852866 0, -6.747084533705731 0, 93.3046875 0 M93.3046875 0 C93.3046875 16.95332743526679, 93.3046875 33.90665487053358, 93.3046875 42.75 M93.3046875 0 C93.3046875 14.717850954162396, 93.3046875 29.43570190832479, 93.3046875 42.75 M93.3046875 42.75 C29.76060277448949 42.75, -33.78348195102102 42.75, -93.3046875 42.75 M93.3046875 42.75 C44.74758661113236 42.75, -3.809514277735275 42.75, -93.3046875 42.75 M-93.3046875 42.75 C-93.3046875 33.234484872628684, -93.3046875 23.718969745257365, -93.3046875 0 M-93.3046875 42.75 C-93.3046875 26.325113380713418, -93.3046875 9.900226761426836, -93.3046875 0" stroke="#9370DB" stroke-width="1.3" fill="none" stroke-dasharray="0 0"></path></g><g style="" class="row-rect-odd"><path d="M-93.3046875 42.75 L93.3046875 42.75 L93.3046875 85.5 L-93.3046875 85.5" stroke="none" stroke-width="0" fill="hsl(240, 100%, 100%)"></path><path d="M-93.3046875 42.75 C-52.01967312324905 42.75, -10.734658746498098 42.75, 93.3046875 42.75 M-93.3046875 42.75 C-28.017362177277334 42.75, 37.26996314544533 42.75, 93.3046875 42.75 M93.3046875 42.75 C93.3046875 52.43248752069586, 93.3046875 62.114975041391716, 93.3046875 85.5 M93.3046875 42.75 C93.3046875 56.108284767996764, 93.3046875 69.46656953599353, 93.3046875 85.5 M93.3046875 85.5 C49.25828050090355 85.5, 5.211873501807105 85.5, -93.3046875 85.5 M93.3046875 85.5 C26.03706225795166 85.5, -41.23056298409668 85.5, -93.3046875 85.5 M-93.3046875 85.5 C-93.3046875 76.01577600295781, -93.3046875 66.53155200591561, -93.3046875 42.75 M-93.3046875 85.5 C-93.3046875 74.32238909977407, -93.3046875 63.144778199548156, -93.3046875 42.75" stroke="#9370DB" stroke-width="1.3" fill="none" stroke-dasharray="0 0"></path></g><g class="label name" transform="translate(-68.3046875, -76.125)" style=""><foreignObject width="136.609375" height="24"><div xmlns="http://www.w3.org/1999/xhtml" style="display: table-cell; white-space: nowrap; line-height: 1.5; max-width: 237px; text-align: start;"><span class="nodeLabel"><p>connection_events</p></span></div></foreignObject></g><g class="label attribute-type" transform="translate(-80.8046875, -33.375)" style=""><foreignObject width="33.75" height="24"><div xmlns="http://www.w3.org/1999/xhtml" style="display: table-cell; white-space: nowrap; line-height: 1.5; max-width: 134px; text-align: start;"><span class="nodeLabel"><p>TEXT</p></span></div></foreignObject></g><g class="label attribute-name" transform="translate(-16.5078125, -33.375)" style=""><foreignObject width="91.765625" height="24"><div xmlns="http://www.w3.org/1999/xhtml" style="display: table-cell; white-space: nowrap; line-height: 1.5; max-width: 192px; text-align: start;"><span class="nodeLabel"><p>event_ts_utc</p></span></div></foreignObject></g><g class="label attribute-keys" transform="translate(105.8046875, -33.375)" style=""><foreignObject width="0" height="0"><div xmlns="http://www.w3.org/1999/xhtml" style="display: table-cell; white-space: nowrap; line-height: 1.5; max-width: 100px; text-align: start;"><span class="nodeLabel"></span></div></foreignObject></g><g class="label attribute-comment" transform="translate(105.8046875, -33.375)" style=""><foreignObject width="0" height="0"><div xmlns="http://www.w3.org/1999/xhtml" style="display: table-cell; white-space: nowrap; line-height: 1.5; max-width: 100px; text-align: start;"><span class="nodeLabel"></span></div></foreignObject></g><g class="label attribute-type" transform="translate(-80.8046875, 9.375)" style=""><foreignObject width="33.75" height="24"><div xmlns="http://www.w3.org/1999/xhtml" style="display: table-cell; white-space: nowrap; line-height: 1.5; max-width: 134px; text-align: start;"><span class="nodeLabel"><p>TEXT</p></span></div></foreignObject></g><g class="label attribute-name" transform="translate(-16.5078125, 9.375)" style=""><foreignObject width="90.171875" height="24"><div xmlns="http://www.w3.org/1999/xhtml" style="display: table-cell; white-space: nowrap; line-height: 1.5; max-width: 190px; text-align: start;"><span class="nodeLabel"><p>exchange_id</p></span></div></foreignObject></g><g class="label attribute-keys" transform="translate(105.8046875, 9.375)" style=""><foreignObject width="0" height="0"><div xmlns="http://www.w3.org/1999/xhtml" style="display: table-cell; white-space: nowrap; line-height: 1.5; max-width: 100px; text-align: start;"><span class="nodeLabel"></span></div></foreignObject></g><g class="label attribute-comment" transform="translate(105.8046875, 9.375)" style=""><foreignObject width="0" height="0"><div xmlns="http://www.w3.org/1999/xhtml" style="display: table-cell; white-space: nowrap; line-height: 1.5; max-width: 100px; text-align: start;"><span class="nodeLabel"></span></div></foreignObject></g><g class="label attribute-type" transform="translate(-80.8046875, 52.125)" style=""><foreignObject width="33.75" height="24"><div xmlns="http://www.w3.org/1999/xhtml" style="display: table-cell; white-space: nowrap; line-height: 1.5; max-width: 134px; text-align: start;"><span class="nodeLabel"><p>TEXT</p></span></div></foreignObject></g><g class="label attribute-name" transform="translate(-16.5078125, 52.125)" style=""><foreignObject width="80.140625" height="24"><div xmlns="http://www.w3.org/1999/xhtml" style="display: table-cell; white-space: nowrap; line-height: 1.5; max-width: 180px; text-align: start;"><span class="nodeLabel"><p>event_type</p></span></div></foreignObject></g><g class="label attribute-keys" transform="translate(105.8046875, 52.125)" style=""><foreignObject width="0" height="0"><div xmlns="http://www.w3.org/1999/xhtml" style="display: table-cell; white-space: nowrap; line-height: 1.5; max-width: 100px; text-align: start;"><span class="nodeLabel"></span></div></foreignObject></g><g class="label attribute-comment" transform="translate(105.8046875, 52.125)" style=""><foreignObject width="0" height="0"><div xmlns="http://www.w3.org/1999/xhtml" style="display: table-cell; white-space: nowrap; line-height: 1.5; max-width: 100px; text-align: start;"><span class="nodeLabel"></span></div></foreignObject></g><g class="divider"><path d="M-93.3046875 -42.75 C-35.453818801751375 -42.75, 22.39704989649725 -42.75, 93.3046875 -42.75 M-93.3046875 -42.75 C-37.65511889624072 -42.75, 17.994449707518555 -42.75, 93.3046875 -42.75" stroke="#9370DB" stroke-width="1.3" fill="none" stroke-dasharray="0 0"></path></g><g class="divider"><path d="M-29.0078125 -42.75 C-29.0078125 0.1052449331753067, -29.0078125 42.96048986635061, -29.0078125 85.5 M-29.0078125 -42.75 C-29.0078125 -5.586419796664337, -29.0078125 31.577160406671325, -29.0078125 85.5" stroke="#9370DB" stroke-width="1.3" fill="none" stroke-dasharray="0 0"></path></g><g class="divider"><path d="M-93.3046875 -42.75 C-32.24527647336765 -42.75, 28.814134553264694 -42.75, 93.3046875 -42.75 M-93.3046875 -42.75 C-37.04078048818206 -42.75, 19.223126523635884 -42.75, 93.3046875 -42.75" stroke="#9370DB" stroke-width="1.3" fill="none" stroke-dasharray="0 0"></path></g></g><g class="node default" id="entity-cleansed_market-2" transform="translate(793.671875, 200.375)"><g style=""><path d="M-116.125 -192.375 L116.125 -192.375 L116.125 192.375 L-116.125 192.375" stroke="none" stroke-width="0" fill="#ECECFF"></path><path d="M-116.125 -192.375 C-30.79710992629424 -192.375, 54.53078014741152 -192.375, 116.125 -192.375 M-116.125 -192.375 C-63.84867067373165 -192.375, -11.572341347463293 -192.375, 116.125 -192.375 M116.125 -192.375 C116.125 -114.18212843419813, 116.125 -35.98925686839627, 116.125 192.375 M116.125 -192.375 C116.125 -104.30213820627868, 116.125 -16.22927641255737, 116.125 192.375 M116.125 192.375 C62.72366657744906 192.375, 9.322333154898118 192.375, -116.125 192.375 M116.125 192.375 C50.88707290316697 192.375, -14.350854193666066 192.375, -116.125 192.375 M-116.125 192.375 C-116.125 56.36765984702973, -116.125 -79.63968030594054, -116.125 -192.375 M-116.125 192.375 C-116.125 88.3469266515119, -116.125 -15.681146696976214, -116.125 -192.375" stroke="#9370DB" stroke-width="1.3" fill="none" stroke-dasharray="0 0"></path></g><g style="" class="row-rect-odd"><path d="M-116.125 -149.625 L116.125 -149.625 L116.125 -106.875 L-116.125 -106.875" stroke="none" stroke-width="0" fill="hsl(240, 100%, 100%)"></path><path d="M-116.125 -149.625 C-25.05867734560904 -149.625, 66.00764530878192 -149.625, 116.125 -149.625 M-116.125 -149.625 C-65.44932143780508 -149.625, -14.773642875610165 -149.625, 116.125 -149.625 M116.125 -149.625 C116.125 -132.6353960028344, 116.125 -115.64579200566882, 116.125 -106.875 M116.125 -149.625 C116.125 -139.33428184982597, 116.125 -129.04356369965194, 116.125 -106.875 M116.125 -106.875 C64.11553741633318 -106.875, 12.106074832666366 -106.875, -116.125 -106.875 M116.125 -106.875 C66.8951047273381 -106.875, 17.665209454676187 -106.875, -116.125 -106.875 M-116.125 -106.875 C-116.125 -116.31330994449482, -116.125 -125.75161988898965, -116.125 -149.625 M-116.125 -106.875 C-116.125 -123.74579295628097, -116.125 -140.61658591256193, -116.125 -149.625" stroke="#9370DB" stroke-width="1.3" fill="none" stroke-dasharray="0 0"></path></g><g style="" class="row-rect-even"><path d="M-116.125 -106.875 L116.125 -106.875 L116.125 -64.125 L-116.125 -64.125" stroke="none" stroke-width="0" fill="hsl(240, 100%, 97.2745098039%)"></path><path d="M-116.125 -106.875 C-47.15125346705054 -106.875, 21.822493065898925 -106.875, 116.125 -106.875 M-116.125 -106.875 C-24.56436898672517 -106.875, 66.99626202654966 -106.875, 116.125 -106.875 M116.125 -106.875 C116.125 -94.14849921826297, 116.125 -81.42199843652593, 116.125 -64.125 M116.125 -106.875 C116.125 -92.75223925392864, 116.125 -78.62947850785727, 116.125 -64.125 M116.125 -64.125 C63.8053793415097 -64.125, 11.485758683019398 -64.125, -116.125 -64.125 M116.125 -64.125 C50.0283335079651 -64.125, -16.068332984069798 -64.125, -116.125 -64.125 M-116.125 -64.125 C-116.125 -75.1280792212695, -116.125 -86.13115844253902, -116.125 -106.875 M-116.125 -64.125 C-116.125 -80.73917950706691, -116.125 -97.35335901413382, -116.125 -106.875" stroke="#9370DB" stroke-width="1.3" fill="none" stroke-dasharray="0 0"></path></g><g style="" class="row-rect-odd"><path d="M-116.125 -64.125 L116.125 -64.125 L116.125 -21.375 L-116.125 -21.375" stroke="none" stroke-width="0" fill="hsl(240, 100%, 100%)"></path><path d="M-116.125 -64.125 C-57.72883145032946 -64.125, 0.6673370993410828 -64.125, 116.125 -64.125 M-116.125 -64.125 C-42.3941255861119 -64.125, 31.336748827776205 -64.125, 116.125 -64.125 M116.125 -64.125 C116.125 -48.47882840874885, 116.125 -32.8326568174977, 116.125 -21.375 M116.125 -64.125 C116.125 -50.212472814005075, 116.125 -36.29994562801015, 116.125 -21.375 M116.125 -21.375 C38.75153894314383 -21.375, -38.621922113712344 -21.375, -116.125 -21.375 M116.125 -21.375 C43.831177403944594 -21.375, -28.462645192110813 -21.375, -116.125 -21.375 M-116.125 -21.375 C-116.125 -32.618161158997296, -116.125 -43.8613223179946, -116.125 -64.125 M-116.125 -21.375 C-116.125 -37.24810680421392, -116.125 -53.12121360842784, -116.125 -64.125" stroke="#9370DB" stroke-width="1.3" fill="none" stroke-dasharray="0 0"></path></g><g style="" class="row-rect-even"><path d="M-116.125 -21.375 L116.125 -21.375 L116.125 21.375 L-116.125 21.375" stroke="none" stroke-width="0" fill="hsl(240, 100%, 97.2745098039%)"></path><path d="M-116.125 -21.375 C-49.61635008475898 -21.375, 16.892299830482045 -21.375, 116.125 -21.375 M-116.125 -21.375 C-24.9042906561357 -21.375, 66.3164186877286 -21.375, 116.125 -21.375 M116.125 -21.375 C116.125 -9.126781640509833, 116.125 3.121436718980334, 116.125 21.375 M116.125 -21.375 C116.125 -5.1699414572208156, 116.125 11.035117085558369, 116.125 21.375 M116.125 21.375 C41.13387616251792 21.375, -33.85724767496416 21.375, -116.125 21.375 M116.125 21.375 C47.52396000792187 21.375, -21.077079984156256 21.375, -116.125 21.375 M-116.125 21.375 C-116.125 6.447952448052273, -116.125 -8.479095103895453, -116.125 -21.375 M-116.125 21.375 C-116.125 12.540727283484921, -116.125 3.7064545669698425, -116.125 -21.375" stroke="#9370DB" stroke-width="1.3" fill="none" stroke-dasharray="0 0"></path></g><g style="" class="row-rect-odd"><path d="M-116.125 21.375 L116.125 21.375 L116.125 64.125 L-116.125 64.125" stroke="none" stroke-width="0" fill="hsl(240, 100%, 100%)"></path><path d="M-116.125 21.375 C-32.9984101887453 21.375, 50.12817962250941 21.375, 116.125 21.375 M-116.125 21.375 C-27.4177335201432 21.375, 61.2895329597136 21.375, 116.125 21.375 M116.125 21.375 C116.125 37.23206607799672, 116.125 53.08913215599344, 116.125 64.125 M116.125 21.375 C116.125 32.33986534798225, 116.125 43.304730695964494, 116.125 64.125 M116.125 64.125 C66.35661766205659 64.125, 16.588235324113185 64.125, -116.125 64.125 M116.125 64.125 C27.449504706822978 64.125, -61.225990586354044 64.125, -116.125 64.125 M-116.125 64.125 C-116.125 52.92497061684074, -116.125 41.72494123368148, -116.125 21.375 M-116.125 64.125 C-116.125 54.40224541711958, -116.125 44.67949083423916, -116.125 21.375" stroke="#9370DB" stroke-width="1.3" fill="none" stroke-dasharray="0 0"></path></g><g style="" class="row-rect-even"><path d="M-116.125 64.125 L116.125 64.125 L116.125 106.875 L-116.125 106.875" stroke="none" stroke-width="0" fill="hsl(240, 100%, 97.2745098039%)"></path><path d="M-116.125 64.125 C-62.12952835488666 64.125, -8.134056709773319 64.125, 116.125 64.125 M-116.125 64.125 C-68.7999064488514 64.125, -21.47481289770279 64.125, 116.125 64.125 M116.125 64.125 C116.125 78.81120760367877, 116.125 93.49741520735753, 116.125 106.875 M116.125 64.125 C116.125 74.33802513179218, 116.125 84.55105026358434, 116.125 106.875 M116.125 106.875 C47.574314684222 106.875, -20.976370631555994 106.875, -116.125 106.875 M116.125 106.875 C25.148307012370168 106.875, -65.82838597525966 106.875, -116.125 106.875 M-116.125 106.875 C-116.125 90.23844942239211, -116.125 73.60189884478423, -116.125 64.125 M-116.125 106.875 C-116.125 95.76361876051095, -116.125 84.6522375210219, -116.125 64.125" stroke="#9370DB" stroke-width="1.3" fill="none" stroke-dasharray="0 0"></path></g><g style="" class="row-rect-odd"><path d="M-116.125 106.875 L116.125 106.875 L116.125 149.625 L-116.125 149.625" stroke="none" stroke-width="0" fill="hsl(240, 100%, 100%)"></path><path d="M-116.125 106.875 C-23.36440188045526 106.875, 69.39619623908948 106.875, 116.125 106.875 M-116.125 106.875 C-60.46246329641792 106.875, -4.799926592835845 106.875, 116.125 106.875 M116.125 106.875 C116.125 120.58285916482099, 116.125 134.29071832964198, 116.125 149.625 M116.125 106.875 C116.125 123.68417004443765, 116.125 140.4933400888753, 116.125 149.625 M116.125 149.625 C46.56795050209678 149.625, -22.989098995806444 149.625, -116.125 149.625 M116.125 149.625 C35.94904819485484 149.625, -44.22690361029032 149.625, -116.125 149.625 M-116.125 149.625 C-116.125 136.2656893515537, -116.125 122.90637870310739, -116.125 106.875 M-116.125 149.625 C-116.125 137.9314228159317, -116.125 126.23784563186342, -116.125 106.875" stroke="#9370DB" stroke-width="1.3" fill="none" stroke-dasharray="0 0"></path></g><g style="" class="row-rect-even"><path d="M-116.125 149.625 L116.125 149.625 L116.125 192.375 L-116.125 192.375" stroke="none" stroke-width="0" fill="hsl(240, 100%, 97.2745098039%)"></path><path d="M-116.125 149.625 C-37.700007060683774 149.625, 40.72498587863245 149.625, 116.125 149.625 M-116.125 149.625 C-30.74538009854672 149.625, 54.63423980290656 149.625, 116.125 149.625 M116.125 149.625 C116.125 166.43820892786957, 116.125 183.25141785573913, 116.125 192.375 M116.125 149.625 C116.125 162.34721011355595, 116.125 175.06942022711186, 116.125 192.375 M116.125 192.375 C27.97752223357115 192.375, -60.1699555328577 192.375, -116.125 192.375 M116.125 192.375 C49.7139591805885 192.375, -16.697081638822993 192.375, -116.125 192.375 M-116.125 192.375 C-116.125 175.5952023124006, -116.125 158.8154046248012, -116.125 149.625 M-116.125 192.375 C-116.125 178.16280076785182, -116.125 163.95060153570364, -116.125 149.625" stroke="#9370DB" stroke-width="1.3" fill="none" stroke-dasharray="0 0"></path></g><g class="label name" transform="translate(-62.0625, -183)" style=""><foreignObject width="124.125" height="24"><div xmlns="http://www.w3.org/1999/xhtml" style="display: table-cell; white-space: nowrap; line-height: 1.5; max-width: 224px; text-align: start;"><span class="nodeLabel"><p>cleansed_market</p></span></div></foreignObject></g><g class="label attribute-type" transform="translate(-103.625, -140.25)" style=""><foreignObject width="33.75" height="24"><div xmlns="http://www.w3.org/1999/xhtml" style="display: table-cell; white-space: nowrap; line-height: 1.5; max-width: 134px; text-align: start;"><span class="nodeLabel"><p>TEXT</p></span></div></foreignObject></g><g class="label attribute-name" transform="translate(-18, -140.25)" style=""><foreignObject width="47.265625" height="24"><div xmlns="http://www.w3.org/1999/xhtml" style="display: table-cell; white-space: nowrap; line-height: 1.5; max-width: 147px; text-align: start;"><span class="nodeLabel"><p>run_id</p></span></div></foreignObject></g><g class="label attribute-keys" transform="translate(128.625, -140.25)" style=""><foreignObject width="0" height="0"><div xmlns="http://www.w3.org/1999/xhtml" style="display: table-cell; white-space: nowrap; line-height: 1.5; max-width: 100px; text-align: start;"><span class="nodeLabel"></span></div></foreignObject></g><g class="label attribute-comment" transform="translate(128.625, -140.25)" style=""><foreignObject width="0" height="0"><div xmlns="http://www.w3.org/1999/xhtml" style="display: table-cell; white-space: nowrap; line-height: 1.5; max-width: 100px; text-align: start;"><span class="nodeLabel"></span></div></foreignObject></g><g class="label attribute-type" transform="translate(-103.625, -97.5)" style=""><foreignObject width="33.75" height="24"><div xmlns="http://www.w3.org/1999/xhtml" style="display: table-cell; white-space: nowrap; line-height: 1.5; max-width: 134px; text-align: start;"><span class="nodeLabel"><p>TEXT</p></span></div></foreignObject></g><g class="label attribute-name" transform="translate(-18, -97.5)" style=""><foreignObject width="121.625" height="24"><div xmlns="http://www.w3.org/1999/xhtml" style="display: table-cell; white-space: nowrap; line-height: 1.5; max-width: 222px; text-align: start;"><span class="nodeLabel"><p>bucket_start_utc</p></span></div></foreignObject></g><g class="label attribute-keys" transform="translate(128.625, -97.5)" style=""><foreignObject width="0" height="0"><div xmlns="http://www.w3.org/1999/xhtml" style="display: table-cell; white-space: nowrap; line-height: 1.5; max-width: 100px; text-align: start;"><span class="nodeLabel"></span></div></foreignObject></g><g class="label attribute-comment" transform="translate(128.625, -97.5)" style=""><foreignObject width="0" height="0"><div xmlns="http://www.w3.org/1999/xhtml" style="display: table-cell; white-space: nowrap; line-height: 1.5; max-width: 100px; text-align: start;"><span class="nodeLabel"></span></div></foreignObject></g><g class="label attribute-type" transform="translate(-103.625, -54.75)" style=""><foreignObject width="60.625" height="24"><div xmlns="http://www.w3.org/1999/xhtml" style="display: table-cell; white-space: nowrap; line-height: 1.5; max-width: 161px; text-align: start;"><span class="nodeLabel"><p>INTEGER</p></span></div></foreignObject></g><g class="label attribute-name" transform="translate(-18, -54.75)" style=""><foreignObject width="117.40625" height="24"><div xmlns="http://www.w3.org/1999/xhtml" style="display: table-cell; white-space: nowrap; line-height: 1.5; max-width: 217px; text-align: start;"><span class="nodeLabel"><p>bucket_epoch_s</p></span></div></foreignObject></g><g class="label attribute-keys" transform="translate(128.625, -54.75)" style=""><foreignObject width="0" height="0"><div xmlns="http://www.w3.org/1999/xhtml" style="display: table-cell; white-space: nowrap; line-height: 1.5; max-width: 100px; text-align: start;"><span class="nodeLabel"></span></div></foreignObject></g><g class="label attribute-comment" transform="translate(128.625, -54.75)" style=""><foreignObject width="0" height="0"><div xmlns="http://www.w3.org/1999/xhtml" style="display: table-cell; white-space: nowrap; line-height: 1.5; max-width: 100px; text-align: start;"><span class="nodeLabel"></span></div></foreignObject></g><g class="label attribute-type" transform="translate(-103.625, -12)" style=""><foreignObject width="33.75" height="24"><div xmlns="http://www.w3.org/1999/xhtml" style="display: table-cell; white-space: nowrap; line-height: 1.5; max-width: 134px; text-align: start;"><span class="nodeLabel"><p>TEXT</p></span></div></foreignObject></g><g class="label attribute-name" transform="translate(-18, -12)" style=""><foreignObject width="90.171875" height="24"><div xmlns="http://www.w3.org/1999/xhtml" style="display: table-cell; white-space: nowrap; line-height: 1.5; max-width: 190px; text-align: start;"><span class="nodeLabel"><p>exchange_id</p></span></div></foreignObject></g><g class="label attribute-keys" transform="translate(128.625, -12)" style=""><foreignObject width="0" height="0"><div xmlns="http://www.w3.org/1999/xhtml" style="display: table-cell; white-space: nowrap; line-height: 1.5; max-width: 100px; text-align: start;"><span class="nodeLabel"></span></div></foreignObject></g><g class="label attribute-comment" transform="translate(128.625, -12)" style=""><foreignObject width="0" height="0"><div xmlns="http://www.w3.org/1999/xhtml" style="display: table-cell; white-space: nowrap; line-height: 1.5; max-width: 100px; text-align: start;"><span class="nodeLabel"></span></div></foreignObject></g><g class="label attribute-type" transform="translate(-103.625, 30.75)" style=""><foreignObject width="33.75" height="24"><div xmlns="http://www.w3.org/1999/xhtml" style="display: table-cell; white-space: nowrap; line-height: 1.5; max-width: 134px; text-align: start;"><span class="nodeLabel"><p>TEXT</p></span></div></foreignObject></g><g class="label attribute-name" transform="translate(-18, 30.75)" style=""><foreignObject width="52.328125" height="24"><div xmlns="http://www.w3.org/1999/xhtml" style="display: table-cell; white-space: nowrap; line-height: 1.5; max-width: 153px; text-align: start;"><span class="nodeLabel"><p>symbol</p></span></div></foreignObject></g><g class="label attribute-keys" transform="translate(128.625, 30.75)" style=""><foreignObject width="0" height="0"><div xmlns="http://www.w3.org/1999/xhtml" style="display: table-cell; white-space: nowrap; line-height: 1.5; max-width: 100px; text-align: start;"><span class="nodeLabel"></span></div></foreignObject></g><g class="label attribute-comment" transform="translate(128.625, 30.75)" style=""><foreignObject width="0" height="0"><div xmlns="http://www.w3.org/1999/xhtml" style="display: table-cell; white-space: nowrap; line-height: 1.5; max-width: 100px; text-align: start;"><span class="nodeLabel"></span></div></foreignObject></g><g class="label attribute-type" transform="translate(-103.625, 73.5)" style=""><foreignObject width="35.390625" height="24"><div xmlns="http://www.w3.org/1999/xhtml" style="display: table-cell; white-space: nowrap; line-height: 1.5; max-width: 135px; text-align: start;"><span class="nodeLabel"><p>REAL</p></span></div></foreignObject></g><g class="label attribute-name" transform="translate(-18, 73.5)" style=""><foreignObject width="36.25" height="24"><div xmlns="http://www.w3.org/1999/xhtml" style="display: table-cell; white-space: nowrap; line-height: 1.5; max-width: 136px; text-align: start;"><span class="nodeLabel"><p>price</p></span></div></foreignObject></g><g class="label attribute-keys" transform="translate(128.625, 73.5)" style=""><foreignObject width="0" height="0"><div xmlns="http://www.w3.org/1999/xhtml" style="display: table-cell; white-space: nowrap; line-height: 1.5; max-width: 100px; text-align: start;"><span class="nodeLabel"></span></div></foreignObject></g><g class="label attribute-comment" transform="translate(128.625, 73.5)" style=""><foreignObject width="0" height="0"><div xmlns="http://www.w3.org/1999/xhtml" style="display: table-cell; white-space: nowrap; line-height: 1.5; max-width: 100px; text-align: start;"><span class="nodeLabel"></span></div></foreignObject></g><g class="label attribute-type" transform="translate(-103.625, 116.25)" style=""><foreignObject width="60.625" height="24"><div xmlns="http://www.w3.org/1999/xhtml" style="display: table-cell; white-space: nowrap; line-height: 1.5; max-width: 161px; text-align: start;"><span class="nodeLabel"><p>INTEGER</p></span></div></foreignObject></g><g class="label attribute-name" transform="translate(-18, 116.25)" style=""><foreignObject width="75.203125" height="24"><div xmlns="http://www.w3.org/1999/xhtml" style="display: table-cell; white-space: nowrap; line-height: 1.5; max-width: 176px; text-align: start;"><span class="nodeLabel"><p>is_missing</p></span></div></foreignObject></g><g class="label attribute-keys" transform="translate(128.625, 116.25)" style=""><foreignObject width="0" height="0"><div xmlns="http://www.w3.org/1999/xhtml" style="display: table-cell; white-space: nowrap; line-height: 1.5; max-width: 100px; text-align: start;"><span class="nodeLabel"></span></div></foreignObject></g><g class="label attribute-comment" transform="translate(128.625, 116.25)" style=""><foreignObject width="0" height="0"><div xmlns="http://www.w3.org/1999/xhtml" style="display: table-cell; white-space: nowrap; line-height: 1.5; max-width: 100px; text-align: start;"><span class="nodeLabel"></span></div></foreignObject></g><g class="label attribute-type" transform="translate(-103.625, 159)" style=""><foreignObject width="60.625" height="24"><div xmlns="http://www.w3.org/1999/xhtml" style="display: table-cell; white-space: nowrap; line-height: 1.5; max-width: 161px; text-align: start;"><span class="nodeLabel"><p>INTEGER</p></span></div></foreignObject></g><g class="label attribute-name" transform="translate(-18, 159)" style=""><foreignObject width="55" height="24"><div xmlns="http://www.w3.org/1999/xhtml" style="display: table-cell; white-space: nowrap; line-height: 1.5; max-width: 155px; text-align: start;"><span class="nodeLabel"><p>is_stale</p></span></div></foreignObject></g><g class="label attribute-keys" transform="translate(128.625, 159)" style=""><foreignObject width="0" height="0"><div xmlns="http://www.w3.org/1999/xhtml" style="display: table-cell; white-space: nowrap; line-height: 1.5; max-width: 100px; text-align: start;"><span class="nodeLabel"></span></div></foreignObject></g><g class="label attribute-comment" transform="translate(128.625, 159)" style=""><foreignObject width="0" height="0"><div xmlns="http://www.w3.org/1999/xhtml" style="display: table-cell; white-space: nowrap; line-height: 1.5; max-width: 100px; text-align: start;"><span class="nodeLabel"></span></div></foreignObject></g><g class="divider"><path d="M-116.125 -149.625 C-45.375385290379384 -149.625, 25.37422941924123 -149.625, 116.125 -149.625 M-116.125 -149.625 C-43.59223620058114 -149.625, 28.94052759883772 -149.625, 116.125 -149.625" stroke="#9370DB" stroke-width="1.3" fill="none" stroke-dasharray="0 0"></path></g><g class="divider"><path d="M-30.5 -149.625 C-30.5 -15.281921632078479, -30.5 119.06115673584304, -30.5 192.375 M-30.5 -149.625 C-30.5 -81.2245536107974, -30.5 -12.8241072215948, -30.5 192.375" stroke="#9370DB" stroke-width="1.3" fill="none" stroke-dasharray="0 0"></path></g><g class="divider"><path d="M-116.125 -149.625 C-24.56881760715855 -149.625, 66.9873647856829 -149.625, 116.125 -149.625 M-116.125 -149.625 C-37.21614435962506 -149.625, 41.692711280749876 -149.625, 116.125 -149.625" stroke="#9370DB" stroke-width="1.3" fill="none" stroke-dasharray="0 0"></path></g></g><g class="node default" id="entity-core_build_metadata-3" transform="translate(444.2421875, 707.5)"><g style=""><path d="M-165.28125 -213.75 L165.28125 -213.75 L165.28125 213.75 L-165.28125 213.75" stroke="none" stroke-width="0" fill="#ECECFF"></path><path d="M-165.28125 -213.75 C-98.19630327688645 -213.75, -31.111356553772907 -213.75, 165.28125 -213.75 M-165.28125 -213.75 C-91.81150731212873 -213.75, -18.34176462425745 -213.75, 165.28125 -213.75 M165.28125 -213.75 C165.28125 -49.9070621250205, 165.28125 113.935875749959, 165.28125 213.75 M165.28125 -213.75 C165.28125 -75.65359036142891, 165.28125 62.44281927714218, 165.28125 213.75 M165.28125 213.75 C79.58441201000478 213.75, -6.112425979990434 213.75, -165.28125 213.75 M165.28125 213.75 C33.881250886997094 213.75, -97.51874822600581 213.75, -165.28125 213.75 M-165.28125 213.75 C-165.28125 47.05726619829875, -165.28125 -119.6354676034025, -165.28125 -213.75 M-165.28125 213.75 C-165.28125 66.81839424209133, -165.28125 -80.11321151581734, -165.28125 -213.75" stroke="#9370DB" stroke-width="1.3" fill="none" stroke-dasharray="0 0"></path></g><g style="" class="row-rect-odd"><path d="M-165.28125 -171 L165.28125 -171 L165.28125 -128.25 L-165.28125 -128.25" stroke="none" stroke-width="0" fill="hsl(240, 100%, 100%)"></path><path d="M-165.28125 -171 C-67.87867693391338 -171, 29.523896132173235 -171, 165.28125 -171 M-165.28125 -171 C-85.8415235191269 -171, -6.40179703825379 -171, 165.28125 -171 M165.28125 -171 C165.28125 -155.5958825813451, 165.28125 -140.19176516269022, 165.28125 -128.25 M165.28125 -171 C165.28125 -160.33794476450956, 165.28125 -149.67588952901912, 165.28125 -128.25 M165.28125 -128.25 C40.848192180755845 -128.25, -83.58486563848831 -128.25, -165.28125 -128.25 M165.28125 -128.25 C52.775258334957584 -128.25, -59.73073333008483 -128.25, -165.28125 -128.25 M-165.28125 -128.25 C-165.28125 -143.77920518451248, -165.28125 -159.30841036902495, -165.28125 -171 M-165.28125 -128.25 C-165.28125 -141.47129476704797, -165.28125 -154.69258953409593, -165.28125 -171" stroke="#9370DB" stroke-width="1.3" fill="none" stroke-dasharray="0 0"></path></g><g style="" class="row-rect-even"><path d="M-165.28125 -128.25 L165.28125 -128.25 L165.28125 -85.5 L-165.28125 -85.5" stroke="none" stroke-width="0" fill="hsl(240, 100%, 97.2745098039%)"></path><path d="M-165.28125 -128.25 C-75.44117061199817 -128.25, 14.398908776003651 -128.25, 165.28125 -128.25 M-165.28125 -128.25 C-64.7457131127839 -128.25, 35.78982377443219 -128.25, 165.28125 -128.25 M165.28125 -128.25 C165.28125 -117.11394338536738, 165.28125 -105.97788677073474, 165.28125 -85.5 M165.28125 -128.25 C165.28125 -112.84274704833051, 165.28125 -97.43549409666102, 165.28125 -85.5 M165.28125 -85.5 C89.4295563768114 -85.5, 13.57786275362281 -85.5, -165.28125 -85.5 M165.28125 -85.5 C94.34487138966047 -85.5, 23.408492779320937 -85.5, -165.28125 -85.5 M-165.28125 -85.5 C-165.28125 -100.11091226196697, -165.28125 -114.72182452393395, -165.28125 -128.25 M-165.28125 -85.5 C-165.28125 -98.40590176263412, -165.28125 -111.31180352526823, -165.28125 -128.25" stroke="#9370DB" stroke-width="1.3" fill="none" stroke-dasharray="0 0"></path></g><g style="" class="row-rect-odd"><path d="M-165.28125 -85.5 L165.28125 -85.5 L165.28125 -42.75 L-165.28125 -42.75" stroke="none" stroke-width="0" fill="hsl(240, 100%, 100%)"></path><path d="M-165.28125 -85.5 C-73.591088852239 -85.5, 18.099072295522006 -85.5, 165.28125 -85.5 M-165.28125 -85.5 C-61.465478981104795 -85.5, 42.35029203779041 -85.5, 165.28125 -85.5 M165.28125 -85.5 C165.28125 -76.80625363620007, 165.28125 -68.11250727240015, 165.28125 -42.75 M165.28125 -85.5 C165.28125 -74.067658200563, 165.28125 -62.635316401126005, 165.28125 -42.75 M165.28125 -42.75 C61.38874031345932 -42.75, -42.503769373081354 -42.75, -165.28125 -42.75 M165.28125 -42.75 C78.74113659128625 -42.75, -7.798976817427501 -42.75, -165.28125 -42.75 M-165.28125 -42.75 C-165.28125 -56.45050535203666, -165.28125 -70.15101070407331, -165.28125 -85.5 M-165.28125 -42.75 C-165.28125 -58.819680440055436, -165.28125 -74.88936088011087, -165.28125 -85.5" stroke="#9370DB" stroke-width="1.3" fill="none" stroke-dasharray="0 0"></path></g><g style="" class="row-rect-even"><path d="M-165.28125 -42.75 L165.28125 -42.75 L165.28125 0 L-165.28125 0" stroke="none" stroke-width="0" fill="hsl(240, 100%, 97.2745098039%)"></path><path d="M-165.28125 -42.75 C-83.47813422966573 -42.75, -1.6750184593314543 -42.75, 165.28125 -42.75 M-165.28125 -42.75 C-62.350410592235804 -42.75, 40.58042881552839 -42.75, 165.28125 -42.75 M165.28125 -42.75 C165.28125 -28.493174022739556, 165.28125 -14.236348045479112, 165.28125 0 M165.28125 -42.75 C165.28125 -33.126550607062306, 165.28125 -23.503101214124616, 165.28125 0 M165.28125 0 C74.59113195033696 0, -16.098986099326083 0, -165.28125 0 M165.28125 0 C85.78613786812464 0, 6.291025736249281 0, -165.28125 0 M-165.28125 0 C-165.28125 -16.086363492037144, -165.28125 -32.17272698407429, -165.28125 -42.75 M-165.28125 0 C-165.28125 -10.819255055696205, -165.28125 -21.63851011139241, -165.28125 -42.75" stroke="#9370DB" stroke-width="1.3" fill="none" stroke-dasharray="0 0"></path></g><g style="" class="row-rect-odd"><path d="M-165.28125 0 L165.28125 0 L165.28125 42.75 L-165.28125 42.75" stroke="none" stroke-width="0" fill="hsl(240, 100%, 100%)"></path><path d="M-165.28125 0 C-91.3730224895672 0, -17.46479497913441 0, 165.28125 0 M-165.28125 0 C-90.38410603162082 0, -15.486962063241634 0, 165.28125 0 M165.28125 0 C165.28125 8.57371088410618, 165.28125 17.14742176821236, 165.28125 42.75 M165.28125 0 C165.28125 16.98930938603073, 165.28125 33.97861877206146, 165.28125 42.75 M165.28125 42.75 C70.85869186815292 42.75, -23.563866263694166 42.75, -165.28125 42.75 M165.28125 42.75 C82.18957863118023 42.75, -0.9020927376395491 42.75, -165.28125 42.75 M-165.28125 42.75 C-165.28125 33.27991813400633, -165.28125 23.809836268012663, -165.28125 0 M-165.28125 42.75 C-165.28125 29.23684668520793, -165.28125 15.723693370415859, -165.28125 0" stroke="#9370DB" stroke-width="1.3" fill="none" stroke-dasharray="0 0"></path></g><g style="" class="row-rect-even"><path d="M-165.28125 42.75 L165.28125 42.75 L165.28125 85.5 L-165.28125 85.5" stroke="none" stroke-width="0" fill="hsl(240, 100%, 97.2745098039%)"></path><path d="M-165.28125 42.75 C-47.71058338817228 42.75, 69.86008322365544 42.75, 165.28125 42.75 M-165.28125 42.75 C-64.19662435632281 42.75, 36.88800128735437 42.75, 165.28125 42.75 M165.28125 42.75 C165.28125 52.05405876642568, 165.28125 61.35811753285137, 165.28125 85.5 M165.28125 42.75 C165.28125 58.49821338327912, 165.28125 74.24642676655824, 165.28125 85.5 M165.28125 85.5 C59.07228028843241 85.5, -47.13668942313518 85.5, -165.28125 85.5 M165.28125 85.5 C78.40379978053618 85.5, -8.473650438927649 85.5, -165.28125 85.5 M-165.28125 85.5 C-165.28125 76.02228171876814, -165.28125 66.54456343753628, -165.28125 42.75 M-165.28125 85.5 C-165.28125 70.94536953393236, -165.28125 56.39073906786473, -165.28125 42.75" stroke="#9370DB" stroke-width="1.3" fill="none" stroke-dasharray="0 0"></path></g><g style="" class="row-rect-odd"><path d="M-165.28125 85.5 L165.28125 85.5 L165.28125 128.25 L-165.28125 128.25" stroke="none" stroke-width="0" fill="hsl(240, 100%, 100%)"></path><path d="M-165.28125 85.5 C-53.68805679789418 85.5, 57.905136404211646 85.5, 165.28125 85.5 M-165.28125 85.5 C-72.02399988367402 85.5, 21.233250232651955 85.5, 165.28125 85.5 M165.28125 85.5 C165.28125 94.90887226434613, 165.28125 104.31774452869227, 165.28125 128.25 M165.28125 85.5 C165.28125 102.38695386909404, 165.28125 119.27390773818809, 165.28125 128.25 M165.28125 128.25 C38.71180989094694 128.25, -87.85763021810612 128.25, -165.28125 128.25 M165.28125 128.25 C41.681953062644325 128.25, -81.91734387471135 128.25, -165.28125 128.25 M-165.28125 128.25 C-165.28125 118.35129467515664, -165.28125 108.45258935031326, -165.28125 85.5 M-165.28125 128.25 C-165.28125 117.24640222826564, -165.28125 106.24280445653127, -165.28125 85.5" stroke="#9370DB" stroke-width="1.3" fill="none" stroke-dasharray="0 0"></path></g><g style="" class="row-rect-even"><path d="M-165.28125 128.25 L165.28125 128.25 L165.28125 171 L-165.28125 171" stroke="none" stroke-width="0" fill="hsl(240, 100%, 97.2745098039%)"></path><path d="M-165.28125 128.25 C-52.663340661574324 128.25, 59.95456867685135 128.25, 165.28125 128.25 M-165.28125 128.25 C-91.9274654359025 128.25, -18.57368087180501 128.25, 165.28125 128.25 M165.28125 128.25 C165.28125 141.96909781499932, 165.28125 155.68819562999863, 165.28125 171 M165.28125 128.25 C165.28125 136.9839438572017, 165.28125 145.7178877144034, 165.28125 171 M165.28125 171 C33.15031601501428 171, -98.98061796997143 171, -165.28125 171 M165.28125 171 C54.43960822458391 171, -56.402033550832186 171, -165.28125 171 M-165.28125 171 C-165.28125 156.45173952124492, -165.28125 141.90347904248983, -165.28125 128.25 M-165.28125 171 C-165.28125 157.40966061959267, -165.28125 143.81932123918534, -165.28125 128.25" stroke="#9370DB" stroke-width="1.3" fill="none" stroke-dasharray="0 0"></path></g><g style="" class="row-rect-odd"><path d="M-165.28125 171 L165.28125 171 L165.28125 213.75 L-165.28125 213.75" stroke="none" stroke-width="0" fill="hsl(240, 100%, 100%)"></path><path d="M-165.28125 171 C-71.03499797629482 171, 23.211254047410364 171, 165.28125 171 M-165.28125 171 C-47.90151228116602 171, 69.47822543766796 171, 165.28125 171 M165.28125 171 C165.28125 185.79302298683695, 165.28125 200.58604597367392, 165.28125 213.75 M165.28125 171 C165.28125 179.8645693730238, 165.28125 188.72913874604762, 165.28125 213.75 M165.28125 213.75 C79.44079273257522 213.75, -6.399664534849563 213.75, -165.28125 213.75 M165.28125 213.75 C54.93599210696529 213.75, -55.409265786069426 213.75, -165.28125 213.75 M-165.28125 213.75 C-165.28125 204.89649016769897, -165.28125 196.04298033539794, -165.28125 171 M-165.28125 213.75 C-165.28125 197.49406103010935, -165.28125 181.2381220602187, -165.28125 171" stroke="#9370DB" stroke-width="1.3" fill="none" stroke-dasharray="0 0"></path></g><g class="label name" transform="translate(-77.1796875, -204.375)" style=""><foreignObject width="154.359375" height="24"><div xmlns="http://www.w3.org/1999/xhtml" style="display: table-cell; white-space: nowrap; line-height: 1.5; max-width: 254px; text-align: start;"><span class="nodeLabel"><p>core_build_metadata</p></span></div></foreignObject></g><g class="label attribute-type" transform="translate(-152.78125, -161.625)" style=""><foreignObject width="33.75" height="24"><div xmlns="http://www.w3.org/1999/xhtml" style="display: table-cell; white-space: nowrap; line-height: 1.5; max-width: 134px; text-align: start;"><span class="nodeLabel"><p>TEXT</p></span></div></foreignObject></g><g class="label attribute-name" transform="translate(-67.15625, -161.625)" style=""><foreignObject width="59.90625" height="24"><div xmlns="http://www.w3.org/1999/xhtml" style="display: table-cell; white-space: nowrap; line-height: 1.5; max-width: 160px; text-align: start;"><span class="nodeLabel"><p>build_id</p></span></div></foreignObject></g><g class="label attribute-keys" transform="translate(177.78125, -161.625)" style=""><foreignObject width="0" height="0"><div xmlns="http://www.w3.org/1999/xhtml" style="display: table-cell; white-space: nowrap; line-height: 1.5; max-width: 100px; text-align: start;"><span class="nodeLabel"></span></div></foreignObject></g><g class="label attribute-comment" transform="translate(177.78125, -161.625)" style=""><foreignObject width="0" height="0"><div xmlns="http://www.w3.org/1999/xhtml" style="display: table-cell; white-space: nowrap; line-height: 1.5; max-width: 100px; text-align: start;"><span class="nodeLabel"></span></div></foreignObject></g><g class="label attribute-type" transform="translate(-152.78125, -118.875)" style=""><foreignObject width="33.75" height="24"><div xmlns="http://www.w3.org/1999/xhtml" style="display: table-cell; white-space: nowrap; line-height: 1.5; max-width: 134px; text-align: start;"><span class="nodeLabel"><p>TEXT</p></span></div></foreignObject></g><g class="label attribute-name" transform="translate(-67.15625, -118.875)" style=""><foreignObject width="84.9375" height="24"><div xmlns="http://www.w3.org/1999/xhtml" style="display: table-cell; white-space: nowrap; line-height: 1.5; max-width: 185px; text-align: start;"><span class="nodeLabel"><p>created_utc</p></span></div></foreignObject></g><g class="label attribute-keys" transform="translate(177.78125, -118.875)" style=""><foreignObject width="0" height="0"><div xmlns="http://www.w3.org/1999/xhtml" style="display: table-cell; white-space: nowrap; line-height: 1.5; max-width: 100px; text-align: start;"><span class="nodeLabel"></span></div></foreignObject></g><g class="label attribute-comment" transform="translate(177.78125, -118.875)" style=""><foreignObject width="0" height="0"><div xmlns="http://www.w3.org/1999/xhtml" style="display: table-cell; white-space: nowrap; line-height: 1.5; max-width: 100px; text-align: start;"><span class="nodeLabel"></span></div></foreignObject></g><g class="label attribute-type" transform="translate(-152.78125, -76.125)" style=""><foreignObject width="33.75" height="24"><div xmlns="http://www.w3.org/1999/xhtml" style="display: table-cell; white-space: nowrap; line-height: 1.5; max-width: 134px; text-align: start;"><span class="nodeLabel"><p>TEXT</p></span></div></foreignObject></g><g class="label attribute-name" transform="translate(-67.15625, -76.125)" style=""><foreignObject width="88.15625" height="24"><div xmlns="http://www.w3.org/1999/xhtml" style="display: table-cell; white-space: nowrap; line-height: 1.5; max-width: 188px; text-align: start;"><span class="nodeLabel"><p>input_mode</p></span></div></foreignObject></g><g class="label attribute-keys" transform="translate(177.78125, -76.125)" style=""><foreignObject width="0" height="0"><div xmlns="http://www.w3.org/1999/xhtml" style="display: table-cell; white-space: nowrap; line-height: 1.5; max-width: 100px; text-align: start;"><span class="nodeLabel"></span></div></foreignObject></g><g class="label attribute-comment" transform="translate(177.78125, -76.125)" style=""><foreignObject width="0" height="0"><div xmlns="http://www.w3.org/1999/xhtml" style="display: table-cell; white-space: nowrap; line-height: 1.5; max-width: 100px; text-align: start;"><span class="nodeLabel"></span></div></foreignObject></g><g class="label attribute-type" transform="translate(-152.78125, -33.375)" style=""><foreignObject width="33.75" height="24"><div xmlns="http://www.w3.org/1999/xhtml" style="display: table-cell; white-space: nowrap; line-height: 1.5; max-width: 134px; text-align: start;"><span class="nodeLabel"><p>TEXT</p></span></div></foreignObject></g><g class="label attribute-name" transform="translate(-67.15625, -33.375)" style=""><foreignObject width="104.75" height="24"><div xmlns="http://www.w3.org/1999/xhtml" style="display: table-cell; white-space: nowrap; line-height: 1.5; max-width: 206px; text-align: start;"><span class="nodeLabel"><p>kpi_date_filter</p></span></div></foreignObject></g><g class="label attribute-keys" transform="translate(177.78125, -33.375)" style=""><foreignObject width="0" height="0"><div xmlns="http://www.w3.org/1999/xhtml" style="display: table-cell; white-space: nowrap; line-height: 1.5; max-width: 100px; text-align: start;"><span class="nodeLabel"></span></div></foreignObject></g><g class="label attribute-comment" transform="translate(177.78125, -33.375)" style=""><foreignObject width="0" height="0"><div xmlns="http://www.w3.org/1999/xhtml" style="display: table-cell; white-space: nowrap; line-height: 1.5; max-width: 100px; text-align: start;"><span class="nodeLabel"></span></div></foreignObject></g><g class="label attribute-type" transform="translate(-152.78125, 9.375)" style=""><foreignObject width="33.75" height="24"><div xmlns="http://www.w3.org/1999/xhtml" style="display: table-cell; white-space: nowrap; line-height: 1.5; max-width: 134px; text-align: start;"><span class="nodeLabel"><p>TEXT</p></span></div></foreignObject></g><g class="label attribute-name" transform="translate(-67.15625, 9.375)" style=""><foreignObject width="166.546875" height="24"><div xmlns="http://www.w3.org/1999/xhtml" style="display: table-cell; white-space: nowrap; line-height: 1.5; max-width: 267px; text-align: start;"><span class="nodeLabel"><p>cleansing_run_id_filter</p></span></div></foreignObject></g><g class="label attribute-keys" transform="translate(177.78125, 9.375)" style=""><foreignObject width="0" height="0"><div xmlns="http://www.w3.org/1999/xhtml" style="display: table-cell; white-space: nowrap; line-height: 1.5; max-width: 100px; text-align: start;"><span class="nodeLabel"></span></div></foreignObject></g><g class="label attribute-comment" transform="translate(177.78125, 9.375)" style=""><foreignObject width="0" height="0"><div xmlns="http://www.w3.org/1999/xhtml" style="display: table-cell; white-space: nowrap; line-height: 1.5; max-width: 100px; text-align: start;"><span class="nodeLabel"></span></div></foreignObject></g><g class="label attribute-type" transform="translate(-152.78125, 52.125)" style=""><foreignObject width="60.625" height="24"><div xmlns="http://www.w3.org/1999/xhtml" style="display: table-cell; white-space: nowrap; line-height: 1.5; max-width: 161px; text-align: start;"><span class="nodeLabel"><p>INTEGER</p></span></div></foreignObject></g><g class="label attribute-name" transform="translate(-67.15625, 52.125)" style=""><foreignObject width="176.3125" height="24"><div xmlns="http://www.w3.org/1999/xhtml" style="display: table-cell; white-space: nowrap; line-height: 1.5; max-width: 276px; text-align: start;"><span class="nodeLabel"><p>row_count_market_ticks</p></span></div></foreignObject></g><g class="label attribute-keys" transform="translate(177.78125, 52.125)" style=""><foreignObject width="0" height="0"><div xmlns="http://www.w3.org/1999/xhtml" style="display: table-cell; white-space: nowrap; line-height: 1.5; max-width: 100px; text-align: start;"><span class="nodeLabel"></span></div></foreignObject></g><g class="label attribute-comment" transform="translate(177.78125, 52.125)" style=""><foreignObject width="0" height="0"><div xmlns="http://www.w3.org/1999/xhtml" style="display: table-cell; white-space: nowrap; line-height: 1.5; max-width: 100px; text-align: start;"><span class="nodeLabel"></span></div></foreignObject></g><g class="label attribute-type" transform="translate(-152.78125, 94.875)" style=""><foreignObject width="60.625" height="24"><div xmlns="http://www.w3.org/1999/xhtml" style="display: table-cell; white-space: nowrap; line-height: 1.5; max-width: 161px; text-align: start;"><span class="nodeLabel"><p>INTEGER</p></span></div></foreignObject></g><g class="label attribute-name" transform="translate(-67.15625, 94.875)" style=""><foreignObject width="219.9375" height="24"><div xmlns="http://www.w3.org/1999/xhtml" style="display: table-cell; white-space: nowrap; line-height: 1.5; max-width: 320px; text-align: start;"><span class="nodeLabel"><p>row_count_connection_events</p></span></div></foreignObject></g><g class="label attribute-keys" transform="translate(177.78125, 94.875)" style=""><foreignObject width="0" height="0"><div xmlns="http://www.w3.org/1999/xhtml" style="display: table-cell; white-space: nowrap; line-height: 1.5; max-width: 100px; text-align: start;"><span class="nodeLabel"></span></div></foreignObject></g><g class="label attribute-comment" transform="translate(177.78125, 94.875)" style=""><foreignObject width="0" height="0"><div xmlns="http://www.w3.org/1999/xhtml" style="display: table-cell; white-space: nowrap; line-height: 1.5; max-width: 100px; text-align: start;"><span class="nodeLabel"></span></div></foreignObject></g><g class="label attribute-type" transform="translate(-152.78125, 137.625)" style=""><foreignObject width="60.625" height="24"><div xmlns="http://www.w3.org/1999/xhtml" style="display: table-cell; white-space: nowrap; line-height: 1.5; max-width: 161px; text-align: start;"><span class="nodeLabel"><p>INTEGER</p></span></div></foreignObject></g><g class="label attribute-name" transform="translate(-67.15625, 137.625)" style=""><foreignObject width="207.453125" height="24"><div xmlns="http://www.w3.org/1999/xhtml" style="display: table-cell; white-space: nowrap; line-height: 1.5; max-width: 308px; text-align: start;"><span class="nodeLabel"><p>row_count_cleansed_market</p></span></div></foreignObject></g><g class="label attribute-keys" transform="translate(177.78125, 137.625)" style=""><foreignObject width="0" height="0"><div xmlns="http://www.w3.org/1999/xhtml" style="display: table-cell; white-space: nowrap; line-height: 1.5; max-width: 100px; text-align: start;"><span class="nodeLabel"></span></div></foreignObject></g><g class="label attribute-comment" transform="translate(177.78125, 137.625)" style=""><foreignObject width="0" height="0"><div xmlns="http://www.w3.org/1999/xhtml" style="display: table-cell; white-space: nowrap; line-height: 1.5; max-width: 100px; text-align: start;"><span class="nodeLabel"></span></div></foreignObject></g><g class="label attribute-type" transform="translate(-152.78125, 180.375)" style=""><foreignObject width="60.625" height="24"><div xmlns="http://www.w3.org/1999/xhtml" style="display: table-cell; white-space: nowrap; line-height: 1.5; max-width: 161px; text-align: start;"><span class="nodeLabel"><p>INTEGER</p></span></div></foreignObject></g><g class="label attribute-name" transform="translate(-67.15625, 180.375)" style=""><foreignObject width="189.90625" height="24"><div xmlns="http://www.w3.org/1999/xhtml" style="display: table-cell; white-space: nowrap; line-height: 1.5; max-width: 290px; text-align: start;"><span class="nodeLabel"><p>created_core_views_count</p></span></div></foreignObject></g><g class="label attribute-keys" transform="translate(177.78125, 180.375)" style=""><foreignObject width="0" height="0"><div xmlns="http://www.w3.org/1999/xhtml" style="display: table-cell; white-space: nowrap; line-height: 1.5; max-width: 100px; text-align: start;"><span class="nodeLabel"></span></div></foreignObject></g><g class="label attribute-comment" transform="translate(177.78125, 180.375)" style=""><foreignObject width="0" height="0"><div xmlns="http://www.w3.org/1999/xhtml" style="display: table-cell; white-space: nowrap; line-height: 1.5; max-width: 100px; text-align: start;"><span class="nodeLabel"></span></div></foreignObject></g><g class="divider"><path d="M-165.28125 -171 C-73.44139829527124 -171, 18.398453409457517 -171, 165.28125 -171 M-165.28125 -171 C-71.21903628051814 -171, 22.84317743896372 -171, 165.28125 -171" stroke="#9370DB" stroke-width="1.3" fill="none" stroke-dasharray="0 0"></path></g><g class="divider"><path d="M-79.65625 -171 C-79.65625 -74.44903271036932, -79.65625 22.101934579261354, -79.65625 213.75 M-79.65625 -171 C-79.65625 -50.629005196889224, -79.65625 69.74198960622155, -79.65625 213.75" stroke="#9370DB" stroke-width="1.3" fill="none" stroke-dasharray="0 0"></path></g><g class="divider"><path d="M-165.28125 -171 C-74.73426269332711 -171, 15.812724613345779 -171, 165.28125 -171 M-165.28125 -171 C-53.944671740125315 -171, 57.39190651974937 -171, 165.28125 -171" stroke="#9370DB" stroke-width="1.3" fill="none" stroke-dasharray="0 0"></path></g></g><g class="node default" id="entity-validation_report_json-4" transform="translate(444.2421875, 1193.25)"><g style=""><path d="M-153.6796875 -171 L153.6796875 -171 L153.6796875 171 L-153.6796875 171" stroke="none" stroke-width="0" fill="#ECECFF"></path><path d="M-153.6796875 -171 C-74.71836620332806 -171, 4.24295509334388 -171, 153.6796875 -171 M-153.6796875 -171 C-72.50636142620988 -171, 8.666964647580244 -171, 153.6796875 -171 M153.6796875 -171 C153.6796875 -54.75581682448096, 153.6796875 61.48836635103808, 153.6796875 171 M153.6796875 -171 C153.6796875 -94.49149339020502, 153.6796875 -17.982986780410045, 153.6796875 171 M153.6796875 171 C34.81176576892359 171, -84.05615596215281 171, -153.6796875 171 M153.6796875 171 C73.66571417650931 171, -6.348259146981377 171, -153.6796875 171 M-153.6796875 171 C-153.6796875 71.86136904057602, -153.6796875 -27.277261918847955, -153.6796875 -171 M-153.6796875 171 C-153.6796875 51.29552263886558, -153.6796875 -68.40895472226885, -153.6796875 -171" stroke="#9370DB" stroke-width="1.3" fill="none" stroke-dasharray="0 0"></path></g><g style="" class="row-rect-odd"><path d="M-153.6796875 -128.25 L153.6796875 -128.25 L153.6796875 -85.5 L-153.6796875 -85.5" stroke="none" stroke-width="0" fill="hsl(240, 100%, 100%)"></path><path d="M-153.6796875 -128.25 C-62.40575774858169 -128.25, 28.868172002836616 -128.25, 153.6796875 -128.25 M-153.6796875 -128.25 C-84.90627557443132 -128.25, -16.13286364886264 -128.25, 153.6796875 -128.25 M153.6796875 -128.25 C153.6796875 -119.36264404426896, 153.6796875 -110.47528808853792, 153.6796875 -85.5 M153.6796875 -128.25 C153.6796875 -117.18588842056108, 153.6796875 -106.12177684112217, 153.6796875 -85.5 M153.6796875 -85.5 C86.66257774021334 -85.5, 19.645467980426673 -85.5, -153.6796875 -85.5 M153.6796875 -85.5 C44.92937587800279 -85.5, -63.820935743994426 -85.5, -153.6796875 -85.5 M-153.6796875 -85.5 C-153.6796875 -94.72605794456808, -153.6796875 -103.95211588913617, -153.6796875 -128.25 M-153.6796875 -85.5 C-153.6796875 -98.51451781081941, -153.6796875 -111.52903562163884, -153.6796875 -128.25" stroke="#9370DB" stroke-width="1.3" fill="none" stroke-dasharray="0 0"></path></g><g style="" class="row-rect-even"><path d="M-153.6796875 -85.5 L153.6796875 -85.5 L153.6796875 -42.75 L-153.6796875 -42.75" stroke="none" stroke-width="0" fill="hsl(240, 100%, 97.2745098039%)"></path><path d="M-153.6796875 -85.5 C-38.2084513889092 -85.5, 77.2627847221816 -85.5, 153.6796875 -85.5 M-153.6796875 -85.5 C-75.39223225246539 -85.5, 2.8952229950692185 -85.5, 153.6796875 -85.5 M153.6796875 -85.5 C153.6796875 -70.65915196355142, 153.6796875 -55.818303927102846, 153.6796875 -42.75 M153.6796875 -85.5 C153.6796875 -73.75375574503586, 153.6796875 -62.007511490071735, 153.6796875 -42.75 M153.6796875 -42.75 C77.72622331715348 -42.75, 1.7727591343069662 -42.75, -153.6796875 -42.75 M153.6796875 -42.75 C84.77798776420562 -42.75, 15.876288028411238 -42.75, -153.6796875 -42.75 M-153.6796875 -42.75 C-153.6796875 -52.033200792004294, -153.6796875 -61.31640158400859, -153.6796875 -85.5 M-153.6796875 -42.75 C-153.6796875 -56.6013377729502, -153.6796875 -70.4526755459004, -153.6796875 -85.5" stroke="#9370DB" stroke-width="1.3" fill="none" stroke-dasharray="0 0"></path></g><g style="" class="row-rect-odd"><path d="M-153.6796875 -42.75 L153.6796875 -42.75 L153.6796875 0 L-153.6796875 0" stroke="none" stroke-width="0" fill="hsl(240, 100%, 100%)"></path><path d="M-153.6796875 -42.75 C-53.7364594780407 -42.75, 46.2067685439186 -42.75, 153.6796875 -42.75 M-153.6796875 -42.75 C-67.60961053950363 -42.75, 18.46046642099273 -42.75, 153.6796875 -42.75 M153.6796875 -42.75 C153.6796875 -33.75417238845881, 153.6796875 -24.75834477691762, 153.6796875 0 M153.6796875 -42.75 C153.6796875 -33.35674968914154, 153.6796875 -23.96349937828308, 153.6796875 0 M153.6796875 0 C87.98447066951812 0, 22.289253839036235 0, -153.6796875 0 M153.6796875 0 C49.244611534357546 0, -55.19046443128491 0, -153.6796875 0 M-153.6796875 0 C-153.6796875 -14.445637873045678, -153.6796875 -28.891275746091356, -153.6796875 -42.75 M-153.6796875 0 C-153.6796875 -15.618833413977738, -153.6796875 -31.237666827955476, -153.6796875 -42.75" stroke="#9370DB" stroke-width="1.3" fill="none" stroke-dasharray="0 0"></path></g><g style="" class="row-rect-even"><path d="M-153.6796875 0 L153.6796875 0 L153.6796875 42.75 L-153.6796875 42.75" stroke="none" stroke-width="0" fill="hsl(240, 100%, 97.2745098039%)"></path><path d="M-153.6796875 0 C-87.45335360479754 0, -21.227019709595083 0, 153.6796875 0 M-153.6796875 0 C-88.8381549052511 0, -23.996622310502204 0, 153.6796875 0 M153.6796875 0 C153.6796875 12.67133393542858, 153.6796875 25.34266787085716, 153.6796875 42.75 M153.6796875 0 C153.6796875 12.420023006487988, 153.6796875 24.840046012975975, 153.6796875 42.75 M153.6796875 42.75 C84.56718570505309 42.75, 15.454683910106183 42.75, -153.6796875 42.75 M153.6796875 42.75 C72.10126726491623 42.75, -9.477152970167538 42.75, -153.6796875 42.75 M-153.6796875 42.75 C-153.6796875 31.56055004264497, -153.6796875 20.37110008528994, -153.6796875 0 M-153.6796875 42.75 C-153.6796875 26.329235024999917, -153.6796875 9.908470049999835, -153.6796875 0" stroke="#9370DB" stroke-width="1.3" fill="none" stroke-dasharray="0 0"></path></g><g style="" class="row-rect-odd"><path d="M-153.6796875 42.75 L153.6796875 42.75 L153.6796875 85.5 L-153.6796875 85.5" stroke="none" stroke-width="0" fill="hsl(240, 100%, 100%)"></path><path d="M-153.6796875 42.75 C-52.3828471296509 42.75, 48.913993240698204 42.75, 153.6796875 42.75 M-153.6796875 42.75 C-36.809341595043506 42.75, 80.06100430991299 42.75, 153.6796875 42.75 M153.6796875 42.75 C153.6796875 56.74714016451204, 153.6796875 70.74428032902408, 153.6796875 85.5 M153.6796875 42.75 C153.6796875 55.299708073850994, 153.6796875 67.84941614770199, 153.6796875 85.5 M153.6796875 85.5 C31.799514191425047 85.5, -90.0806591171499 85.5, -153.6796875 85.5 M153.6796875 85.5 C33.39371427866274 85.5, -86.89225894267452 85.5, -153.6796875 85.5 M-153.6796875 85.5 C-153.6796875 75.02065332327642, -153.6796875 64.54130664655284, -153.6796875 42.75 M-153.6796875 85.5 C-153.6796875 68.71867657580275, -153.6796875 51.93735315160549, -153.6796875 42.75" stroke="#9370DB" stroke-width="1.3" fill="none" stroke-dasharray="0 0"></path></g><g style="" class="row-rect-even"><path d="M-153.6796875 85.5 L153.6796875 85.5 L153.6796875 128.25 L-153.6796875 128.25" stroke="none" stroke-width="0" fill="hsl(240, 100%, 97.2745098039%)"></path><path d="M-153.6796875 85.5 C-65.67168949219212 85.5, 22.33630851561577 85.5, 153.6796875 85.5 M-153.6796875 85.5 C-31.942327136533564 85.5, 89.79503322693287 85.5, 153.6796875 85.5 M153.6796875 85.5 C153.6796875 97.52212963968867, 153.6796875 109.54425927937733, 153.6796875 128.25 M153.6796875 85.5 C153.6796875 95.26308797820018, 153.6796875 105.02617595640035, 153.6796875 128.25 M153.6796875 128.25 C59.9893742945098 128.25, -33.7009389109804 128.25, -153.6796875 128.25 M153.6796875 128.25 C77.4266475326207 128.25, 1.1736075652414115 128.25, -153.6796875 128.25 M-153.6796875 128.25 C-153.6796875 118.76741945539735, -153.6796875 109.28483891079468, -153.6796875 85.5 M-153.6796875 128.25 C-153.6796875 111.16399655317589, -153.6796875 94.07799310635178, -153.6796875 85.5" stroke="#9370DB" stroke-width="1.3" fill="none" stroke-dasharray="0 0"></path></g><g style="" class="row-rect-odd"><path d="M-153.6796875 128.25 L153.6796875 128.25 L153.6796875 171 L-153.6796875 171" stroke="none" stroke-width="0" fill="hsl(240, 100%, 100%)"></path><path d="M-153.6796875 128.25 C-82.41869821980221 128.25, -11.157708939604419 128.25, 153.6796875 128.25 M-153.6796875 128.25 C-71.19158052847337 128.25, 11.296526443053267 128.25, 153.6796875 128.25 M153.6796875 128.25 C153.6796875 140.37416287737545, 153.6796875 152.49832575475088, 153.6796875 171 M153.6796875 128.25 C153.6796875 139.7107183516555, 153.6796875 151.171436703311, 153.6796875 171 M153.6796875 171 C57.90439709715386 171, -37.87089330569228 171, -153.6796875 171 M153.6796875 171 C56.72385444445055 171, -40.231978611098896 171, -153.6796875 171 M-153.6796875 171 C-153.6796875 158.35315821878865, -153.6796875 145.7063164375773, -153.6796875 128.25 M-153.6796875 171 C-153.6796875 157.6667736817396, -153.6796875 144.33354736347923, -153.6796875 128.25" stroke="#9370DB" stroke-width="1.3" fill="none" stroke-dasharray="0 0"></path></g><g class="label name" transform="translate(-82.875, -161.625)" style=""><foreignObject width="165.75" height="24"><div xmlns="http://www.w3.org/1999/xhtml" style="display: table-cell; white-space: nowrap; line-height: 1.5; max-width: 266px; text-align: start;"><span class="nodeLabel"><p>validation_report_json</p></span></div></foreignObject></g><g class="label attribute-type" transform="translate(-141.1796875, -118.875)" style=""><foreignObject width="33.75" height="24"><div xmlns="http://www.w3.org/1999/xhtml" style="display: table-cell; white-space: nowrap; line-height: 1.5; max-width: 134px; text-align: start;"><span class="nodeLabel"><p>TEXT</p></span></div></foreignObject></g><g class="label attribute-name" transform="translate(-47.6796875, -118.875)" style=""><foreignObject width="115.53125" height="24"><div xmlns="http://www.w3.org/1999/xhtml" style="display: table-cell; white-space: nowrap; line-height: 1.5; max-width: 216px; text-align: start;"><span class="nodeLabel"><p>run_started_utc</p></span></div></foreignObject></g><g class="label attribute-keys" transform="translate(166.1796875, -118.875)" style=""><foreignObject width="0" height="0"><div xmlns="http://www.w3.org/1999/xhtml" style="display: table-cell; white-space: nowrap; line-height: 1.5; max-width: 100px; text-align: start;"><span class="nodeLabel"></span></div></foreignObject></g><g class="label attribute-comment" transform="translate(166.1796875, -118.875)" style=""><foreignObject width="0" height="0"><div xmlns="http://www.w3.org/1999/xhtml" style="display: table-cell; white-space: nowrap; line-height: 1.5; max-width: 100px; text-align: start;"><span class="nodeLabel"></span></div></foreignObject></g><g class="label attribute-type" transform="translate(-141.1796875, -76.125)" style=""><foreignObject width="33.75" height="24"><div xmlns="http://www.w3.org/1999/xhtml" style="display: table-cell; white-space: nowrap; line-height: 1.5; max-width: 134px; text-align: start;"><span class="nodeLabel"><p>TEXT</p></span></div></foreignObject></g><g class="label attribute-name" transform="translate(-47.6796875, -76.125)" style=""><foreignObject width="121.59375" height="24"><div xmlns="http://www.w3.org/1999/xhtml" style="display: table-cell; white-space: nowrap; line-height: 1.5; max-width: 222px; text-align: start;"><span class="nodeLabel"><p>run_finished_utc</p></span></div></foreignObject></g><g class="label attribute-keys" transform="translate(166.1796875, -76.125)" style=""><foreignObject width="0" height="0"><div xmlns="http://www.w3.org/1999/xhtml" style="display: table-cell; white-space: nowrap; line-height: 1.5; max-width: 100px; text-align: start;"><span class="nodeLabel"></span></div></foreignObject></g><g class="label attribute-comment" transform="translate(166.1796875, -76.125)" style=""><foreignObject width="0" height="0"><div xmlns="http://www.w3.org/1999/xhtml" style="display: table-cell; white-space: nowrap; line-height: 1.5; max-width: 100px; text-align: start;"><span class="nodeLabel"></span></div></foreignObject></g><g class="label attribute-type" transform="translate(-141.1796875, -33.375)" style=""><foreignObject width="33.75" height="24"><div xmlns="http://www.w3.org/1999/xhtml" style="display: table-cell; white-space: nowrap; line-height: 1.5; max-width: 134px; text-align: start;"><span class="nodeLabel"><p>TEXT</p></span></div></foreignObject></g><g class="label attribute-name" transform="translate(-47.6796875, -33.375)" style=""><foreignObject width="104.75" height="24"><div xmlns="http://www.w3.org/1999/xhtml" style="display: table-cell; white-space: nowrap; line-height: 1.5; max-width: 206px; text-align: start;"><span class="nodeLabel"><p>kpi_date_filter</p></span></div></foreignObject></g><g class="label attribute-keys" transform="translate(166.1796875, -33.375)" style=""><foreignObject width="0" height="0"><div xmlns="http://www.w3.org/1999/xhtml" style="display: table-cell; white-space: nowrap; line-height: 1.5; max-width: 100px; text-align: start;"><span class="nodeLabel"></span></div></foreignObject></g><g class="label attribute-comment" transform="translate(166.1796875, -33.375)" style=""><foreignObject width="0" height="0"><div xmlns="http://www.w3.org/1999/xhtml" style="display: table-cell; white-space: nowrap; line-height: 1.5; max-width: 100px; text-align: start;"><span class="nodeLabel"></span></div></foreignObject></g><g class="label attribute-type" transform="translate(-141.1796875, 9.375)" style=""><foreignObject width="33.75" height="24"><div xmlns="http://www.w3.org/1999/xhtml" style="display: table-cell; white-space: nowrap; line-height: 1.5; max-width: 134px; text-align: start;"><span class="nodeLabel"><p>TEXT</p></span></div></foreignObject></g><g class="label attribute-name" transform="translate(-47.6796875, 9.375)" style=""><foreignObject width="166.546875" height="24"><div xmlns="http://www.w3.org/1999/xhtml" style="display: table-cell; white-space: nowrap; line-height: 1.5; max-width: 267px; text-align: start;"><span class="nodeLabel"><p>cleansing_run_id_filter</p></span></div></foreignObject></g><g class="label attribute-keys" transform="translate(166.1796875, 9.375)" style=""><foreignObject width="0" height="0"><div xmlns="http://www.w3.org/1999/xhtml" style="display: table-cell; white-space: nowrap; line-height: 1.5; max-width: 100px; text-align: start;"><span class="nodeLabel"></span></div></foreignObject></g><g class="label attribute-comment" transform="translate(166.1796875, 9.375)" style=""><foreignObject width="0" height="0"><div xmlns="http://www.w3.org/1999/xhtml" style="display: table-cell; white-space: nowrap; line-height: 1.5; max-width: 100px; text-align: start;"><span class="nodeLabel"></span></div></foreignObject></g><g class="label attribute-type" transform="translate(-141.1796875, 52.125)" style=""><foreignObject width="68.5" height="24"><div xmlns="http://www.w3.org/1999/xhtml" style="display: table-cell; white-space: nowrap; line-height: 1.5; max-width: 169px; text-align: start;"><span class="nodeLabel"><p>BOOLEAN</p></span></div></foreignObject></g><g class="label attribute-name" transform="translate(-47.6796875, 52.125)" style=""><foreignObject width="188.859375" height="24"><div xmlns="http://www.w3.org/1999/xhtml" style="display: table-cell; white-space: nowrap; line-height: 1.5; max-width: 289px; text-align: start;"><span class="nodeLabel"><p>view_row_counts_skipped</p></span></div></foreignObject></g><g class="label attribute-keys" transform="translate(166.1796875, 52.125)" style=""><foreignObject width="0" height="0"><div xmlns="http://www.w3.org/1999/xhtml" style="display: table-cell; white-space: nowrap; line-height: 1.5; max-width: 100px; text-align: start;"><span class="nodeLabel"></span></div></foreignObject></g><g class="label attribute-comment" transform="translate(166.1796875, 52.125)" style=""><foreignObject width="0" height="0"><div xmlns="http://www.w3.org/1999/xhtml" style="display: table-cell; white-space: nowrap; line-height: 1.5; max-width: 100px; text-align: start;"><span class="nodeLabel"></span></div></foreignObject></g><g class="label attribute-type" transform="translate(-141.1796875, 94.875)" style=""><foreignObject width="60.625" height="24"><div xmlns="http://www.w3.org/1999/xhtml" style="display: table-cell; white-space: nowrap; line-height: 1.5; max-width: 161px; text-align: start;"><span class="nodeLabel"><p>INTEGER</p></span></div></foreignObject></g><g class="label attribute-name" transform="translate(-47.6796875, 94.875)" style=""><foreignObject width="83.953125" height="24"><div xmlns="http://www.w3.org/1999/xhtml" style="display: table-cell; white-space: nowrap; line-height: 1.5; max-width: 184px; text-align: start;"><span class="nodeLabel"><p>error_failed</p></span></div></foreignObject></g><g class="label attribute-keys" transform="translate(166.1796875, 94.875)" style=""><foreignObject width="0" height="0"><div xmlns="http://www.w3.org/1999/xhtml" style="display: table-cell; white-space: nowrap; line-height: 1.5; max-width: 100px; text-align: start;"><span class="nodeLabel"></span></div></foreignObject></g><g class="label attribute-comment" transform="translate(166.1796875, 94.875)" style=""><foreignObject width="0" height="0"><div xmlns="http://www.w3.org/1999/xhtml" style="display: table-cell; white-space: nowrap; line-height: 1.5; max-width: 100px; text-align: start;"><span class="nodeLabel"></span></div></foreignObject></g><g class="label attribute-type" transform="translate(-141.1796875, 137.625)" style=""><foreignObject width="60.625" height="24"><div xmlns="http://www.w3.org/1999/xhtml" style="display: table-cell; white-space: nowrap; line-height: 1.5; max-width: 161px; text-align: start;"><span class="nodeLabel"><p>INTEGER</p></span></div></foreignObject></g><g class="label attribute-name" transform="translate(-47.6796875, 137.625)" style=""><foreignObject width="84.65625" height="24"><div xmlns="http://www.w3.org/1999/xhtml" style="display: table-cell; white-space: nowrap; line-height: 1.5; max-width: 185px; text-align: start;"><span class="nodeLabel"><p>warn_failed</p></span></div></foreignObject></g><g class="label attribute-keys" transform="translate(166.1796875, 137.625)" style=""><foreignObject width="0" height="0"><div xmlns="http://www.w3.org/1999/xhtml" style="display: table-cell; white-space: nowrap; line-height: 1.5; max-width: 100px; text-align: start;"><span class="nodeLabel"></span></div></foreignObject></g><g class="label attribute-comment" transform="translate(166.1796875, 137.625)" style=""><foreignObject width="0" height="0"><div xmlns="http://www.w3.org/1999/xhtml" style="display: table-cell; white-space: nowrap; line-height: 1.5; max-width: 100px; text-align: start;"><span class="nodeLabel"></span></div></foreignObject></g><g class="divider"><path d="M-153.6796875 -128.25 C-36.78378605870179 -128.25, 80.11211538259641 -128.25, 153.6796875 -128.25 M-153.6796875 -128.25 C-67.56428333512528 -128.25, 18.551120829749436 -128.25, 153.6796875 -128.25" stroke="#9370DB" stroke-width="1.3" fill="none" stroke-dasharray="0 0"></path></g><g class="divider"><path d="M-60.1796875 -128.25 C-60.1796875 -33.02687907049069, -60.1796875 62.19624185901861, -60.1796875 171 M-60.1796875 -128.25 C-60.1796875 -57.6394288653443, -60.1796875 12.9711422693114, -60.1796875 171" stroke="#9370DB" stroke-width="1.3" fill="none" stroke-dasharray="0 0"></path></g><g class="divider"><path d="M-153.6796875 -128.25 C-72.87511522793002 -128.25, 7.9294570441399514 -128.25, 153.6796875 -128.25 M-153.6796875 -128.25 C-42.04872685928488 -128.25, 69.58223378143023 -128.25, 153.6796875 -128.25" stroke="#9370DB" stroke-width="1.3" fill="none" stroke-dasharray="0 0"></path></g></g></g></g></g></svg>