<svg id="container" width="2707.07421875" xmlns="http://www.w3.org/2000/svg" class="flowchart" height="1010.1809692382812" viewBox="0 0 2707.07421875 1010.1809692382812" role="graphics-document document" aria-roledescription="flowchart-v2"><style>#container{font-family:"trebuchet ms",verdana,arial,sans-serif;font-size:16px;fill:#333;}@keyframes edge-animation-frame{from{stroke-dashoffset:0;}}@keyframes dash{to{stroke-dashoffset:0;}}#container .edge-animation-slow{stroke-dasharray:9,5!important;stroke-dashoffset:900;animation:dash 50s linear infinite;stroke-linecap:round;}#container .edge-animation-fast{stroke-dasharray:9,5!important;stroke-dashoffset:900;animation:dash 20s linear infinite;stroke-linecap:round;}#container .error-icon{fill:#552222;}#container .error-text{fill:#552222;stroke:#552222;}#container .edge-thickness-normal{stroke-width:1px;}#container .edge-thickness-thick{stroke-width:3.5px;}#container .edge-pattern-solid{stroke-dasharray:0;}#container .edge-thickness-invisible{stroke-width:0;fill:none;}#container .edge-pattern-dashed{stroke-dasharray:3;}#container .edge-pattern-dotted{stroke-dasharray:2;}#container .marker{fill:#333333;stroke:#333333;}#container .marker.cross{stroke:#333333;}#container svg{font-family:"trebuchet ms",verdana,arial,sans-serif;font-size:16px;}#container p{margin:0;}#container .label{font-family:"trebuchet ms",verdana,arial,sans-serif;color:#333;}#container .cluster-label text{fill:#333;}#container .cluster-label span{color:#333;}#container .cluster-label span p{background-color:transparent;}#container .label text,#container span{fill:#333;color:#333;}#container .node rect,#container .node circle,#container .node ellipse,#container .node polygon,#container .node path{fill:#ECECFF;stroke:#9370DB;stroke-width:1px;}#container .rough-node .label text,#container .node .label text,#container .image-shape .label,#container .icon-shape .label{text-anchor:middle;}#container .node .katex path{fill:#000;stroke:#000;stroke-width:1px;}#container .rough-node .label,#container .node .label,#container .image-shape .label,#container .icon-shape .label{text-align:center;}#container .node.clickable{cursor:pointer;}#container .root .anchor path{fill:#333333!important;stroke-width:0;stroke:#333333;}#container .arrowheadPath{fill:#333333;}#container .edgePath .path{stroke:#333333;stroke-width:2.0px;}#container .flowchart-link{stroke:#333333;fill:none;}#container .edgeLabel{background-color:rgba(232,232,232, 0.8);text-align:center;}#container .edgeLabel p{background-color:rgba(232,232,232, 0.8);}#container .edgeLabel rect{opacity:0.5;background-color:rgba(232,232,232, 0.8);fill:rgba(232,232,232, 0.8);}#container .labelBkg{background-color:rgba(232, 232, 232, 0.5);}#container .cluster rect{fill:#ffffde;stroke:#aaaa33;stroke-width:1px;}#container .cluster text{fill:#333;}#container .cluster span{color:#333;}#container div.mermaidTooltip{position:absolute;text-align:center;max-width:200px;padding:2px;font-family:"trebuchet ms",verdana,arial,sans-serif;font-size:12px;background:hsl(80, 100%, 96.2745098039%);border:1px solid #aaaa33;border-radius:2px;pointer-events:none;z-index:100;}#container .flowchartTitleText{text-anchor:middle;font-size:18px;fill:#333;}#container rect.text{fill:none;stroke-width:0;}#container .icon-shape,#container .image-shape{background-color:rgba(232,232,232, 0.8);text-align:center;}#container .icon-shape p,#container .image-shape p{background-color:rgba(232,232,232, 0.8);padding:2px;}#container .icon-shape rect,#container .image-shape rect{opacity:0.5;background-color:rgba(232,232,232, 0.8);fill:rgba(232,232,232, 0.8);}#container .label-icon{display:inline-block;height:1em;overflow:visible;vertical-align:-0.125em;}#container .node .label-icon path{fill:currentColor;stroke:revert;stroke-width:revert;}#container :root{--mermaid-font-family:"trebuchet ms",verdana,arial,sans-serif;}</style><g><marker id="container_flowchart-v2-pointEnd" class="marker flowchart-v2" viewBox="0 0 10 10" refX="5" refY="5" markerUnits="userSpaceOnUse" markerWidth="8" markerHeight="8" orient="auto"><path d="M 0 0 L 10 5 L 0 10 z" class="arrowMarkerPath" style="stroke-width: 1; stroke-dasharray: 1, 0;"></path></marker><marker id="container_flowchart-v2-pointStart" class="marker flowchart-v2" viewBox="0 0 10 10" refX="4.5" refY="5" markerUnits="userSpaceOnUse" markerWidth="8" markerHeight="8" orient="auto"><path d="M 0 5 L 10 10 L 10 0 z" class="arrowMarkerPath" style="stroke-width: 1; stroke-dasharray: 1, 0;"></path></marker><marker id="container_flowchart-v2-circleEnd" class="marker flowchart-v2" viewBox="0 0 10 10" refX="11" refY="5" markerUnits="userSpaceOnUse" markerWidth="11" markerHeight="11" orient="auto"><circle cx="5" cy="5" r="5" class="arrowMarkerPath" style="stroke-width: 1; stroke-dasharray: 1, 0;"></circle></marker><marker id="container_flowchart-v2-circleStart" class="marker flowchart-v2" viewBox="0 0 10 10" refX="-1" refY="5" markerUnits="userSpaceOnUse" markerWidth="11" markerHeight="11" orient="auto"><circle cx="5" cy="5" r="5" class="arrowMarkerPath" style="stroke-width: 1; stroke-dasharray: 1, 0;"></circle></marker><marker id="container_flowchart-v2-crossEnd" class="marker cross flowchart-v2" viewBox="0 0 11 11" refX="12" refY="5.2" markerUnits="userSpaceOnUse" markerWidth="11" markerHeight="11" orient="auto"><path d="M 1,1 l 9,9 M 10,1 l -9,9" class="arrowMarkerPath" style="stroke-width: 2; stroke-dasharray: 1, 0;"></path></marker><marker id="container_flowchart-v2-crossStart" class="marker cross flowchart-v2" viewBox="0 0 11 11" refX="-1" refY="5.2" markerUnits="userSpaceOnUse" markerWidth="11" markerHeight="11" orient="auto"><path d="M 1,1 l 9,9 M 10,1 l -9,9" class="arrowMarkerPath" style="stroke-width: 2; stroke-dasharray: 1, 0;"></path></marker><g class="root"><g class="clusters"><g class="cluster" id="VAULT" data-look="classic"><rect style="" x="8" y="470" width="441.625" height="353.3963928222656"></rect><g class="cluster-label" transform="translate(165.453125, 470)"><foreignObject width="126.71875" height="24"><div xmlns="http://www.w3.org/1999/xhtml" style="display: table-cell; white-space: nowrap; line-height: 1.5; max-width: 200px; text-align: center;"><span class="nodeLabel"><p>VAULT 2.0 Storage</p></span></div></foreignObject></g></g><g class="cluster" id="HOST" data-look="classic"><rect style="" x="469.625" y="8" width="1627.18359375" height="994.1809921264648"></rect><g class="cluster-label" transform="translate(1230.677734375, 8)"><foreignObject width="105.078125" height="24"><div xmlns="http://www.w3.org/1999/xhtml" style="display: table-cell; white-space: nowrap; line-height: 1.5; max-width: 200px; text-align: center;"><span class="nodeLabel"><p>Ingestion Host</p></span></div></foreignObject></g></g><g class="cluster" id="EX" data-look="classic"><rect style="" x="2116.80859375" y="266" width="582.265625" height="154"></rect><g class="cluster-label" transform="translate(2356.45703125, 266)"><foreignObject width="102.96875" height="24"><div xmlns="http://www.w3.org/1999/xhtml" style="display: table-cell; white-space: nowrap; line-height: 1.5; max-width: 200px; text-align: center;"><span class="nodeLabel"><p>Exchange APIs</p></span></div></foreignObject></g></g><g class="cluster" id="CONS" data-look="classic"><rect style="" x="489.625" y="137" width="509.53125" height="258"></rect><g class="cluster-label" transform="translate(675.34375, 137)"><foreignObject width="138.09375" height="24"><div xmlns="http://www.w3.org/1999/xhtml" style="display: table-cell; white-space: nowrap; line-height: 1.5; max-width: 200px; text-align: center;"><span class="nodeLabel"><p>Consumer Runtime</p></span></div></foreignObject></g></g><g class="cluster" id="BUS" data-look="classic"><rect style="" x="638.54296875" y="495" width="468.265625" height="482.18099212646484"></rect><g class="cluster-label" transform="translate(815.83203125, 495)"><foreignObject width="113.6875" height="24"><div xmlns="http://www.w3.org/1999/xhtml" style="display: table-cell; white-space: nowrap; line-height: 1.5; max-width: 200px; text-align: center;"><span class="nodeLabel"><p>Redis Bus Layer</p></span></div></foreignObject></g></g><g class="cluster" id="PUB" data-look="classic"><rect style="" x="1126.80859375" y="291" width="950" height="349.1096649169922"></rect><g class="cluster-label" transform="translate(1534.83203125, 291)"><foreignObject width="133.953125" height="24"><div xmlns="http://www.w3.org/1999/xhtml" style="display: table-cell; white-space: nowrap; line-height: 1.5; max-width: 200px; text-align: center;"><span class="nodeLabel"><p>Publisher Runtime</p></span></div></foreignObject></g></g></g><g class="edgePaths"><path d="M1212.34,68.833L1299.628,76.027C1386.915,83.222,1561.491,97.611,1648.779,108.972C1736.066,120.333,1736.066,128.667,1736.066,141.5C1736.066,154.333,1736.066,171.667,1736.066,189C1736.066,206.333,1736.066,223.667,1736.066,236.5C1736.066,249.333,1736.066,257.667,1736.066,266C1736.066,274.333,1736.066,282.667,1736.066,290.333C1736.066,298,1736.066,305,1736.066,308.5L1736.066,312" id="L_OP_ORCH_0" class="edge-thickness-normal edge-pattern-solid edge-thickness-normal edge-pattern-solid flowchart-link" style=";" data-edge="true" data-et="edge" data-id="L_OP_ORCH_0" data-points="W3sieCI6MTIxMi4zMzk4NDM3NSwieSI6NjguODMyODAwODUxOTcwMTh9LHsieCI6MTczNi4wNjY0MDYyNSwieSI6MTEyfSx7IngiOjE3MzYuMDY2NDA2MjUsInkiOjEzN30seyJ4IjoxNzM2LjA2NjQwNjI1LCJ5IjoxODl9LHsieCI6MTczNi4wNjY0MDYyNSwieSI6MjQxfSx7IngiOjE3MzYuMDY2NDA2MjUsInkiOjI2Nn0seyJ4IjoxNzM2LjA2NjQwNjI1LCJ5IjoyOTF9LHsieCI6MTczNi4wNjY0MDYyNSwieSI6MzE2fV0=" marker-end="url(#container_flowchart-v2-pointEnd)"></path><path d="M998.012,73.729L948.222,80.107C898.432,86.486,798.853,99.243,749.063,109.788C699.273,120.333,699.273,128.667,699.273,136.333C699.273,144,699.273,151,699.273,154.5L699.273,158" id="L_OP_WRITER_0" class="edge-thickness-normal edge-pattern-solid edge-thickness-normal edge-pattern-solid flowchart-link" style=";" data-edge="true" data-et="edge" data-id="L_OP_WRITER_0" data-points="W3sieCI6OTk4LjAxMTcxODc1LCJ5Ijo3My43Mjg3NDg2NDA2NjM2NH0seyJ4Ijo2OTkuMjczNDM3NSwieSI6MTEyfSx7IngiOjY5OS4yNzM0Mzc1LCJ5IjoxMzd9LHsieCI6Njk5LjI3MzQzNzUsInkiOjE2Mn1d" marker-end="url(#container_flowchart-v2-pointEnd)"></path><path d="M1864.961,370L1884.853,374.167C1904.744,378.333,1944.526,386.667,1964.417,395C1984.309,403.333,1984.309,411.667,1984.309,420C1984.309,428.333,1984.309,436.667,1984.309,445C1984.309,453.333,1984.309,461.667,1984.309,470C1984.309,478.333,1984.309,486.667,1979.192,495.954C1974.075,505.242,1963.841,515.484,1958.723,520.604L1953.606,525.725" id="L_ORCH_W1_0" class="edge-thickness-normal edge-pattern-solid edge-thickness-normal edge-pattern-solid flowchart-link" style=";" data-edge="true" data-et="edge" data-id="L_ORCH_W1_0" data-points="W3sieCI6MTg2NC45NjEzODgyMjExNTM4LCJ5IjozNzB9LHsieCI6MTk4NC4zMDg1OTM3NSwieSI6Mzk1fSx7IngiOjE5ODQuMzA4NTkzNzUsInkiOjQyMH0seyJ4IjoxOTg0LjMwODU5Mzc1LCJ5Ijo0NDV9LHsieCI6MTk4NC4zMDg1OTM3NSwieSI6NDcwfSx7IngiOjE5ODQuMzA4NTkzNzUsInkiOjQ5NX0seyJ4IjoxOTUwLjc3OTExOTk2MDE5MzIsInkiOjUyOC41NTQ4MzI0NTg0OTYxfV0=" marker-end="url(#container_flowchart-v2-pointEnd)"></path><path d="M1741.644,370L1742.505,374.167C1743.366,378.333,1745.087,386.667,1745.948,395C1746.809,403.333,1746.809,411.667,1746.809,420C1746.809,428.333,1746.809,436.667,1746.809,445C1746.809,453.333,1746.809,461.667,1746.809,470C1746.809,478.333,1746.809,486.667,1736.228,496.127C1725.648,505.588,1704.487,516.177,1693.907,521.471L1683.327,526.765" id="L_ORCH_W2_0" class="edge-thickness-normal edge-pattern-solid edge-thickness-normal edge-pattern-solid flowchart-link" style=";" data-edge="true" data-et="edge" data-id="L_ORCH_W2_0" data-points="W3sieCI6MTc0MS42NDQwODA1Mjg4NDYyLCJ5IjozNzB9LHsieCI6MTc0Ni44MDg1OTM3NSwieSI6Mzk1fSx7IngiOjE3NDYuODA4NTkzNzUsInkiOjQyMH0seyJ4IjoxNzQ2LjgwODU5Mzc1LCJ5Ijo0NDV9LHsieCI6MTc0Ni44MDg1OTM3NSwieSI6NDcwfSx7IngiOjE3NDYuODA4NTkzNzUsInkiOjQ5NX0seyJ4IjoxNjc5Ljc0OTY0NjE3MDM4NjUsInkiOjUyOC41NTQ4MzI0NTg0OTYxfV0=" marker-end="url(#container_flowchart-v2-pointEnd)"></path><path d="M1584.582,369.322L1559.953,373.602C1535.324,377.882,1486.066,386.441,1461.438,394.887C1436.809,403.333,1436.809,411.667,1436.809,420C1436.809,428.333,1436.809,436.667,1436.809,445C1436.809,453.333,1436.809,461.667,1436.809,470C1436.809,478.333,1436.809,486.667,1426.228,496.127C1415.648,505.588,1394.487,516.177,1383.907,521.471L1373.327,526.765" id="L_ORCH_WN_0" class="edge-thickness-normal edge-pattern-solid edge-thickness-normal edge-pattern-solid flowchart-link" style=";" data-edge="true" data-et="edge" data-id="L_ORCH_WN_0" data-points="W3sieCI6MTU4NC41ODIwMzEyNSwieSI6MzY5LjMyMjQxMjIxNzcyNjE0fSx7IngiOjE0MzYuODA4NTkzNzUsInkiOjM5NX0seyJ4IjoxNDM2LjgwODU5Mzc1LCJ5Ijo0MjB9LHsieCI6MTQzNi44MDg1OTM3NSwieSI6NDQ1fSx7IngiOjE0MzYuODA4NTkzNzUsInkiOjQ3MH0seyJ4IjoxNDM2LjgwODU5Mzc1LCJ5Ijo0OTV9LHsieCI6MTM2OS43NDk2NDYxNzAzODY1LCJ5Ijo1MjguNTU0ODMyNDU4NDk2MX1d" marker-end="url(#container_flowchart-v2-pointEnd)"></path><path d="M2607.191,363L2607.108,368.333C2607.025,373.667,2606.858,384.333,2606.775,393.833C2606.691,403.333,2606.691,411.667,2466.711,420C2326.73,428.333,2046.77,436.667,1906.789,445C1766.809,453.333,1766.809,461.667,1766.809,470C1766.809,478.333,1766.809,486.667,1777.389,496.127C1787.969,505.588,1809.13,516.177,1819.71,521.471L1830.29,526.765" id="L_BIN_W1_0" class="edge-thickness-normal edge-pattern-solid edge-thickness-normal edge-pattern-solid flowchart-link" style=";" data-edge="true" data-et="edge" data-id="L_BIN_W1_0" data-points="W3sieCI6MjYwNy4xOTE0MDYyNSwieSI6MzYzfSx7IngiOjI2MDYuNjkxNDA2MjUsInkiOjM5NX0seyJ4IjoyNjA2LjY5MTQwNjI1LCJ5Ijo0MjB9LHsieCI6MTc2Ni44MDg1OTM3NSwieSI6NDQ1fSx7IngiOjE3NjYuODA4NTkzNzUsInkiOjQ3MH0seyJ4IjoxNzY2LjgwODU5Mzc1LCJ5Ijo0OTV9LHsieCI6MTgzMy44Njc1NDEzMjk2MTM1LCJ5Ijo1MjguNTU0ODMyNDU4NDk2MX1d" marker-end="url(#container_flowchart-v2-pointEnd)"></path><path d="M2446.355,363L2446.272,368.333C2446.189,373.667,2446.022,384.333,2445.939,393.833C2445.855,403.333,2445.855,411.667,2281.014,420C2116.173,428.333,1786.491,436.667,1621.65,445C1456.809,453.333,1456.809,461.667,1456.809,470C1456.809,478.333,1456.809,486.667,1467.389,496.127C1477.969,505.588,1499.13,516.177,1509.71,521.471L1520.29,526.765" id="L_KRA_W2_0" class="edge-thickness-normal edge-pattern-solid edge-thickness-normal edge-pattern-solid flowchart-link" style=";" data-edge="true" data-et="edge" data-id="L_KRA_W2_0" data-points="W3sieCI6MjQ0Ni4zNTU0Njg3NSwieSI6MzYzfSx7IngiOjI0NDUuODU1NDY4NzUsInkiOjM5NX0seyJ4IjoyNDQ1Ljg1NTQ2ODc1LCJ5Ijo0MjB9LHsieCI6MTQ1Ni44MDg1OTM3NSwieSI6NDQ1fSx7IngiOjE0NTYuODA4NTkzNzUsInkiOjQ3MH0seyJ4IjoxNDU2LjgwODU5Mzc1LCJ5Ijo0OTV9LHsieCI6MTUyMy44Njc1NDEzMjk2MTM1LCJ5Ijo1MjguNTU0ODMyNDU4NDk2MX1d" marker-end="url(#container_flowchart-v2-pointEnd)"></path><path d="M2247.605,363L2247.522,368.333C2247.439,373.667,2247.272,384.333,2247.189,393.833C2247.105,403.333,2247.105,411.667,2075.806,420C1904.507,428.333,1561.908,436.667,1390.608,445C1219.309,453.333,1219.309,461.667,1219.309,470C1219.309,478.333,1219.309,486.667,1224.426,495.954C1229.543,505.242,1239.777,515.484,1244.894,520.604L1250.011,525.725" id="L_OTH_WN_0" class="edge-thickness-normal edge-pattern-solid edge-thickness-normal edge-pattern-solid flowchart-link" style=";" data-edge="true" data-et="edge" data-id="L_OTH_WN_0" data-points="W3sieCI6MjI0Ny42MDU0Njg3NSwieSI6MzYzfSx7IngiOjIyNDcuMTA1NDY4NzUsInkiOjM5NX0seyJ4IjoyMjQ3LjEwNTQ2ODc1LCJ5Ijo0MjB9LHsieCI6MTIxOS4zMDg1OTM3NSwieSI6NDQ1fSx7IngiOjEyMTkuMzA4NTkzNzUsInkiOjQ3MH0seyJ4IjoxMjE5LjMwODU5Mzc1LCJ5Ijo0OTV9LHsieCI6MTI1Mi44MzgwNjc1Mzk4MDY4LCJ5Ijo1MjguNTU0ODMyNDU4NDk2MX1d" marker-end="url(#container_flowchart-v2-pointEnd)"></path><path d="M1911.809,606.555L1911.809,612.147C1911.809,617.74,1911.809,628.925,1767.003,640.684C1622.197,652.443,1332.585,664.776,1182.673,680.381C1032.762,695.985,1022.551,714.86,1017.446,724.297L1012.341,733.735" id="L_W1_STREAM_0" class="edge-thickness-normal edge-pattern-solid edge-thickness-normal edge-pattern-solid flowchart-link" style=";" data-edge="true" data-et="edge" data-id="L_W1_STREAM_0" data-points="W3sieCI6MTkxMS44MDg1OTM3NSwieSI6NjA2LjU1NDgzMjQ1ODQ5NjF9LHsieCI6MTkxMS44MDg1OTM3NSwieSI6NjQwLjEwOTY2NDkxNjk5MjJ9LHsieCI6MTA0Mi45NzI2NTYyNSwieSI6Njc3LjEwOTY2NDkxNjk5MjJ9LHsieCI6MTAxMC40MzczODE0Nzg0ODI4LCJ5Ijo3MzcuMjUzMDI4ODY5NjI4OH1d" marker-end="url(#container_flowchart-v2-pointEnd)"></path><path d="M1601.809,606.555L1601.809,612.147C1601.809,617.74,1601.809,628.925,1505.212,640.684C1408.616,652.443,1215.423,664.776,1116.19,680.325C1016.957,695.874,1011.683,714.638,1009.046,724.02L1006.409,733.402" id="L_W2_STREAM_0" class="edge-thickness-normal edge-pattern-solid edge-thickness-normal edge-pattern-solid flowchart-link" style=";" data-edge="true" data-et="edge" data-id="L_W2_STREAM_0" data-points="W3sieCI6MTYwMS44MDg1OTM3NSwieSI6NjA2LjU1NDgzMjQ1ODQ5NjF9LHsieCI6MTYwMS44MDg1OTM3NSwieSI6NjQwLjEwOTY2NDkxNjk5MjJ9LHsieCI6MTAyMi4yMzA0Njg3NSwieSI6Njc3LjEwOTY2NDkxNjk5MjJ9LHsieCI6MTAwNS4zMjY3NDg4NzM5MzQ0LCJ5Ijo3MzcuMjUzMDI4ODY5NjI4OH1d" marker-end="url(#container_flowchart-v2-pointEnd)"></path><path d="M1291.809,606.555L1291.809,612.147C1291.809,617.74,1291.809,628.925,1236.517,640.684C1181.225,652.443,1070.642,664.776,1020.045,680.37C969.447,695.964,978.836,714.818,983.531,724.245L988.225,733.672" id="L_WN_STREAM_0" class="edge-thickness-normal edge-pattern-solid edge-thickness-normal edge-pattern-solid flowchart-link" style=";" data-edge="true" data-et="edge" data-id="L_WN_STREAM_0" data-points="W3sieCI6MTI5MS44MDg1OTM3NSwieSI6NjA2LjU1NDgzMjQ1ODQ5NjF9LHsieCI6MTI5MS44MDg1OTM3NSwieSI6NjQwLjEwOTY2NDkxNjk5MjJ9LHsieCI6OTYwLjA1ODU5Mzc1LCJ5Ijo2NzcuMTA5NjY0OTE2OTkyMn0seyJ4Ijo5OTAuMDA4MzI1NDIxMjA0NiwieSI6NzM3LjI1MzAyODg2OTYyODh9XQ==" marker-end="url(#container_flowchart-v2-pointEnd)"></path><path d="M999.637,776.253L999.553,784.11C999.47,791.967,999.303,807.682,999.22,819.706C999.137,831.73,999.137,840.063,985.13,852.055C971.124,864.047,943.111,879.698,929.104,887.523L915.097,895.348" id="L_STREAM_REDIS_0" class="edge-thickness-normal edge-pattern-solid edge-thickness-normal edge-pattern-solid flowchart-link" style=";" data-edge="true" data-et="edge" data-id="L_STREAM_REDIS_0" data-points="W3sieCI6OTk5LjYzNjcxODc1MDAwMDEsInkiOjc3Ni4yNTMwMjg4Njk2Mjg5fSx7IngiOjk5OS4xMzY3MTg3NSwieSI6ODIzLjM5NjM5MjgyMjI2NTZ9LHsieCI6OTk5LjEzNjcxODc1LCJ5Ijo4NDguMzk2MzkyODIyMjY1Nn0seyJ4Ijo5MTEuNjA1NDY4NzUsInkiOjg5Ny4yOTkyMzIzMjMwMjY5fV0=" marker-end="url(#container_flowchart-v2-pointEnd)"></path><path d="M790.504,776.253L790.421,784.11C790.337,791.967,790.171,807.682,790.087,819.706C790.004,831.73,790.004,840.063,792.903,848.091C795.802,856.118,801.601,863.84,804.5,867.701L807.4,871.562" id="L_DLQ_REDIS_0" class="edge-thickness-normal edge-pattern-solid edge-thickness-normal edge-pattern-solid flowchart-link" style=";" data-edge="true" data-et="edge" data-id="L_DLQ_REDIS_0" data-points="W3sieCI6NzkwLjUwMzkwNjI1LCJ5Ijo3NzYuMjUzMDI4ODY5NjI4OX0seyJ4Ijo3OTAuMDAzOTA2MjUsInkiOjgyMy4zOTYzOTI4MjIyNjU2fSx7IngiOjc5MC4wMDM5MDYyNSwieSI6ODQ4LjM5NjM5MjgyMjI2NTZ9LHsieCI6ODA5LjgwMTM3NzI4OTA0NTgsInkiOjg3NC43NjA3Nzc4NDc5NTI5fV0=" marker-end="url(#container_flowchart-v2-pointEnd)"></path><path d="M825.504,591.771L799.344,599.827C773.184,607.884,720.863,623.997,694.703,638.22C668.543,652.443,668.543,664.776,668.543,684.134C668.543,703.491,668.543,729.872,668.543,754.253C668.543,778.634,668.543,801.015,668.543,816.372C668.543,831.73,668.543,840.063,684.922,852.478C701.3,864.893,734.057,881.39,750.436,889.638L766.814,897.886" id="L_CG_REDIS_0" class="edge-thickness-normal edge-pattern-solid edge-thickness-normal edge-pattern-solid flowchart-link" style=";" data-edge="true" data-et="edge" data-id="L_CG_REDIS_0" data-points="W3sieCI6ODI1LjUwMzkwNjI1LCJ5Ijo1OTEuNzcwNzQyMTY3Mzg1NH0seyJ4Ijo2NjguNTQyOTY4NzUsInkiOjY0MC4xMDk2NjQ5MTY5OTIyfSx7IngiOjY2OC41NDI5Njg3NSwieSI6Njc3LjEwOTY2NDkxNjk5MjJ9LHsieCI6NjY4LjU0Mjk2ODc1LCJ5Ijo3NTYuMjUzMDI4ODY5NjI4OX0seyJ4Ijo2NjguNTQyOTY4NzUsInkiOjgyMy4zOTYzOTI4MjIyNjU2fSx7IngiOjY2OC41NDI5Njg3NSwieSI6ODQ4LjM5NjM5MjgyMjI2NTZ9LHsieCI6NzcwLjM4NjcxODc1LCJ5Ijo4OTkuNjg1Mzc5ODA1NzQyNX1d" marker-end="url(#container_flowchart-v2-pointEnd)"></path><path d="M699.273,216L699.273,220.167C699.273,224.333,699.273,232.667,699.273,241C699.273,249.333,699.273,257.667,699.273,266C699.273,274.333,699.273,282.667,699.273,290.333C699.273,298,699.273,305,699.273,308.5L699.273,312" id="L_WRITER_IMPL_0" class="edge-thickness-normal edge-pattern-solid edge-thickness-normal edge-pattern-solid flowchart-link" style=";" data-edge="true" data-et="edge" data-id="L_WRITER_IMPL_0" data-points="W3sieCI6Njk5LjI3MzQzNzUsInkiOjIxNn0seyJ4Ijo2OTkuMjczNDM3NSwieSI6MjQxfSx7IngiOjY5OS4yNzM0Mzc1LCJ5IjoyNjZ9LHsieCI6Njk5LjI3MzQzNzUsInkiOjI5MX0seyJ4Ijo2OTkuMjczNDM3NSwieSI6MzE2fV0=" marker-end="url(#container_flowchart-v2-pointEnd)"></path><path d="M804.006,370L820.168,374.167C836.331,378.333,868.656,386.667,884.818,395C900.98,403.333,900.98,411.667,900.98,420C900.98,428.333,900.98,436.667,900.98,445C900.98,453.333,900.98,461.667,900.98,470C900.98,478.333,900.98,486.667,901.056,497.093C901.131,507.518,901.282,520.037,901.357,526.296L901.432,532.555" id="L_IMPL_CG_0" class="edge-thickness-normal edge-pattern-solid edge-thickness-normal edge-pattern-solid flowchart-link" style=";" data-edge="true" data-et="edge" data-id="L_IMPL_CG_0" data-points="W3sieCI6ODA0LjAwNTkzNDQ5NTE5MjMsInkiOjM3MH0seyJ4Ijo5MDAuOTgwNDY4NzUsInkiOjM5NX0seyJ4Ijo5MDAuOTgwNDY4NzUsInkiOjQyMH0seyJ4Ijo5MDAuOTgwNDY4NzUsInkiOjQ0NX0seyJ4Ijo5MDAuOTgwNDY4NzUsInkiOjQ3MH0seyJ4Ijo5MDAuOTgwNDY4NzUsInkiOjQ5NX0seyJ4Ijo5MDEuNDgwNDY4NzUsInkiOjUzNi41NTQ4MzI0NTg0OTYxfV0=" marker-end="url(#container_flowchart-v2-pointEnd)"></path><path d="M901.48,599.555L901.397,606.314C901.314,613.073,901.147,626.591,901.064,639.517C900.98,652.443,900.98,664.776,912.874,680.548C924.767,696.32,948.554,715.53,960.447,725.135L972.34,734.74" id="L_CG_STREAM_0" class="edge-thickness-normal edge-pattern-solid edge-thickness-normal edge-pattern-solid flowchart-link" style=";" data-edge="true" data-et="edge" data-id="L_CG_STREAM_0" data-points="W3sieCI6OTAxLjQ4MDQ2ODc1LCJ5Ijo1OTkuNTU0ODMyNDU4NDk2MX0seyJ4Ijo5MDAuOTgwNDY4NzUsInkiOjY0MC4xMDk2NjQ5MTY5OTIyfSx7IngiOjkwMC45ODA0Njg3NSwieSI6Njc3LjEwOTY2NDkxNjk5MjJ9LHsieCI6OTc1LjQ1MjE2NTgxNDU3NjksInkiOjczNy4yNTMwMjg4Njk2Mjg4fV0=" marker-end="url(#container_flowchart-v2-pointEnd)"></path><path d="M646.971,370L638.9,374.167C630.828,378.333,614.686,386.667,606.614,395C598.543,403.333,598.543,411.667,598.543,420C598.543,428.333,598.543,436.667,598.543,445C598.543,453.333,598.543,461.667,598.543,470C598.543,478.333,598.543,486.667,568.529,499.776C538.515,512.886,478.487,530.771,448.473,539.714L418.458,548.657" id="L_IMPL_PART_0" class="edge-thickness-normal edge-pattern-solid edge-thickness-normal edge-pattern-solid flowchart-link" style=";" data-edge="true" data-et="edge" data-id="L_IMPL_PART_0" data-points="W3sieCI6NjQ2Ljk3MTA3ODcyNTk2MTUsInkiOjM3MH0seyJ4Ijo1OTguNTQyOTY4NzUsInkiOjM5NX0seyJ4Ijo1OTguNTQyOTY4NzUsInkiOjQyMH0seyJ4Ijo1OTguNTQyOTY4NzUsInkiOjQ0NX0seyJ4Ijo1OTguNTQyOTY4NzUsInkiOjQ3MH0seyJ4Ijo1OTguNTQyOTY4NzUsInkiOjQ5NX0seyJ4Ijo0MTQuNjI1LCJ5Ijo1NDkuNzk5MDUzMzc1NjQ1fV0=" marker-end="url(#container_flowchart-v2-pointEnd)"></path><path d="M657.356,370L650.887,374.167C644.418,378.333,631.481,386.667,625.012,395C618.543,403.333,618.543,411.667,618.543,420C618.543,428.333,618.543,436.667,618.543,445C618.543,453.333,618.543,461.667,618.543,470C618.543,478.333,618.543,486.667,618.543,502.926C618.543,519.185,618.543,543.37,618.543,567.555C618.543,591.74,618.543,615.925,618.543,634.184C618.543,652.443,618.543,664.776,570.118,680.777C521.692,696.777,424.841,716.445,376.416,726.279L327.99,736.113" id="L_IMPL_MAN_0" class="edge-thickness-normal edge-pattern-solid edge-thickness-normal edge-pattern-solid flowchart-link" style=";" data-edge="true" data-et="edge" data-id="L_IMPL_MAN_0" data-points="W3sieCI6NjU3LjM1NTY5NDExMDU3NjksInkiOjM3MH0seyJ4Ijo2MTguNTQyOTY4NzUsInkiOjM5NX0seyJ4Ijo2MTguNTQyOTY4NzUsInkiOjQyMH0seyJ4Ijo2MTguNTQyOTY4NzUsInkiOjQ0NX0seyJ4Ijo2MTguNTQyOTY4NzUsInkiOjQ3MH0seyJ4Ijo2MTguNTQyOTY4NzUsInkiOjQ5NX0seyJ4Ijo2MTguNTQyOTY4NzUsInkiOjU2Ny41NTQ4MzI0NTg0OTYxfSx7IngiOjYxOC41NDI5Njg3NSwieSI6NjQwLjEwOTY2NDkxNjk5MjJ9LHsieCI6NjE4LjU0Mjk2ODc1LCJ5Ijo2NzcuMTA5NjY0OTE2OTkyMn0seyJ4IjozMjQuMDcwMzEyNSwieSI6NzM2LjkwODgyOTkyMDU0NTV9XQ==" marker-end="url(#container_flowchart-v2-pointEnd)"></path><path d="M746.383,370L753.654,374.167C760.924,378.333,775.464,386.667,782.734,395C790.004,403.333,790.004,411.667,790.004,420C790.004,428.333,790.004,436.667,790.004,445C790.004,453.333,790.004,461.667,790.004,470C790.004,478.333,790.004,486.667,790.004,502.926C790.004,519.185,790.004,543.37,790.004,567.555C790.004,591.74,790.004,615.925,790.004,634.184C790.004,652.443,790.004,664.776,790.082,680.3C790.159,695.824,790.315,714.539,790.393,723.896L790.471,733.253" id="L_IMPL_DLQ_0" class="edge-thickness-normal edge-pattern-solid edge-thickness-normal edge-pattern-solid flowchart-link" style=";" data-edge="true" data-et="edge" data-id="L_IMPL_DLQ_0" data-points="W3sieCI6NzQ2LjM4MzQ4ODU4MTczMDcsInkiOjM3MH0seyJ4Ijo3OTAuMDAzOTA2MjUsInkiOjM5NX0seyJ4Ijo3OTAuMDAzOTA2MjUsInkiOjQyMH0seyJ4Ijo3OTAuMDAzOTA2MjUsInkiOjQ0NX0seyJ4Ijo3OTAuMDAzOTA2MjUsInkiOjQ3MH0seyJ4Ijo3OTAuMDAzOTA2MjUsInkiOjQ5NX0seyJ4Ijo3OTAuMDAzOTA2MjUsInkiOjU2Ny41NTQ4MzI0NTg0OTYxfSx7IngiOjc5MC4wMDM5MDYyNSwieSI6NjQwLjEwOTY2NDkxNjk5MjJ9LHsieCI6NzkwLjAwMzkwNjI1LCJ5Ijo2NzcuMTA5NjY0OTE2OTkyMn0seyJ4Ijo3OTAuNTAzOTA2MjUsInkiOjczNy4yNTMwMjg4Njk2Mjg5fV0=" marker-end="url(#container_flowchart-v2-pointEnd)"></path><path d="M228.813,615.11L228.813,619.276C228.813,623.443,228.813,631.776,228.813,642.11C228.813,652.443,228.813,664.776,228.813,676.443C228.813,688.11,228.813,699.11,228.813,704.61L228.813,710.11" id="L_PART_MAN_0" class="edge-thickness-normal edge-pattern-dotted edge-thickness-normal edge-pattern-solid flowchart-link" style=";" data-edge="true" data-et="edge" data-id="L_PART_MAN_0" data-points="W3sieCI6MjI4LjgxMjUsInkiOjYxNS4xMDk2NjQ5MTY5OTIyfSx7IngiOjIyOC44MTI1LCJ5Ijo2NDAuMTA5NjY0OTE2OTkyMn0seyJ4IjoyMjguODEyNSwieSI6Njc3LjEwOTY2NDkxNjk5MjJ9LHsieCI6MjI4LjgxMjUsInkiOjcxNC4xMDk2NjQ5MTY5OTIyfV0=" marker-end="url(#container_flowchart-v2-pointEnd)"></path></g><g class="edgeLabels"><g class="edgeLabel"><g class="label" data-id="L_OP_ORCH_0" transform="translate(0, 0)"><foreignObject width="0" height="0"><div xmlns="http://www.w3.org/1999/xhtml" class="labelBkg" style="display: table-cell; white-space: nowrap; line-height: 1.5; max-width: 200px; text-align: center;"><span class="edgeLabel"></span></div></foreignObject></g></g><g class="edgeLabel"><g class="label" data-id="L_OP_WRITER_0" transform="translate(0, 0)"><foreignObject width="0" height="0"><div xmlns="http://www.w3.org/1999/xhtml" class="labelBkg" style="display: table-cell; white-space: nowrap; line-height: 1.5; max-width: 200px; text-align: center;"><span class="edgeLabel"></span></div></foreignObject></g></g><g class="edgeLabel"><g class="label" data-id="L_ORCH_W1_0" transform="translate(0, 0)"><foreignObject width="0" height="0"><div xmlns="http://www.w3.org/1999/xhtml" class="labelBkg" style="display: table-cell; white-space: nowrap; line-height: 1.5; max-width: 200px; text-align: center;"><span class="edgeLabel"></span></div></foreignObject></g></g><g class="edgeLabel"><g class="label" data-id="L_ORCH_W2_0" transform="translate(0, 0)"><foreignObject width="0" height="0"><div xmlns="http://www.w3.org/1999/xhtml" class="labelBkg" style="display: table-cell; white-space: nowrap; line-height: 1.5; max-width: 200px; text-align: center;"><span class="edgeLabel"></span></div></foreignObject></g></g><g class="edgeLabel"><g class="label" data-id="L_ORCH_WN_0" transform="translate(0, 0)"><foreignObject width="0" height="0"><div xmlns="http://www.w3.org/1999/xhtml" class="labelBkg" style="display: table-cell; white-space: nowrap; line-height: 1.5; max-width: 200px; text-align: center;"><span class="edgeLabel"></span></div></foreignObject></g></g><g class="edgeLabel"><g class="label" data-id="L_BIN_W1_0" transform="translate(0, 0)"><foreignObject width="0" height="0"><div xmlns="http://www.w3.org/1999/xhtml" class="labelBkg" style="display: table-cell; white-space: nowrap; line-height: 1.5; max-width: 200px; text-align: center;"><span class="edgeLabel"></span></div></foreignObject></g></g><g class="edgeLabel"><g class="label" data-id="L_KRA_W2_0" transform="translate(0, 0)"><foreignObject width="0" height="0"><div xmlns="http://www.w3.org/1999/xhtml" class="labelBkg" style="display: table-cell; white-space: nowrap; line-height: 1.5; max-width: 200px; text-align: center;"><span class="edgeLabel"></span></div></foreignObject></g></g><g class="edgeLabel"><g class="label" data-id="L_OTH_WN_0" transform="translate(0, 0)"><foreignObject width="0" height="0"><div xmlns="http://www.w3.org/1999/xhtml" class="labelBkg" style="display: table-cell; white-space: nowrap; line-height: 1.5; max-width: 200px; text-align: center;"><span class="edgeLabel"></span></div></foreignObject></g></g><g class="edgeLabel"><g class="label" data-id="L_W1_STREAM_0" transform="translate(0, 0)"><foreignObject width="0" height="0"><div xmlns="http://www.w3.org/1999/xhtml" class="labelBkg" style="display: table-cell; white-space: nowrap; line-height: 1.5; max-width: 200px; text-align: center;"><span class="edgeLabel"></span></div></foreignObject></g></g><g class="edgeLabel"><g class="label" data-id="L_W2_STREAM_0" transform="translate(0, 0)"><foreignObject width="0" height="0"><div xmlns="http://www.w3.org/1999/xhtml" class="labelBkg" style="display: table-cell; white-space: nowrap; line-height: 1.5; max-width: 200px; text-align: center;"><span class="edgeLabel"></span></div></foreignObject></g></g><g class="edgeLabel"><g class="label" data-id="L_WN_STREAM_0" transform="translate(0, 0)"><foreignObject width="0" height="0"><div xmlns="http://www.w3.org/1999/xhtml" class="labelBkg" style="display: table-cell; white-space: nowrap; line-height: 1.5; max-width: 200px; text-align: center;"><span class="edgeLabel"></span></div></foreignObject></g></g><g class="edgeLabel"><g class="label" data-id="L_STREAM_REDIS_0" transform="translate(0, 0)"><foreignObject width="0" height="0"><div xmlns="http://www.w3.org/1999/xhtml" class="labelBkg" style="display: table-cell; white-space: nowrap; line-height: 1.5; max-width: 200px; text-align: center;"><span class="edgeLabel"></span></div></foreignObject></g></g><g class="edgeLabel"><g class="label" data-id="L_DLQ_REDIS_0" transform="translate(0, 0)"><foreignObject width="0" height="0"><div xmlns="http://www.w3.org/1999/xhtml" class="labelBkg" style="display: table-cell; white-space: nowrap; line-height: 1.5; max-width: 200px; text-align: center;"><span class="edgeLabel"></span></div></foreignObject></g></g><g class="edgeLabel"><g class="label" data-id="L_CG_REDIS_0" transform="translate(0, 0)"><foreignObject width="0" height="0"><div xmlns="http://www.w3.org/1999/xhtml" class="labelBkg" style="display: table-cell; white-space: nowrap; line-height: 1.5; max-width: 200px; text-align: center;"><span class="edgeLabel"></span></div></foreignObject></g></g><g class="edgeLabel"><g class="label" data-id="L_WRITER_IMPL_0" transform="translate(0, 0)"><foreignObject width="0" height="0"><div xmlns="http://www.w3.org/1999/xhtml" class="labelBkg" style="display: table-cell; white-space: nowrap; line-height: 1.5; max-width: 200px; text-align: center;"><span class="edgeLabel"></span></div></foreignObject></g></g><g class="edgeLabel"><g class="label" data-id="L_IMPL_CG_0" transform="translate(0, 0)"><foreignObject width="0" height="0"><div xmlns="http://www.w3.org/1999/xhtml" class="labelBkg" style="display: table-cell; white-space: nowrap; line-height: 1.5; max-width: 200px; text-align: center;"><span class="edgeLabel"></span></div></foreignObject></g></g><g class="edgeLabel"><g class="label" data-id="L_CG_STREAM_0" transform="translate(0, 0)"><foreignObject width="0" height="0"><div xmlns="http://www.w3.org/1999/xhtml" class="labelBkg" style="display: table-cell; white-space: nowrap; line-height: 1.5; max-width: 200px; text-align: center;"><span class="edgeLabel"></span></div></foreignObject></g></g><g class="edgeLabel"><g class="label" data-id="L_IMPL_PART_0" transform="translate(0, 0)"><foreignObject width="0" height="0"><div xmlns="http://www.w3.org/1999/xhtml" class="labelBkg" style="display: table-cell; white-space: nowrap; line-height: 1.5; max-width: 200px; text-align: center;"><span class="edgeLabel"></span></div></foreignObject></g></g><g class="edgeLabel"><g class="label" data-id="L_IMPL_MAN_0" transform="translate(0, 0)"><foreignObject width="0" height="0"><div xmlns="http://www.w3.org/1999/xhtml" class="labelBkg" style="display: table-cell; white-space: nowrap; line-height: 1.5; max-width: 200px; text-align: center;"><span class="edgeLabel"></span></div></foreignObject></g></g><g class="edgeLabel"><g class="label" data-id="L_IMPL_DLQ_0" transform="translate(0, 0)"><foreignObject width="0" height="0"><div xmlns="http://www.w3.org/1999/xhtml" class="labelBkg" style="display: table-cell; white-space: nowrap; line-height: 1.5; max-width: 200px; text-align: center;"><span class="edgeLabel"></span></div></foreignObject></g></g><g class="edgeLabel" transform="translate(228.8125, 677.1096649169922)"><g class="label" data-id="L_PART_MAN_0" transform="translate(-74.3046875, -12)"><foreignObject width="148.609375" height="24"><div xmlns="http://www.w3.org/1999/xhtml" class="labelBkg" style="display: table-cell; white-space: nowrap; line-height: 1.5; max-width: 200px; text-align: center;"><span class="edgeLabel"><p>hourly partition files</p></span></div></foreignObject></g></g></g><g class="nodes"><g class="node default" id="flowchart-BIN-0" transform="translate(2606.69140625, 343)"><polygon points="0,0 98.765625,0 98.765625,-39 0,-39 0,0 -8,0 106.765625,0 106.765625,-39 -8,-39 -8,0" class="label-container" transform="translate(-49.3828125,19.5)"></polygon><g class="label" style="" transform="translate(-41.8828125, -12)"><rect></rect><foreignObject width="83.765625" height="24"><div xmlns="http://www.w3.org/1999/xhtml" style="display: table-cell; white-space: nowrap; line-height: 1.5; max-width: 200px; text-align: center;"><span class="nodeLabel"><p>Binance WS</p></span></div></foreignObject></g></g><g class="node default" id="flowchart-KRA-1" transform="translate(2445.85546875, 343)"><polygon points="0,0 90.90625,0 90.90625,-39 0,-39 0,0 -8,0 98.90625,0 98.90625,-39 -8,-39 -8,0" class="label-container" transform="translate(-45.453125,19.5)"></polygon><g class="label" style="" transform="translate(-37.953125, -12)"><rect></rect><foreignObject width="75.90625" height="24"><div xmlns="http://www.w3.org/1999/xhtml" style="display: table-cell; white-space: nowrap; line-height: 1.5; max-width: 200px; text-align: center;"><span class="nodeLabel"><p>Kraken WS</p></span></div></foreignObject></g></g><g class="node default" id="flowchart-OTH-2" transform="translate(2247.10546875, 343)"><polygon points="0,0 174.59375,0 174.59375,-39 0,-39 0,0 -8,0 182.59375,0 182.59375,-39 -8,-39 -8,0" class="label-container" transform="translate(-87.296875,19.5)"></polygon><g class="label" style="" transform="translate(-79.796875, -12)"><rect></rect><foreignObject width="159.59375" height="24"><div xmlns="http://www.w3.org/1999/xhtml" style="display: table-cell; white-space: nowrap; line-height: 1.5; max-width: 200px; text-align: center;"><span class="nodeLabel"><p>Other CCXT Exchanges</p></span></div></foreignObject></g></g><g class="node default" id="flowchart-OP-3" transform="translate(1105.17578125, 60)"><rect class="basic label-container" style="" x="-107.1640625" y="-27" width="214.328125" height="54"></rect><g class="label" style="" transform="translate(-77.1640625, -12)"><rect></rect><foreignObject width="154.328125" height="24"><div xmlns="http://www.w3.org/1999/xhtml" style="display: table-cell; white-space: nowrap; line-height: 1.5; max-width: 200px; text-align: center;"><span class="nodeLabel"><p>Operator / Scheduler</p></span></div></foreignObject></g></g><g class="node default" id="flowchart-ORCH-4" transform="translate(1736.06640625, 343)"><rect class="basic label-container" style="" x="-151.484375" y="-27" width="302.96875" height="54"></rect><g class="label" style="" transform="translate(-121.484375, -12)"><rect></rect><foreignObject width="242.96875" height="24"><div xmlns="http://www.w3.org/1999/xhtml" style="display: table; white-space: break-spaces; line-height: 1.5; max-width: 200px; text-align: center; width: 200px;"><span class="nodeLabel"><p>orchestrator_redis_auto_shard.py</p></span></div></foreignObject></g></g><g class="node default" id="flowchart-W1-5" transform="translate(1911.80859375, 567.5548324584961)"><rect class="basic label-container" style="" x="-130" y="-39" width="260" height="78"></rect><g class="label" style="" transform="translate(-100, -24)"><rect></rect><foreignObject width="200" height="48"><div xmlns="http://www.w3.org/1999/xhtml" style="display: table; white-space: break-spaces; line-height: 1.5; max-width: 200px; text-align: center; width: 200px;"><span class="nodeLabel"><p>worker_0 ccxt_to_redis_stream.py</p></span></div></foreignObject></g></g><g class="node default" id="flowchart-W2-6" transform="translate(1601.80859375, 567.5548324584961)"><rect class="basic label-container" style="" x="-130" y="-39" width="260" height="78"></rect><g class="label" style="" transform="translate(-100, -24)"><rect></rect><foreignObject width="200" height="48"><div xmlns="http://www.w3.org/1999/xhtml" style="display: table; white-space: break-spaces; line-height: 1.5; max-width: 200px; text-align: center; width: 200px;"><span class="nodeLabel"><p>worker_1 ccxt_to_redis_stream.py</p></span></div></foreignObject></g></g><g class="node default" id="flowchart-WN-7" transform="translate(1291.80859375, 567.5548324584961)"><rect class="basic label-container" style="" x="-130" y="-39" width="260" height="78"></rect><g class="label" style="" transform="translate(-100, -24)"><rect></rect><foreignObject width="200" height="48"><div xmlns="http://www.w3.org/1999/xhtml" style="display: table; white-space: break-spaces; line-height: 1.5; max-width: 200px; text-align: center; width: 200px;"><span class="nodeLabel"><p>worker_n ccxt_to_redis_stream.py</p></span></div></foreignObject></g></g><g class="node default" id="flowchart-REDIS-8" transform="translate(840.99609375, 912.7886924743652)"><path d="M0,13.261533043784482 a70.609375,13.261533043784482 0,0,0 141.21875,0 a70.609375,13.261533043784482 0,0,0 -141.21875,0 l0,52.26153304378448 a70.609375,13.261533043784482 0,0,0 141.21875,0 l0,-52.26153304378448" class="basic label-container" style="" transform="translate(-70.609375, -39.39229956567672)"></path><g class="label" style="" transform="translate(-63.109375, -2)"><rect></rect><foreignObject width="126.21875" height="24"><div xmlns="http://www.w3.org/1999/xhtml" style="display: table-cell; white-space: nowrap; line-height: 1.5; max-width: 200px; text-align: center;"><span class="nodeLabel"><p>Redis 8 container</p></span></div></foreignObject></g></g><g class="node default" id="flowchart-STREAM-9" transform="translate(999.13671875, 756.2530288696289)"><polygon points="0,0 129.34375,0 129.34375,-39 0,-39 0,0 -8,0 137.34375,0 137.34375,-39 -8,-39 -8,0" class="label-container" transform="translate(-64.671875,19.5)"></polygon><g class="label" style="" transform="translate(-57.171875, -12)"><rect></rect><foreignObject width="114.34375" height="24"><div xmlns="http://www.w3.org/1999/xhtml" style="display: table-cell; white-space: nowrap; line-height: 1.5; max-width: 200px; text-align: center;"><span class="nodeLabel"><p>ingest:events:v1</p></span></div></foreignObject></g></g><g class="node default" id="flowchart-DLQ-10" transform="translate(790.00390625, 756.2530288696289)"><polygon points="0,0 156.921875,0 156.921875,-39 0,-39 0,0 -8,0 164.921875,0 164.921875,-39 -8,-39 -8,0" class="label-container" transform="translate(-78.4609375,19.5)"></polygon><g class="label" style="" transform="translate(-70.9609375, -12)"><rect></rect><foreignObject width="141.921875" height="24"><div xmlns="http://www.w3.org/1999/xhtml" style="display: table-cell; white-space: nowrap; line-height: 1.5; max-width: 200px; text-align: center;"><span class="nodeLabel"><p>ingest:events:dlq:v1</p></span></div></foreignObject></g></g><g class="node default" id="flowchart-CG-11" transform="translate(900.98046875, 567.5548324584961)"><polygon points="0,0 135.953125,0 135.953125,-63 0,-63 0,0 -8,0 143.953125,0 143.953125,-63 -8,-63 -8,0" class="label-container" transform="translate(-67.9765625,31.5)"></polygon><g class="label" style="" transform="translate(-60.4765625, -24)"><rect></rect><foreignObject width="120.953125" height="48"><div xmlns="http://www.w3.org/1999/xhtml" style="display: table-cell; white-space: nowrap; line-height: 1.5; max-width: 200px; text-align: center;"><span class="nodeLabel"><p>Consumer Group<br/>cg.vault_writer</p></span></div></foreignObject></g></g><g class="node default" id="flowchart-WRITER-12" transform="translate(699.2734375, 189)"><rect class="basic label-container" style="" x="-145.4296875" y="-27" width="290.859375" height="54"></rect><g class="label" style="" transform="translate(-115.4296875, -12)"><rect></rect><foreignObject width="230.859375" height="24"><div xmlns="http://www.w3.org/1999/xhtml" style="display: table; white-space: break-spaces; line-height: 1.5; max-width: 200px; text-align: center; width: 200px;"><span class="nodeLabel"><p>redis_stream_to_vault_writer.py</p></span></div></foreignObject></g></g><g class="node default" id="flowchart-IMPL-13" transform="translate(699.2734375, 343)"><rect class="basic label-container" style="" x="-162.8359375" y="-27" width="325.671875" height="54"></rect><g class="label" style="" transform="translate(-132.8359375, -12)"><rect></rect><foreignObject width="265.671875" height="24"><div xmlns="http://www.w3.org/1999/xhtml" style="display: table; white-space: break-spaces; line-height: 1.5; max-width: 200px; text-align: center; width: 200px;"><span class="nodeLabel"><p>poc_redis_stream_to_vault_writer.py</p></span></div></foreignObject></g></g><g class="node default" id="flowchart-MAN-14" transform="translate(228.8125, 756.2530288696289)"><path d="M0,15.09557767543208 a95.2578125,15.09557767543208 0,0,0 190.515625,0 a95.2578125,15.09557767543208 0,0,0 -190.515625,0 l0,54.09557767543208 a95.2578125,15.09557767543208 0,0,0 190.515625,0 l0,-54.09557767543208" class="basic label-container" style="" transform="translate(-95.2578125, -42.14336651314812)"></path><g class="label" style="" transform="translate(-87.7578125, -2)"><rect></rect><foreignObject width="175.515625" height="24"><div xmlns="http://www.w3.org/1999/xhtml" style="display: table-cell; white-space: nowrap; line-height: 1.5; max-width: 200px; text-align: center;"><span class="nodeLabel"><p>meta/vault_manifest.db</p></span></div></foreignObject></g></g><g class="node default" id="flowchart-PART-15" transform="translate(228.8125, 567.5548324584961)"><path d="M0,18.70752579914422 a185.8125,18.70752579914422 0,0,0 371.625,0 a185.8125,18.70752579914422 0,0,0 -371.625,0 l0,57.70752579914422 a185.8125,18.70752579914422 0,0,0 371.625,0 l0,-57.70752579914422" class="basic label-container" style="" transform="translate(-185.8125, -47.56128869871633)"></path><g class="label" style="" transform="translate(-178.3125, -2)"><rect></rect><foreignObject width="356.625" height="24"><div xmlns="http://www.w3.org/1999/xhtml" style="display: table; white-space: break-spaces; line-height: 1.5; max-width: 200px; text-align: center; width: 200px;"><span class="nodeLabel"><p>ingestion/exchange=.../date=.../hour=.../part_*.db</p></span></div></foreignObject></g></g></g></g></g></svg>