<svg id="container" width="2567" xmlns="http://www.w3.org/2000/svg" height="1813" viewBox="-50 -10 2567 1813" role="graphics-document document" aria-roledescription="sequence"><g><rect x="2234" y="1727" fill="#eaeaea" stroke="#666" width="233" height="65" name="DBN" rx="3" ry="3" class="actor actor-bottom"></rect><text x="2350.5" y="1759.5" dominant-baseline="central" alignment-baseline="central" class="actor actor-box" style="text-anchor: middle; font-size: 16px; font-weight: 400;"><tspan x="2350.5" dy="0">worker_N_crypto_ws_ticks.db</tspan></text></g><g><rect x="1954" y="1727" fill="#eaeaea" stroke="#666" width="230" height="65" name="DB2" rx="3" ry="3" class="actor actor-bottom"></rect><text x="2069" y="1759.5" dominant-baseline="central" alignment-baseline="central" class="actor actor-box" style="text-anchor: middle; font-size: 16px; font-weight: 400;"><tspan x="2069" dy="0">worker_2_crypto_ws_ticks.db</tspan></text></g><g><rect x="1677" y="1727" fill="#eaeaea" stroke="#666" width="227" height="65" name="DB1" rx="3" ry="3" class="actor actor-bottom"></rect><text x="1790.5" y="1759.5" dominant-baseline="central" alignment-baseline="central" class="actor actor-box" style="text-anchor: middle; font-size: 16px; font-weight: 400;"><tspan x="1790.5" dy="0">worker_1_crypto_ws_ticks.db</tspan></text></g><g><rect x="1477" y="1727" fill="#eaeaea" stroke="#666" width="150" height="65" name="WN" rx="3" ry="3" class="actor actor-bottom"></rect><text x="1552" y="1759.5" dominant-baseline="central" alignment-baseline="central" class="actor actor-box" style="text-anchor: middle; font-size: 16px; font-weight: 400;"><tspan x="1552" dy="0">Worker N Process</tspan></text></g><g><rect x="1277" y="1727" fill="#eaeaea" stroke="#666" width="150" height="65" name="W2" rx="3" ry="3" class="actor actor-bottom"></rect><text x="1352" y="1759.5" dominant-baseline="central" alignment-baseline="central" class="actor actor-box" style="text-anchor: middle; font-size: 16px; font-weight: 400;"><tspan x="1352" dy="0">Worker 2 Process</tspan></text></g><g><rect x="1077" y="1727" fill="#eaeaea" stroke="#666" width="150" height="65" name="W1" rx="3" ry="3" class="actor actor-bottom"></rect><text x="1152" y="1759.5" dominant-baseline="central" alignment-baseline="central" class="actor actor-box" style="text-anchor: middle; font-size: 16px; font-weight: 400;"><tspan x="1152" dy="0">Worker 1 Process</tspan></text></g><g><rect x="844" y="1727" fill="#eaeaea" stroke="#666" width="183" height="65" name="PLAN" rx="3" ry="3" class="actor actor-bottom"></rect><text x="935.5" y="1759.5" dominant-baseline="central" alignment-baseline="central" class="actor actor-box" style="text-anchor: middle; font-size: 16px; font-weight: 400;"><tspan x="935.5" dy="0">orchestrator_plan.json</tspan></text></g><g><rect x="644" y="1727" fill="#eaeaea" stroke="#666" width="150" height="65" name="CCXT" rx="3" ry="3" class="actor actor-bottom"></rect><text x="719" y="1759.5" dominant-baseline="central" alignment-baseline="central" class="actor actor-box" style="text-anchor: middle; font-size: 16px; font-weight: 400;"><tspan x="719" dy="0">ccxt.pro</tspan></text></g><g><rect x="252.5" y="1727" fill="#eaeaea" stroke="#666" width="219" height="65" name="ORCH" rx="3" ry="3" class="actor actor-bottom"></rect><text x="362" y="1759.5" dominant-baseline="central" alignment-baseline="central" class="actor actor-box" style="text-anchor: middle; font-size: 16px; font-weight: 400;"><tspan x="362" dy="0">orchestrator_auto_shard.py</tspan></text></g><g></g><g><line id="actor9" x1="2350.5" y1="65" x2="2350.5" y2="1727" class="actor-line 200" stroke-width="0.5px" stroke="#999" name="DBN"></line><g id="root-9"><rect x="2234" y="0" fill="#eaeaea" stroke="#666" width="233" height="65" name="DBN" rx="3" ry="3" class="actor actor-top"></rect><text x="2350.5" y="32.5" dominant-baseline="central" alignment-baseline="central" class="actor actor-box" style="text-anchor: middle; font-size: 16px; font-weight: 400;"><tspan x="2350.5" dy="0">worker_N_crypto_ws_ticks.db</tspan></text></g></g><g><line id="actor8" x1="2069" y1="65" x2="2069" y2="1727" class="actor-line 200" stroke-width="0.5px" stroke="#999" name="DB2"></line><g id="root-8"><rect x="1954" y="0" fill="#eaeaea" stroke="#666" width="230" height="65" name="DB2" rx="3" ry="3" class="actor actor-top"></rect><text x="2069" y="32.5" dominant-baseline="central" alignment-baseline="central" class="actor actor-box" style="text-anchor: middle; font-size: 16px; font-weight: 400;"><tspan x="2069" dy="0">worker_2_crypto_ws_ticks.db</tspan></text></g></g><g><line id="actor7" x1="1790.5" y1="65" x2="1790.5" y2="1727" class="actor-line 200" stroke-width="0.5px" stroke="#999" name="DB1"></line><g id="root-7"><rect x="1677" y="0" fill="#eaeaea" stroke="#666" width="227" height="65" name="DB1" rx="3" ry="3" class="actor actor-top"></rect><text x="1790.5" y="32.5" dominant-baseline="central" alignment-baseline="central" class="actor actor-box" style="text-anchor: middle; font-size: 16px; font-weight: 400;"><tspan x="1790.5" dy="0">worker_1_crypto_ws_ticks.db</tspan></text></g></g><g><line id="actor6" x1="1552" y1="65" x2="1552" y2="1727" class="actor-line 200" stroke-width="0.5px" stroke="#999" name="WN"></line><g id="root-6"><rect x="1477" y="0" fill="#eaeaea" stroke="#666" width="150" height="65" name="WN" rx="3" ry="3" class="actor actor-top"></rect><text x="1552" y="32.5" dominant-baseline="central" alignment-baseline="central" class="actor actor-box" style="text-anchor: middle; font-size: 16px; font-weight: 400;"><tspan x="1552" dy="0">Worker N Process</tspan></text></g></g><g><line id="actor5" x1="1352" y1="65" x2="1352" y2="1727" class="actor-line 200" stroke-width="0.5px" stroke="#999" name="W2"></line><g id="root-5"><rect x="1277" y="0" fill="#eaeaea" stroke="#666" width="150" height="65" name="W2" rx="3" ry="3" class="actor actor-top"></rect><text x="1352" y="32.5" dominant-baseline="central" alignment-baseline="central" class="actor actor-box" style="text-anchor: middle; font-size: 16px; font-weight: 400;"><tspan x="1352" dy="0">Worker 2 Process</tspan></text></g></g><g><line id="actor4" x1="1152" y1="65" x2="1152" y2="1727" class="actor-line 200" stroke-width="0.5px" stroke="#999" name="W1"></line><g id="root-4"><rect x="1077" y="0" fill="#eaeaea" stroke="#666" width="150" height="65" name="W1" rx="3" ry="3" class="actor actor-top"></rect><text x="1152" y="32.5" dominant-baseline="central" alignment-baseline="central" class="actor actor-box" style="text-anchor: middle; font-size: 16px; font-weight: 400;"><tspan x="1152" dy="0">Worker 1 Process</tspan></text></g></g><g><line id="actor3" x1="935.5" y1="65" x2="935.5" y2="1727" class="actor-line 200" stroke-width="0.5px" stroke="#999" name="PLAN"></line><g id="root-3"><rect x="844" y="0" fill="#eaeaea" stroke="#666" width="183" height="65" name="PLAN" rx="3" ry="3" class="actor actor-top"></rect><text x="935.5" y="32.5" dominant-baseline="central" alignment-baseline="central" class="actor actor-box" style="text-anchor: middle; font-size: 16px; font-weight: 400;"><tspan x="935.5" dy="0">orchestrator_plan.json</tspan></text></g></g><g><line id="actor2" x1="719" y1="65" x2="719" y2="1727" class="actor-line 200" stroke-width="0.5px" stroke="#999" name="CCXT"></line><g id="root-2"><rect x="644" y="0" fill="#eaeaea" stroke="#666" width="150" height="65" name="CCXT" rx="3" ry="3" class="actor actor-top"></rect><text x="719" y="32.5" dominant-baseline="central" alignment-baseline="central" class="actor actor-box" style="text-anchor: middle; font-size: 16px; font-weight: 400;"><tspan x="719" dy="0">ccxt.pro</tspan></text></g></g><g><line id="actor1" x1="362" y1="65" x2="362" y2="1727" class="actor-line 200" stroke-width="0.5px" stroke="#999" name="ORCH"></line><g id="root-1"><rect x="252.5" y="0" fill="#eaeaea" stroke="#666" width="219" height="65" name="ORCH" rx="3" ry="3" class="actor actor-top"></rect><text x="362" y="32.5" dominant-baseline="central" alignment-baseline="central" class="actor actor-box" style="text-anchor: middle; font-size: 16px; font-weight: 400;"><tspan x="362" dy="0">orchestrator_auto_shard.py</tspan></text></g></g><g><line id="actor0" x1="75" y1="80" x2="75" y2="1727" class="actor-line 200" stroke-width="0.5px" stroke="#999" name="OP"></line></g><style>#container{font-family:"trebuchet ms",verdana,arial,sans-serif;font-size:16px;fill:#333;}@keyframes edge-animation-frame{from{stroke-dashoffset:0;}}@keyframes dash{to{stroke-dashoffset:0;}}#container .edge-animation-slow{stroke-dasharray:9,5!important;stroke-dashoffset:900;animation:dash 50s linear infinite;stroke-linecap:round;}#container .edge-animation-fast{stroke-dasharray:9,5!important;stroke-dashoffset:900;animation:dash 20s linear infinite;stroke-linecap:round;}#container .error-icon{fill:#552222;}#container .error-text{fill:#552222;stroke:#552222;}#container .edge-thickness-normal{stroke-width:1px;}#container .edge-thickness-thick{stroke-width:3.5px;}#container .edge-pattern-solid{stroke-dasharray:0;}#container .edge-thickness-invisible{stroke-width:0;fill:none;}#container .edge-pattern-dashed{stroke-dasharray:3;}#container .edge-pattern-dotted{stroke-dasharray:2;}#container .marker{fill:#333333;stroke:#333333;}#container .marker.cross{stroke:#333333;}#container svg{font-family:"trebuchet ms",verdana,arial,sans-serif;font-size:16px;}#container p{margin:0;}#container .actor{stroke:hsl(259.6261682243, 59.7765363128%, 87.9019607843%);fill:#ECECFF;}#container text.actor&gt;tspan{fill:black;stroke:none;}#container .actor-line{stroke:hsl(259.6261682243, 59.7765363128%, 87.9019607843%);}#container .innerArc{stroke-width:1.5;stroke-dasharray:none;}#container .messageLine0{stroke-width:1.5;stroke-dasharray:none;stroke:#333;}#container .messageLine1{stroke-width:1.5;stroke-dasharray:2,2;stroke:#333;}#container #arrowhead path{fill:#333;stroke:#333;}#container .sequenceNumber{fill:white;}#container #sequencenumber{fill:#333;}#container #crosshead path{fill:#333;stroke:#333;}#container .messageText{fill:#333;stroke:none;}#container .labelBox{stroke:hsl(259.6261682243, 59.7765363128%, 87.9019607843%);fill:#ECECFF;}#container .labelText,#container .labelText&gt;tspan{fill:black;stroke:none;}#container .loopText,#container .loopText&gt;tspan{fill:black;stroke:none;}#container .loopLine{stroke-width:2px;stroke-dasharray:2,2;stroke:hsl(259.6261682243, 59.7765363128%, 87.9019607843%);fill:hsl(259.6261682243, 59.7765363128%, 87.9019607843%);}#container .note{stroke:#aaaa33;fill:#fff5ad;}#container .noteText,#container .noteText&gt;tspan{fill:black;stroke:none;}#container .activation0{fill:#f4f4f4;stroke:#666;}#container .activation1{fill:#f4f4f4;stroke:#666;}#container .activation2{fill:#f4f4f4;stroke:#666;}#container .actorPopupMenu{position:absolute;}#container .actorPopupMenuPanel{position:absolute;fill:#ECECFF;box-shadow:0px 8px 16px 0px rgba(0,0,0,0.2);filter:drop-shadow(3px 5px 2px rgb(0 0 0 / 0.4));}#container .actor-man line{stroke:hsl(259.6261682243, 59.7765363128%, 87.9019607843%);fill:#ECECFF;}#container .actor-man circle,#container line{stroke:hsl(259.6261682243, 59.7765363128%, 87.9019607843%);fill:#ECECFF;stroke-width:2px;}#container :root{--mermaid-font-family:"trebuchet ms",verdana,arial,sans-serif;}</style><g></g><defs><symbol id="computer" width="24" height="24"><path transform="scale(.5)" d="M2 2v13h20v-13h-20zm18 11h-16v-9h16v9zm-10.228 6l.466-1h3.524l.467 1h-4.457zm14.228 3h-24l2-6h2.104l-1.33 4h18.45l-1.297-4h2.073l2 6zm-5-10h-14v-7h14v7z"></path></symbol></defs><defs><symbol id="database" fill-rule="evenodd" clip-rule="evenodd"><path transform="scale(.5)" d="M12.258.001l.256.004.255.005.253.008.251.01.249.012.247.015.246.016.242.019.241.02.239.023.236.024.233.027.231.028.229.031.225.032.223.034.22.036.217.038.214.04.211.041.208.043.205.045.201.046.198.048.194.05.191.051.187.053.183.054.18.056.175.057.172.059.168.06.163.061.16.063.155.064.15.066.074.033.073.033.071.034.07.034.069.035.068.035.067.035.066.035.064.036.064.036.062.036.06.036.06.037.058.037.058.037.055.038.055.038.053.038.052.038.051.039.05.039.048.039.047.039.045.04.044.04.043.04.041.04.04.041.039.041.037.041.036.041.034.041.033.042.032.042.03.042.029.042.027.042.026.043.024.043.023.043.021.043.02.043.018.044.017.043.015.044.013.044.012.044.011.045.009.044.007.045.006.045.004.045.002.045.001.045v17l-.001.045-.002.045-.004.045-.006.045-.007.045-.009.044-.011.045-.012.044-.013.044-.015.044-.017.043-.018.044-.02.043-.021.043-.023.043-.024.043-.026.043-.027.042-.029.042-.03.042-.032.042-.033.042-.034.041-.036.041-.037.041-.039.041-.04.041-.041.04-.043.04-.044.04-.045.04-.047.039-.048.039-.05.039-.051.039-.052.038-.053.038-.055.038-.055.038-.058.037-.058.037-.06.037-.06.036-.062.036-.064.036-.064.036-.066.035-.067.035-.068.035-.069.035-.07.034-.071.034-.073.033-.074.033-.15.066-.155.064-.16.063-.163.061-.168.06-.172.059-.175.057-.18.056-.183.054-.187.053-.191.051-.194.05-.198.048-.201.046-.205.045-.208.043-.211.041-.214.04-.217.038-.22.036-.223.034-.225.032-.229.031-.231.028-.233.027-.236.024-.239.023-.241.02-.242.019-.246.016-.247.015-.249.012-.251.01-.253.008-.255.005-.256.004-.258.001-.258-.001-.256-.004-.255-.005-.253-.008-.251-.01-.249-.012-.247-.015-.245-.016-.243-.019-.241-.02-.238-.023-.236-.024-.234-.027-.231-.028-.228-.031-.226-.032-.223-.034-.22-.036-.217-.038-.214-.04-.211-.041-.208-.043-.204-.045-.201-.046-.198-.048-.195-.05-.19-.051-.187-.053-.184-.054-.179-.056-.176-.057-.172-.059-.167-.06-.164-.061-.159-.063-.155-.064-.151-.066-.074-.033-.072-.033-.072-.034-.07-.034-.069-.035-.068-.035-.067-.035-.066-.035-.064-.036-.063-.036-.062-.036-.061-.036-.06-.037-.058-.037-.057-.037-.056-.038-.055-.038-.053-.038-.052-.038-.051-.039-.049-.039-.049-.039-.046-.039-.046-.04-.044-.04-.043-.04-.041-.04-.04-.041-.039-.041-.037-.041-.036-.041-.034-.041-.033-.042-.032-.042-.03-.042-.029-.042-.027-.042-.026-.043-.024-.043-.023-.043-.021-.043-.02-.043-.018-.044-.017-.043-.015-.044-.013-.044-.012-.044-.011-.045-.009-.044-.007-.045-.006-.045-.004-.045-.002-.045-.001-.045v-17l.001-.045.002-.045.004-.045.006-.045.007-.045.009-.044.011-.045.012-.044.013-.044.015-.044.017-.043.018-.044.02-.043.021-.043.023-.043.024-.043.026-.043.027-.042.029-.042.03-.042.032-.042.033-.042.034-.041.036-.041.037-.041.039-.041.04-.041.041-.04.043-.04.044-.04.046-.04.046-.039.049-.039.049-.039.051-.039.052-.038.053-.038.055-.038.056-.038.057-.037.058-.037.06-.037.061-.036.062-.036.063-.036.064-.036.066-.035.067-.035.068-.035.069-.035.07-.034.072-.034.072-.033.074-.033.151-.066.155-.064.159-.063.164-.061.167-.06.172-.059.176-.057.179-.056.184-.054.187-.053.19-.051.195-.05.198-.048.201-.046.204-.045.208-.043.211-.041.214-.04.217-.038.22-.036.223-.034.226-.032.228-.031.231-.028.234-.027.236-.024.238-.023.241-.02.243-.019.245-.016.247-.015.249-.012.251-.01.253-.008.255-.005.256-.004.258-.001.258.001zm-9.258 20.499v.01l.001.021.003.021.004.022.005.021.006.022.007.022.009.023.01.022.011.023.012.023.013.023.015.023.016.024.017.023.018.024.019.024.021.024.022.025.023.024.024.025.052.049.056.05.061.051.066.051.07.051.075.051.079.052.084.052.088.052.092.052.097.052.102.051.105.052.11.052.114.051.119.051.123.051.127.05.131.05.135.05.139.048.144.049.147.047.152.047.155.047.16.045.163.045.167.043.171.043.176.041.178.041.183.039.187.039.19.037.194.035.197.035.202.033.204.031.209.03.212.029.216.027.219.025.222.024.226.021.23.02.233.018.236.016.24.015.243.012.246.01.249.008.253.005.256.004.259.001.26-.001.257-.004.254-.005.25-.008.247-.011.244-.012.241-.014.237-.016.233-.018.231-.021.226-.021.224-.024.22-.026.216-.027.212-.028.21-.031.205-.031.202-.034.198-.034.194-.036.191-.037.187-.039.183-.04.179-.04.175-.042.172-.043.168-.044.163-.045.16-.046.155-.046.152-.047.148-.048.143-.049.139-.049.136-.05.131-.05.126-.05.123-.051.118-.052.114-.051.11-.052.106-.052.101-.052.096-.052.092-.052.088-.053.083-.051.079-.052.074-.052.07-.051.065-.051.06-.051.056-.05.051-.05.023-.024.023-.025.021-.024.02-.024.019-.024.018-.024.017-.024.015-.023.014-.024.013-.023.012-.023.01-.023.01-.022.008-.022.006-.022.006-.022.004-.022.004-.021.001-.021.001-.021v-4.127l-.077.055-.08.053-.083.054-.085.053-.087.052-.09.052-.093.051-.095.05-.097.05-.1.049-.102.049-.105.048-.106.047-.109.047-.111.046-.114.045-.115.045-.118.044-.12.043-.122.042-.124.042-.126.041-.128.04-.13.04-.132.038-.134.038-.135.037-.138.037-.139.035-.142.035-.143.034-.144.033-.147.032-.148.031-.15.03-.151.03-.153.029-.154.027-.156.027-.158.026-.159.025-.161.024-.162.023-.163.022-.165.021-.166.02-.167.019-.169.018-.169.017-.171.016-.173.015-.173.014-.175.013-.175.012-.177.011-.178.01-.179.008-.179.008-.181.006-.182.005-.182.004-.184.003-.184.002h-.37l-.184-.002-.184-.003-.182-.004-.182-.005-.181-.006-.179-.008-.179-.008-.178-.01-.176-.011-.176-.012-.175-.013-.173-.014-.172-.015-.171-.016-.17-.017-.169-.018-.167-.019-.166-.02-.165-.021-.163-.022-.162-.023-.161-.024-.159-.025-.157-.026-.156-.027-.155-.027-.153-.029-.151-.03-.15-.03-.148-.031-.146-.032-.145-.033-.143-.034-.141-.035-.14-.035-.137-.037-.136-.037-.134-.038-.132-.038-.13-.04-.128-.04-.126-.041-.124-.042-.122-.042-.12-.044-.117-.043-.116-.045-.113-.045-.112-.046-.109-.047-.106-.047-.105-.048-.102-.049-.1-.049-.097-.05-.095-.05-.093-.052-.09-.051-.087-.052-.085-.053-.083-.054-.08-.054-.077-.054v4.127zm0-5.654v.011l.001.021.003.021.004.021.005.022.006.022.007.022.009.022.01.022.011.023.012.023.013.023.015.024.016.023.017.024.018.024.019.024.021.024.022.024.023.025.024.024.052.05.056.05.061.05.066.051.07.051.075.052.079.051.084.052.088.052.092.052.097.052.102.052.105.052.11.051.114.051.119.052.123.05.127.051.131.05.135.049.139.049.144.048.147.048.152.047.155.046.16.045.163.045.167.044.171.042.176.042.178.04.183.04.187.038.19.037.194.036.197.034.202.033.204.032.209.03.212.028.216.027.219.025.222.024.226.022.23.02.233.018.236.016.24.014.243.012.246.01.249.008.253.006.256.003.259.001.26-.001.257-.003.254-.006.25-.008.247-.01.244-.012.241-.015.237-.016.233-.018.231-.02.226-.022.224-.024.22-.025.216-.027.212-.029.21-.03.205-.032.202-.033.198-.035.194-.036.191-.037.187-.039.183-.039.179-.041.175-.042.172-.043.168-.044.163-.045.16-.045.155-.047.152-.047.148-.048.143-.048.139-.05.136-.049.131-.05.126-.051.123-.051.118-.051.114-.052.11-.052.106-.052.101-.052.096-.052.092-.052.088-.052.083-.052.079-.052.074-.051.07-.052.065-.051.06-.05.056-.051.051-.049.023-.025.023-.024.021-.025.02-.024.019-.024.018-.024.017-.024.015-.023.014-.023.013-.024.012-.022.01-.023.01-.023.008-.022.006-.022.006-.022.004-.021.004-.022.001-.021.001-.021v-4.139l-.077.054-.08.054-.083.054-.085.052-.087.053-.09.051-.093.051-.095.051-.097.05-.1.049-.102.049-.105.048-.106.047-.109.047-.111.046-.114.045-.115.044-.118.044-.12.044-.122.042-.124.042-.126.041-.128.04-.13.039-.132.039-.134.038-.135.037-.138.036-.139.036-.142.035-.143.033-.144.033-.147.033-.148.031-.15.03-.151.03-.153.028-.154.028-.156.027-.158.026-.159.025-.161.024-.162.023-.163.022-.165.021-.166.02-.167.019-.169.018-.169.017-.171.016-.173.015-.173.014-.175.013-.175.012-.177.011-.178.009-.179.009-.179.007-.181.007-.182.005-.182.004-.184.003-.184.002h-.37l-.184-.002-.184-.003-.182-.004-.182-.005-.181-.007-.179-.007-.179-.009-.178-.009-.176-.011-.176-.012-.175-.013-.173-.014-.172-.015-.171-.016-.17-.017-.169-.018-.167-.019-.166-.02-.165-.021-.163-.022-.162-.023-.161-.024-.159-.025-.157-.026-.156-.027-.155-.028-.153-.028-.151-.03-.15-.03-.148-.031-.146-.033-.145-.033-.143-.033-.141-.035-.14-.036-.137-.036-.136-.037-.134-.038-.132-.039-.13-.039-.128-.04-.126-.041-.124-.042-.122-.043-.12-.043-.117-.044-.116-.044-.113-.046-.112-.046-.109-.046-.106-.047-.105-.048-.102-.049-.1-.049-.097-.05-.095-.051-.093-.051-.09-.051-.087-.053-.085-.052-.083-.054-.08-.054-.077-.054v4.139zm0-5.666v.011l.001.02.003.022.004.021.005.022.006.021.007.022.009.023.01.022.011.023.012.023.013.023.015.023.016.024.017.024.018.023.019.024.021.025.022.024.023.024.024.025.052.05.056.05.061.05.066.051.07.051.075.052.079.051.084.052.088.052.092.052.097.052.102.052.105.051.11.052.114.051.119.051.123.051.127.05.131.05.135.05.139.049.144.048.147.048.152.047.155.046.16.045.163.045.167.043.171.043.176.042.178.04.183.04.187.038.19.037.194.036.197.034.202.033.204.032.209.03.212.028.216.027.219.025.222.024.226.021.23.02.233.018.236.017.24.014.243.012.246.01.249.008.253.006.256.003.259.001.26-.001.257-.003.254-.006.25-.008.247-.01.244-.013.241-.014.237-.016.233-.018.231-.02.226-.022.224-.024.22-.025.216-.027.212-.029.21-.03.205-.032.202-.033.198-.035.194-.036.191-.037.187-.039.183-.039.179-.041.175-.042.172-.043.168-.044.163-.045.16-.045.155-.047.152-.047.148-.048.143-.049.139-.049.136-.049.131-.051.126-.05.123-.051.118-.052.114-.051.11-.052.106-.052.101-.052.096-.052.092-.052.088-.052.083-.052.079-.052.074-.052.07-.051.065-.051.06-.051.056-.05.051-.049.023-.025.023-.025.021-.024.02-.024.019-.024.018-.024.017-.024.015-.023.014-.024.013-.023.012-.023.01-.022.01-.023.008-.022.006-.022.006-.022.004-.022.004-.021.001-.021.001-.021v-4.153l-.077.054-.08.054-.083.053-.085.053-.087.053-.09.051-.093.051-.095.051-.097.05-.1.049-.102.048-.105.048-.106.048-.109.046-.111.046-.114.046-.115.044-.118.044-.12.043-.122.043-.124.042-.126.041-.128.04-.13.039-.132.039-.134.038-.135.037-.138.036-.139.036-.142.034-.143.034-.144.033-.147.032-.148.032-.15.03-.151.03-.153.028-.154.028-.156.027-.158.026-.159.024-.161.024-.162.023-.163.023-.165.021-.166.02-.167.019-.169.018-.169.017-.171.016-.173.015-.173.014-.175.013-.175.012-.177.01-.178.01-.179.009-.179.007-.181.006-.182.006-.182.004-.184.003-.184.001-.185.001-.185-.001-.184-.001-.184-.003-.182-.004-.182-.006-.181-.006-.179-.007-.179-.009-.178-.01-.176-.01-.176-.012-.175-.013-.173-.014-.172-.015-.171-.016-.17-.017-.169-.018-.167-.019-.166-.02-.165-.021-.163-.023-.162-.023-.161-.024-.159-.024-.157-.026-.156-.027-.155-.028-.153-.028-.151-.03-.15-.03-.148-.032-.146-.032-.145-.033-.143-.034-.141-.034-.14-.036-.137-.036-.136-.037-.134-.038-.132-.039-.13-.039-.128-.041-.126-.041-.124-.041-.122-.043-.12-.043-.117-.044-.116-.044-.113-.046-.112-.046-.109-.046-.106-.048-.105-.048-.102-.048-.1-.05-.097-.049-.095-.051-.093-.051-.09-.052-.087-.052-.085-.053-.083-.053-.08-.054-.077-.054v4.153zm8.74-8.179l-.257.004-.254.005-.25.008-.247.011-.244.012-.241.014-.237.016-.233.018-.231.021-.226.022-.224.023-.22.026-.216.027-.212.028-.21.031-.205.032-.202.033-.198.034-.194.036-.191.038-.187.038-.183.04-.179.041-.175.042-.172.043-.168.043-.163.045-.16.046-.155.046-.152.048-.148.048-.143.048-.139.049-.136.05-.131.05-.126.051-.123.051-.118.051-.114.052-.11.052-.106.052-.101.052-.096.052-.092.052-.088.052-.083.052-.079.052-.074.051-.07.052-.065.051-.06.05-.056.05-.051.05-.023.025-.023.024-.021.024-.02.025-.019.024-.018.024-.017.023-.015.024-.014.023-.013.023-.012.023-.01.023-.01.022-.008.022-.006.023-.006.021-.004.022-.004.021-.001.021-.001.021.001.021.001.021.004.021.004.022.006.021.006.023.008.022.01.022.01.023.012.023.013.023.014.023.015.024.017.023.018.024.019.024.02.025.021.024.023.024.023.025.051.05.056.05.06.05.065.051.07.052.074.051.079.052.083.052.088.052.092.052.096.052.101.052.106.052.11.052.114.052.118.051.123.051.126.051.131.05.136.05.139.049.143.048.148.048.152.048.155.046.16.046.163.045.168.043.172.043.175.042.179.041.183.04.187.038.191.038.194.036.198.034.202.033.205.032.21.031.212.028.216.027.22.026.224.023.226.022.231.021.233.018.237.016.241.014.244.012.247.011.25.008.254.005.257.004.26.001.26-.001.257-.004.254-.005.25-.008.247-.011.244-.012.241-.014.237-.016.233-.018.231-.021.226-.022.224-.023.22-.026.216-.027.212-.028.21-.031.205-.032.202-.033.198-.034.194-.036.191-.038.187-.038.183-.04.179-.041.175-.042.172-.043.168-.043.163-.045.16-.046.155-.046.152-.048.148-.048.143-.048.139-.049.136-.05.131-.05.126-.051.123-.051.118-.051.114-.052.11-.052.106-.052.101-.052.096-.052.092-.052.088-.052.083-.052.079-.052.074-.051.07-.052.065-.051.06-.05.056-.05.051-.05.023-.025.023-.024.021-.024.02-.025.019-.024.018-.024.017-.023.015-.024.014-.023.013-.023.012-.023.01-.023.01-.022.008-.022.006-.023.006-.021.004-.022.004-.021.001-.021.001-.021-.001-.021-.001-.021-.004-.021-.004-.022-.006-.021-.006-.023-.008-.022-.01-.022-.01-.023-.012-.023-.013-.023-.014-.023-.015-.024-.017-.023-.018-.024-.019-.024-.02-.025-.021-.024-.023-.024-.023-.025-.051-.05-.056-.05-.06-.05-.065-.051-.07-.052-.074-.051-.079-.052-.083-.052-.088-.052-.092-.052-.096-.052-.101-.052-.106-.052-.11-.052-.114-.052-.118-.051-.123-.051-.126-.051-.131-.05-.136-.05-.139-.049-.143-.048-.148-.048-.152-.048-.155-.046-.16-.046-.163-.045-.168-.043-.172-.043-.175-.042-.179-.041-.183-.04-.187-.038-.191-.038-.194-.036-.198-.034-.202-.033-.205-.032-.21-.031-.212-.028-.216-.027-.22-.026-.224-.023-.226-.022-.231-.021-.233-.018-.237-.016-.241-.014-.244-.012-.247-.011-.25-.008-.254-.005-.257-.004-.26-.001-.26.001z"></path></symbol></defs><defs><symbol id="clock" width="24" height="24"><path transform="scale(.5)" d="M12 2c5.514 0 10 4.486 10 10s-4.486 10-10 10-10-4.486-10-10 4.486-10 10-10zm0-2c-6.627 0-12 5.373-12 12s5.373 12 12 12 12-5.373 12-12-5.373-12-12-12zm5.848 12.459c.202.038.202.333.001.372-1.907.361-6.045 1.111-6.547 1.111-.719 0-1.301-.582-1.301-1.301 0-.512.77-5.447 1.125-7.445.034-.192.312-.181.343.014l.985 6.238 5.394 1.011z"></path></symbol></defs><defs><marker id="arrowhead" refX="7.9" refY="5" markerUnits="userSpaceOnUse" markerWidth="12" markerHeight="12" orient="auto-start-reverse"><path d="M -1 0 L 10 5 L 0 10 z"></path></marker></defs><defs><marker id="crosshead" markerWidth="15" markerHeight="8" orient="auto" refX="4" refY="4.5"><path fill="none" stroke="#000000" stroke-width="1pt" d="M 1,2 L 6,7 M 6,2 L 1,7" style="stroke-dasharray: 0, 0;"></path></marker></defs><defs><marker id="filled-head" refX="15.5" refY="7" markerWidth="20" markerHeight="28" orient="auto"><path d="M 18,7 L9,13 L14,7 L9,1 Z"></path></marker></defs><defs><marker id="sequencenumber" refX="15" refY="15" markerWidth="60" markerHeight="40" orient="auto"><circle cx="15" cy="15" r="6"></circle></marker></defs><g><line x1="124.5" y1="201" x2="730" y2="201" class="loopLine"></line><line x1="730" y1="201" x2="730" y2="450" class="loopLine"></line><line x1="124.5" y1="450" x2="730" y2="450" class="loopLine"></line><line x1="124.5" y1="201" x2="124.5" y2="450" class="loopLine"></line><polygon points="124.5,201 174.5,201 174.5,214 166.1,221 124.5,221" class="labelBox"></polygon><text x="150" y="214" text-anchor="middle" dominant-baseline="middle" alignment-baseline="middle" class="labelText" style="font-size: 16px; font-weight: 400;">loop</text><text x="452.25" y="219" text-anchor="middle" class="loopText" style="font-size: 16px; font-weight: 400;"><tspan x="452.25">[For each candidate exchange]</tspan></text></g><g><line x1="351" y1="664" x2="2361.5" y2="664" class="loopLine"></line><line x1="2361.5" y1="664" x2="2361.5" y2="1087" class="loopLine"></line><line x1="351" y1="1087" x2="2361.5" y2="1087" class="loopLine"></line><line x1="351" y1="664" x2="351" y2="1087" class="loopLine"></line><line x1="351" y1="810" x2="2361.5" y2="810" class="loopLine" style="stroke-dasharray: 3, 3;"></line><line x1="351" y1="951" x2="2361.5" y2="951" class="loopLine" style="stroke-dasharray: 3, 3;"></line><polygon points="351,664 401,664 401,677 392.6,684 351,684" class="labelBox"></polygon><text x="376" y="677" text-anchor="middle" dominant-baseline="middle" alignment-baseline="middle" class="labelText" style="font-size: 16px; font-weight: 400;">par</text><text x="1381.25" y="682" text-anchor="middle" class="loopText" style="font-size: 16px; font-weight: 400;"><tspan x="1381.25">[Spawn worker 1]</tspan></text><text x="1356.25" y="828" text-anchor="middle" class="loopText" style="font-size: 16px; font-weight: 400;">[Spawn worker 2]</text><text x="1356.25" y="969" text-anchor="middle" class="loopText" style="font-size: 16px; font-weight: 400;">[Spawn worker N]</text></g><g><line x1="264.5" y1="1286" x2="1163" y2="1286" class="loopLine"></line><line x1="1163" y1="1286" x2="1163" y2="1457" class="loopLine"></line><line x1="264.5" y1="1457" x2="1163" y2="1457" class="loopLine"></line><line x1="264.5" y1="1286" x2="264.5" y2="1457" class="loopLine"></line><polygon points="264.5,1286 314.5,1286 314.5,1299 306.1,1306 264.5,1306" class="labelBox"></polygon><text x="290" y="1299" text-anchor="middle" dominant-baseline="middle" alignment-baseline="middle" class="labelText" style="font-size: 16px; font-weight: 400;">alt</text><text x="738.75" y="1304" text-anchor="middle" class="loopText" style="font-size: 16px; font-weight: 400;"><tspan x="738.75">[Worker exits/crashes]</tspan></text></g><g><line x1="254.5" y1="1097" x2="1563" y2="1097" class="loopLine"></line><line x1="1563" y1="1097" x2="1563" y2="1467" class="loopLine"></line><line x1="254.5" y1="1467" x2="1563" y2="1467" class="loopLine"></line><line x1="254.5" y1="1097" x2="254.5" y2="1467" class="loopLine"></line><polygon points="254.5,1097 304.5,1097 304.5,1110 296.1,1117 254.5,1117" class="labelBox"></polygon><text x="280" y="1110" text-anchor="middle" dominant-baseline="middle" alignment-baseline="middle" class="labelText" style="font-size: 16px; font-weight: 400;">loop</text><text x="933.75" y="1115" text-anchor="middle" class="loopText" style="font-size: 16px; font-weight: 400;"><tspan x="933.75">[Runtime supervision]</tspan></text></g><g class="actor-man actor-top" name="OP"><line id="actor-man-torso0" x1="75" y1="25" x2="75" y2="45"></line><line id="actor-man-arms0" x1="57" y1="33" x2="93" y2="33"></line><line x1="57" y1="60" x2="75" y2="45"></line><line x1="75" y1="45" x2="91" y2="60"></line><circle cx="75" cy="10" r="15" width="150" height="65"></circle><text x="75" y="67.5" dominant-baseline="central" alignment-baseline="central" class="actor actor-man" style="text-anchor: middle; font-size: 16px; font-weight: 400;"><tspan x="75" dy="0">Operator</tspan></text></g><text x="217" y="80" text-anchor="middle" dominant-baseline="middle" alignment-baseline="middle" class="messageText" dy="1em" style="font-size: 16px; font-weight: 400;">Start orchestrator</text><line x1="76" y1="113" x2="358" y2="113" class="messageLine0" stroke-width="2" stroke="none" marker-end="url(#arrowhead)" style="fill: none;"></line><line x1="76" y1="113" x2="76" y2="113" stroke-width="0" marker-start="url(#sequencenumber)"></line><text x="76" y="117" font-family="sans-serif" font-size="12px" text-anchor="middle" class="sequenceNumber">1</text><text x="363" y="128" text-anchor="middle" dominant-baseline="middle" alignment-baseline="middle" class="messageText" dy="1em" style="font-size: 16px; font-weight: 400;">Build exchange candidate set\n(apply include/exclude flags)</text><path d="M 363,161 C 423,151 423,191 363,181" class="messageLine0" stroke-width="2" stroke="none" marker-end="url(#arrowhead)" style="fill: none;"></path><line x1="363" y1="161" x2="363" y2="161" stroke-width="0" marker-start="url(#sequencenumber)"></line><text x="363" y="165" font-family="sans-serif" font-size="12px" text-anchor="middle" class="sequenceNumber">2</text><text x="539" y="251" text-anchor="middle" dominant-baseline="middle" alignment-baseline="middle" class="messageText" dy="1em" style="font-size: 16px; font-weight: 400;">load_markets() + short profiling session</text><line x1="363" y1="284" x2="715" y2="284" class="messageLine0" stroke-width="2" stroke="none" marker-end="url(#arrowhead)" style="fill: none;"></line><line x1="363" y1="284" x2="363" y2="284" stroke-width="0" marker-start="url(#sequencenumber)"></line><text x="363" y="288" font-family="sans-serif" font-size="12px" text-anchor="middle" class="sequenceNumber">3</text><text x="542" y="299" text-anchor="middle" dominant-baseline="middle" alignment-baseline="middle" class="messageText" dy="1em" style="font-size: 16px; font-weight: 400;">ticks, bytes, reconnect/error counters</text><line x1="718" y1="332" x2="366" y2="332" class="messageLine1" stroke-width="2" stroke="none" marker-end="url(#arrowhead)" style="stroke-dasharray: 3, 3; fill: none;"></line><line x1="718" y1="332" x2="718" y2="332" stroke-width="0" marker-start="url(#sequencenumber)"></line><text x="718" y="336" font-family="sans-serif" font-size="12px" text-anchor="middle" class="sequenceNumber">4</text><text x="363" y="347" text-anchor="middle" dominant-baseline="middle" alignment-baseline="middle" class="messageText" dy="1em" style="font-size: 16px; font-weight: 400;">Compute exchange score\n(bytes_per_sec + reconnect penalty)</text><path d="M 363,380 C 423,370 423,410 363,400" class="messageLine0" stroke-width="2" stroke="none" marker-end="url(#arrowhead)" style="fill: none;"></path><line x1="363" y1="380" x2="363" y2="380" stroke-width="0" marker-start="url(#sequencenumber)"></line><text x="363" y="384" font-family="sans-serif" font-size="12px" text-anchor="middle" class="sequenceNumber">5</text><text x="363" y="465" text-anchor="middle" dominant-baseline="middle" alignment-baseline="middle" class="messageText" dy="1em" style="font-size: 16px; font-weight: 400;">Sort exchanges by score (desc)</text><path d="M 363,498 C 423,488 423,528 363,518" class="messageLine0" stroke-width="2" stroke="none" marker-end="url(#arrowhead)" style="fill: none;"></path><line x1="363" y1="498" x2="363" y2="498" stroke-width="0" marker-start="url(#sequencenumber)"></line><text x="363" y="502" font-family="sans-serif" font-size="12px" text-anchor="middle" class="sequenceNumber">6</text><text x="363" y="543" text-anchor="middle" dominant-baseline="middle" alignment-baseline="middle" class="messageText" dy="1em" style="font-size: 16px; font-weight: 400;">Greedy bin-packing to workers\n(assign next exchange to lightest worker)</text><path d="M 363,576 C 423,566 423,606 363,596" class="messageLine0" stroke-width="2" stroke="none" marker-end="url(#arrowhead)" style="fill: none;"></path><line x1="363" y1="576" x2="363" y2="576" stroke-width="0" marker-start="url(#sequencenumber)"></line><text x="363" y="580" font-family="sans-serif" font-size="12px" text-anchor="middle" class="sequenceNumber">7</text><text x="647" y="621" text-anchor="middle" dominant-baseline="middle" alignment-baseline="middle" class="messageText" dy="1em" style="font-size: 16px; font-weight: 400;">Persist worker-&gt;exchange mapping and scores</text><line x1="363" y1="654" x2="931.5" y2="654" class="messageLine0" stroke-width="2" stroke="none" marker-end="url(#arrowhead)" style="fill: none;"></line><line x1="363" y1="654" x2="363" y2="654" stroke-width="0" marker-start="url(#sequencenumber)"></line><text x="363" y="658" font-family="sans-serif" font-size="12px" text-anchor="middle" class="sequenceNumber">8</text><text x="756" y="714" text-anchor="middle" dominant-baseline="middle" alignment-baseline="middle" class="messageText" dy="1em" style="font-size: 16px; font-weight: 400;">Start ingest_all_exchanges_ws.py --exchanges shard_1</text><line x1="363" y1="747" x2="1148" y2="747" class="messageLine0" stroke-width="2" stroke="none" marker-end="url(#arrowhead)" style="fill: none;"></line><line x1="363" y1="747" x2="363" y2="747" stroke-width="0" marker-start="url(#sequencenumber)"></line><text x="363" y="751" font-family="sans-serif" font-size="12px" text-anchor="middle" class="sequenceNumber">9</text><text x="1470" y="762" text-anchor="middle" dominant-baseline="middle" alignment-baseline="middle" class="messageText" dy="1em" style="font-size: 16px; font-weight: 400;">Write market_ticks + connection_events</text><line x1="1153" y1="795" x2="1786.5" y2="795" class="messageLine0" stroke-width="2" stroke="none" marker-end="url(#arrowhead)" style="fill: none;"></line><line x1="1153" y1="795" x2="1153" y2="795" stroke-width="0" marker-start="url(#sequencenumber)"></line><text x="1153" y="799" font-family="sans-serif" font-size="12px" text-anchor="middle" class="sequenceNumber">10</text><text x="856" y="855" text-anchor="middle" dominant-baseline="middle" alignment-baseline="middle" class="messageText" dy="1em" style="font-size: 16px; font-weight: 400;">Start ingest_all_exchanges_ws.py --exchanges shard_2</text><line x1="363" y1="888" x2="1348" y2="888" class="messageLine0" stroke-width="2" stroke="none" marker-end="url(#arrowhead)" style="fill: none;"></line><line x1="363" y1="888" x2="363" y2="888" stroke-width="0" marker-start="url(#sequencenumber)"></line><text x="363" y="892" font-family="sans-serif" font-size="12px" text-anchor="middle" class="sequenceNumber">11</text><text x="1709" y="903" text-anchor="middle" dominant-baseline="middle" alignment-baseline="middle" class="messageText" dy="1em" style="font-size: 16px; font-weight: 400;">Write market_ticks + connection_events</text><line x1="1353" y1="936" x2="2065" y2="936" class="messageLine0" stroke-width="2" stroke="none" marker-end="url(#arrowhead)" style="fill: none;"></line><line x1="1353" y1="936" x2="1353" y2="936" stroke-width="0" marker-start="url(#sequencenumber)"></line><text x="1353" y="940" font-family="sans-serif" font-size="12px" text-anchor="middle" class="sequenceNumber">12</text><text x="956" y="996" text-anchor="middle" dominant-baseline="middle" alignment-baseline="middle" class="messageText" dy="1em" style="font-size: 16px; font-weight: 400;">Start ingest_all_exchanges_ws.py --exchanges shard_N</text><line x1="363" y1="1029" x2="1548" y2="1029" class="messageLine0" stroke-width="2" stroke="none" marker-end="url(#arrowhead)" style="fill: none;"></line><line x1="363" y1="1029" x2="363" y2="1029" stroke-width="0" marker-start="url(#sequencenumber)"></line><text x="363" y="1033" font-family="sans-serif" font-size="12px" text-anchor="middle" class="sequenceNumber">13</text><text x="1950" y="1044" text-anchor="middle" dominant-baseline="middle" alignment-baseline="middle" class="messageText" dy="1em" style="font-size: 16px; font-weight: 400;">Write market_ticks + connection_events</text><line x1="1553" y1="1077" x2="2346.5" y2="1077" class="messageLine0" stroke-width="2" stroke="none" marker-end="url(#arrowhead)" style="fill: none;"></line><line x1="1553" y1="1077" x2="1553" y2="1077" stroke-width="0" marker-start="url(#sequencenumber)"></line><text x="1553" y="1081" font-family="sans-serif" font-size="12px" text-anchor="middle" class="sequenceNumber">14</text><text x="756" y="1147" text-anchor="middle" dominant-baseline="middle" alignment-baseline="middle" class="messageText" dy="1em" style="font-size: 16px; font-weight: 400;">Health check (process alive)</text><line x1="363" y1="1180" x2="1148" y2="1180" class="messageLine0" stroke-width="2" stroke="none" marker-end="url(#arrowhead)" style="fill: none;"></line><line x1="363" y1="1180" x2="363" y2="1180" stroke-width="0" marker-start="url(#sequencenumber)"></line><text x="363" y="1184" font-family="sans-serif" font-size="12px" text-anchor="middle" class="sequenceNumber">15</text><text x="856" y="1195" text-anchor="middle" dominant-baseline="middle" alignment-baseline="middle" class="messageText" dy="1em" style="font-size: 16px; font-weight: 400;">Health check (process alive)</text><line x1="363" y1="1228" x2="1348" y2="1228" class="messageLine0" stroke-width="2" stroke="none" marker-end="url(#arrowhead)" style="fill: none;"></line><line x1="363" y1="1228" x2="363" y2="1228" stroke-width="0" marker-start="url(#sequencenumber)"></line><text x="363" y="1232" font-family="sans-serif" font-size="12px" text-anchor="middle" class="sequenceNumber">16</text><text x="956" y="1243" text-anchor="middle" dominant-baseline="middle" alignment-baseline="middle" class="messageText" dy="1em" style="font-size: 16px; font-weight: 400;">Health check (process alive)</text><line x1="363" y1="1276" x2="1548" y2="1276" class="messageLine0" stroke-width="2" stroke="none" marker-end="url(#arrowhead)" style="fill: none;"></line><line x1="363" y1="1276" x2="363" y2="1276" stroke-width="0" marker-start="url(#sequencenumber)"></line><text x="363" y="1280" font-family="sans-serif" font-size="12px" text-anchor="middle" class="sequenceNumber">17</text><text x="363" y="1336" text-anchor="middle" dominant-baseline="middle" alignment-baseline="middle" class="messageText" dy="1em" style="font-size: 16px; font-weight: 400;">Compute restart backoff</text><path d="M 363,1369 C 423,1359 423,1399 363,1389" class="messageLine0" stroke-width="2" stroke="none" marker-end="url(#arrowhead)" style="fill: none;"></path><line x1="363" y1="1369" x2="363" y2="1369" stroke-width="0" marker-start="url(#sequencenumber)"></line><text x="363" y="1373" font-family="sans-serif" font-size="12px" text-anchor="middle" class="sequenceNumber">18</text><text x="756" y="1414" text-anchor="middle" dominant-baseline="middle" alignment-baseline="middle" class="messageText" dy="1em" style="font-size: 16px; font-weight: 400;">Restart failed worker with same shard</text><line x1="363" y1="1447" x2="1148" y2="1447" class="messageLine0" stroke-width="2" stroke="none" marker-end="url(#arrowhead)" style="fill: none;"></line><line x1="363" y1="1447" x2="363" y2="1447" stroke-width="0" marker-start="url(#sequencenumber)"></line><text x="363" y="1451" font-family="sans-serif" font-size="12px" text-anchor="middle" class="sequenceNumber">19</text><text x="217" y="1482" text-anchor="middle" dominant-baseline="middle" alignment-baseline="middle" class="messageText" dy="1em" style="font-size: 16px; font-weight: 400;">Ctrl+C / stop</text><line x1="76" y1="1515" x2="358" y2="1515" class="messageLine0" stroke-width="2" stroke="none" marker-end="url(#arrowhead)" style="fill: none;"></line><line x1="76" y1="1515" x2="76" y2="1515" stroke-width="0" marker-start="url(#sequencenumber)"></line><text x="76" y="1519" font-family="sans-serif" font-size="12px" text-anchor="middle" class="sequenceNumber">20</text><text x="756" y="1530" text-anchor="middle" dominant-baseline="middle" alignment-baseline="middle" class="messageText" dy="1em" style="font-size: 16px; font-weight: 400;">Terminate</text><line x1="363" y1="1563" x2="1148" y2="1563" class="messageLine0" stroke-width="2" stroke="none" marker-end="url(#arrowhead)" style="fill: none;"></line><line x1="363" y1="1563" x2="363" y2="1563" stroke-width="0" marker-start="url(#sequencenumber)"></line><text x="363" y="1567" font-family="sans-serif" font-size="12px" text-anchor="middle" class="sequenceNumber">21</text><text x="856" y="1578" text-anchor="middle" dominant-baseline="middle" alignment-baseline="middle" class="messageText" dy="1em" style="font-size: 16px; font-weight: 400;">Terminate</text><line x1="363" y1="1611" x2="1348" y2="1611" class="messageLine0" stroke-width="2" stroke="none" marker-end="url(#arrowhead)" style="fill: none;"></line><line x1="363" y1="1611" x2="363" y2="1611" stroke-width="0" marker-start="url(#sequencenumber)"></line><text x="363" y="1615" font-family="sans-serif" font-size="12px" text-anchor="middle" class="sequenceNumber">22</text><text x="956" y="1626" text-anchor="middle" dominant-baseline="middle" alignment-baseline="middle" class="messageText" dy="1em" style="font-size: 16px; font-weight: 400;">Terminate</text><line x1="363" y1="1659" x2="1548" y2="1659" class="messageLine0" stroke-width="2" stroke="none" marker-end="url(#arrowhead)" style="fill: none;"></line><line x1="363" y1="1659" x2="363" y2="1659" stroke-width="0" marker-start="url(#sequencenumber)"></line><text x="363" y="1663" font-family="sans-serif" font-size="12px" text-anchor="middle" class="sequenceNumber">23</text><text x="220" y="1674" text-anchor="middle" dominant-baseline="middle" alignment-baseline="middle" class="messageText" dy="1em" style="font-size: 16px; font-weight: 400;">Graceful shutdown completed</text><line x1="361" y1="1707" x2="79" y2="1707" class="messageLine1" stroke-width="2" stroke="none" marker-end="url(#arrowhead)" style="stroke-dasharray: 3, 3; fill: none;"></line><line x1="361" y1="1707" x2="361" y2="1707" stroke-width="0" marker-start="url(#sequencenumber)"></line><text x="361" y="1711" font-family="sans-serif" font-size="12px" text-anchor="middle" class="sequenceNumber">24</text><g class="actor-man actor-bottom" name="OP"><line id="actor-man-torso9" x1="75" y1="1752" x2="75" y2="1772"></line><line id="actor-man-arms9" x1="57" y1="1760" x2="93" y2="1760"></line><line x1="57" y1="1787" x2="75" y2="1772"></line><line x1="75" y1="1772" x2="91" y2="1787"></line><circle cx="75" cy="1737" r="15" width="150" height="65"></circle><text x="75" y="1794.5" dominant-baseline="central" alignment-baseline="central" class="actor actor-man" style="text-anchor: middle; font-size: 16px; font-weight: 400;"><tspan x="75" dy="0">Operator</tspan></text></g></svg>